<?xml version="1.0" encoding="utf-8"?>
<!-- Generator: Adobe Illustrator 26.2.1, SVG Export Plug-In . SVG Version: 6.00 Build 0)  -->
<svg version="1.1" id="レイヤー_1" xmlns="http://www.w3.org/2000/svg" xmlns:xlink="http://www.w3.org/1999/xlink" x="0px"
	 y="0px" viewBox="0 0 526 82.5" style="enable-background:new 0 0 526 82.5;" xml:space="preserve">
<style type="text/css">
	.st0{fill:#001D42;}
</style>
<g id="baland_logo" transform="translate(-216.99 -96)">
	<g id="グループ_196" transform="translate(-234.922 -737.241)">
		<g id="グループ_193" transform="translate(451.912 836.024)">
			<path id="パス_192" class="st0" d="M19,38.5v-8.1c0.9-0.3,1.8-0.7,2.7-1.1c1.8-0.8,3.5-1.8,5.1-3c0.8-0.4,1.5-0.9,2-1.5
				c-0.9,0.1-1.9,0.2-2.8,0.2c-2.3,0-4.6,0.1-6.9,0.3c-1.6,0.1-3.3,0.3-4.9,0.6l-3.1,0.8c-3.1,1.1-6.1,2.4-9,4.1
				C1.7,31,0.9,31.4,0,31.9c1.2-0.1,2.4-0.2,3.6-0.1C5.7,32,7.6,32,9.4,32c0.4,0,0.8-0.1,1.2-0.1v6.5H1.3v4.9h9.3v34.2H19V43.3h9.1
				v-4.9C28.1,38.4,19,38.5,19,38.5z"/>
			<path id="パス_193" class="st0" d="M57.6,53.8h5.9V38.3c-2.8-1.7-5.9-2.9-9.1-3.6c0.7-0.1,1.4-0.2,2-0.3
				c1.3-0.3,2.5-0.8,3.6-1.4l1.7-1.2c0.6-0.4,1.1-1,1.5-1.6c0.8-1,1.5-2.2,2-3.5c0.4-0.5,0.6-1.1,0.7-1.7c-0.6,0.2-1.1,0.4-1.7,0.5
				c-1.5,0.3-3,0.7-4.4,1.1c-1,0.3-2,0.7-2.9,1.2l-1.7,1.2c-1.6,1.4-2.9,3.1-4,5c0,0-0.1,0.1-0.1,0.1c-1.3-0.1-2.6-0.2-3.9-0.3
				c-0.2,0-0.5,0-0.7,0l-0.2-0.3c-1.1-1.8-2.5-3.5-4.2-4.8l-1.7-1.1c-0.9-0.5-1.9-0.9-2.9-1.1c-1.4-0.4-2.9-0.7-4.4-1
				c-0.6-0.1-1.2-0.3-1.7-0.5c0.1,0.6,0.3,1.2,0.7,1.7c0.5,1.2,1.2,2.4,2.1,3.4c0.4,0.6,0.9,1.1,1.5,1.5l1.7,1.1
				c1.2,0.6,2.4,1,3.6,1.3c0.5,0.1,0.9,0.1,1.4,0.2c-4.1,0.6-8,1.9-11.5,4v15.5H48v23.6h18.5v-4.9h-8.9L57.6,53.8z M53.4,50.7H40.8
				V38.2c2.1-0.8,4.2-1.2,6.4-1.3c2.1,0,4.2,0.4,6.2,1.2L53.4,50.7z"/>
			<path id="パス_194" class="st0" d="M124.1,66.4h13.3v-4.9h-13.3v-7.6h14.2V32.2c-5.4-3.6-11.7-5.4-18.1-5.3
				c-6.6,0.2-13.1,1.6-19.2,4.1l0.1,21.4c-1.6,0-3.3-0.2-4.8-0.6c-1.3-0.3-2.6-0.6-3.7-0.8V36h6.3v-4.9H78.2V36h5.6v10.8
				c0,0,0,2.2,0,3.7c-0.8,0.1-1.7,0.2-2.5,0.4c-1.4,0.3-2.7,0.8-4,1.5c-1.1,0.6-2.2,1.4-3.1,2.3c-0.1,0.1-0.1,0.2-0.2,0.3
				c0,0.1-0.1,0.2-0.1,0.3c0.1,0.1,0.2,0.1,0.4,0.1c1.6-0.3,3.2-0.4,4.8-0.4c1.4,0.1,2.7,0.2,4.1,0.5c0.2,0,0.3,0.1,0.5,0.1v15.3H77
				v4.9h21.4v-4.9h-5.8V56.2c0.1,0,0.3,0,0.4,0c1.8-0.1,3.5-0.4,5.2-0.9c1-0.3,2-0.8,3-1.3h14.1v7.6h-12.1v4.9h12.1v6.3h-14.7v4.9
				h38.9v-4.9h-15.3V66.4z M129.1,50.6h-4.9v-6.1c0,0-0.1-0.2-0.1-0.4c1.6-0.1,3.2-0.4,4.7-0.8c0.1,0,0.2-0.1,0.3-0.1L129.1,50.6
				L129.1,50.6z M129.1,31.9v8.5c-0.7-0.1-1.4-0.2-2-0.4c-1-0.3-2-0.5-2.9-0.7v-9C125.9,30.5,127.6,31,129.1,31.9L129.1,31.9z
				 M110.2,37v-5.4c1.6-0.5,3.3-0.8,4.9-1.1v8.3c-0.7,0.1-1.3,0.2-2,0.3c-1,0.2-2,0.6-3,1L110.2,37L110.2,37z M110.2,50.6v-7.8
				c0.3,0,0.6,0,1,0c1.3,0.1,2.6,0.2,3.8,0.5c0.1,0,0.1,0,0.2,0v7.3H110.2z"/>
			<path id="パス_195" class="st0" d="M211.1,43.9c-0.4,0-1.3,0-2.6,0c-3.7,0.1-7.5-0.1-11.2-0.6c-4.8-0.7-9.1-1.1-12.9-1.3V27.8
				h-9.5V42c-0.9,0-1.9,0.1-2.9,0.1c-2.5,0.2-5,0.5-7.4,0.9c-3,0.5-5.9,1.2-8.7,2.3c-2.4,0.8-4.7,2-6.8,3.4
				c-0.2,0.1-0.3,0.3-0.5,0.4c-0.1,0.1-0.1,0.3-0.1,0.4c0.3,0.1,0.5,0.1,0.8,0.1c3-0.4,6.5-0.7,10.7-0.8c2.1,0,5.1,0.1,9,0.4
				c2.1,0.2,4.1,0.4,6,0.5v21.3h-20.7v6h51.1v-6h-20.9v-21c1.6,0,3.5-0.1,5.6-0.2c3.8-0.2,7.6-0.8,11.4-1.6
				c3.5-0.8,6.8-1.9,10.1-3.4c0.4-0.2,0.6-0.3,0.6-0.5C211.9,44,211.6,43.9,211.1,43.9z"/>
			<path id="パス_196" class="st0" d="M6,47.1c0-0.7,0-1.1,0-1.3c0-0.3,0-0.4-0.2-0.5c-0.2,0-0.3,0.1-0.4,0.3
				c-1.1,1.6-2,3.3-2.6,5.1c-0.6,1.9-1,3.8-1.3,5.8c-0.1,1.7-0.2,3.4-0.1,5.1c0.1,1.7,0.2,3.6,0.5,5.6c0.2,1.5,0.3,3,0.3,4.6
				c-0.1,1.8-0.4,3.6-0.7,5.4c0,0.1,0,0.3,0,0.4c0.1,0,0.2,0,0.3-0.1c0.1-0.1,0.2-0.1,0.3-0.2c1-1,1.9-2.2,2.6-3.4
				c0.8-1.4,1.4-2.9,1.8-4.4c0.4-1.2,0.6-2.5,0.7-3.7c0.1-1.4,0.2-2.7,0.2-3.8c0-3.1-0.4-6.1-1-9.1C6.1,50.9,5.9,49,6,47.1z"/>
			<path id="パス_197" class="st0" d="M26,50.6c-0.7-1.8-1.5-3.5-2.6-5.1c-0.1-0.2-0.2-0.3-0.4-0.3c-0.1,0.1-0.2,0.2-0.2,0.5
				c0,0.2,0,0.7,0,1.3c0.1,1.9-0.1,3.8-0.4,5.7c-0.6,3-1,6-1,9.1c0,1.1,0.1,2.4,0.2,3.8c0.1,1.3,0.4,2.5,0.7,3.7
				c0.4,1.5,1,3,1.8,4.4c0.7,1.3,1.6,2.4,2.6,3.4c0.1,0.1,0.2,0.2,0.3,0.2c0.1,0,0.2,0.1,0.3,0.1c0.1-0.1,0.1-0.3,0-0.4
				c-0.3-1.8-0.6-3.6-0.7-5.4c0-1.5,0.1-3.1,0.3-4.6c0.3-2,0.4-3.9,0.5-5.6c0-1.7,0-3.4-0.1-5.1C27.1,54.4,26.6,52.5,26,50.6z"/>
			<path id="パス_198" class="st0" d="M45.1,56.7c-1.6,0.5-3.1,1.2-4.4,2.2c-1.3,1-2.5,2.1-3.5,3.4c-0.8,1.1-1.6,2.3-2.2,3.6
				c-0.7,1.4-1.3,2.8-1.9,4.3c-0.5,1.2-1,2.3-1.6,3.4c-0.8,1.2-1.8,2.4-2.8,3.5c-0.1,0.1-0.1,0.2-0.1,0.3c0.1,0.1,0.2,0.1,0.3,0.1
				c0.1,0,0.2,0,0.4,0c1.3-0.2,2.5-0.5,3.7-1c1.2-0.6,2.4-1.3,3.4-2.2c0.8-0.7,1.5-1.4,2.2-2.3c0.7-1,1.2-1.8,1.7-2.6
				c1.2-2.2,2.2-4.6,2.8-7c0.4-1.5,1.1-3,2-4.3c0.3-0.5,0.5-0.8,0.6-0.9c0.1-0.2,0.1-0.3,0-0.4C45.5,56.6,45.3,56.6,45.1,56.7z"/>
		</g>
		<g id="グループ_194" transform="translate(756.146 833.241)">
			<path id="パス_199" class="st0" d="M177,53.3c-0.3,0-0.9,0-1.9,0c-2.7,0-5.4-0.3-8-1c-4.2-1.2-8.5-1.9-12.8-2.2
				c-1.6,0-3.3,0-5.3,0.1c-1.8,0.1-3.6,0.5-5.3,1c-2.2,0.6-4.3,1.4-6.2,2.6c-1.8,1.1-3.4,2.4-4.8,4c-0.1,0.2-0.2,0.3-0.3,0.5
				c-0.1,0.2-0.1,0.3-0.1,0.5c0.2,0.1,0.4,0.1,0.6,0.1c2.5-0.5,5.1-0.7,7.6-0.8c2.2,0.1,4.3,0.3,6.5,0.7c2.8,0.5,5.5,0.9,7.9,1.1
				c2.4,0.2,4.8,0.2,7.2,0.1c2.8-0.2,5.5-0.8,8.1-1.7c2.6-1,5-2.3,7.1-4c0.2-0.1,0.4-0.4,0.4-0.6C177.6,53.4,177.4,53.3,177,53.3z"
				/>
			<path id="パス_200" class="st0" d="M61,43.8c-3.2,0.1-6.4-0.1-9.6-0.4V30.8h-9.5v11.6c-3.9-0.3-7.3-0.5-10.4-0.5
				c-2.2,0-4.7,0.1-7.5,0.2c-1,0.1-1.9,0.2-2.8,0.2V30.6h-9.5V44c-1.4,0.4-2.7,0.8-4,1.2c-2.4,0.8-4.8,1.9-6.9,3.3
				c-0.2,0.1-0.3,0.3-0.5,0.4C0.1,49.1,0,49.2,0,49.4c0.3,0.1,0.5,0.1,0.8,0.1c3-0.4,6.6-0.7,10.8-0.9v15.3h9.5V49
				c3.9,0.3,7.5,0.5,10.8,0.7c2.4,0.1,5.7,0,9.9-0.1c0,5.1-1.2,10.2-3.4,14.8c-3.2,6.3-8.6,12-16.1,17l0.7,1.2
				c12.5-3.1,20.9-9.1,25.2-18.2c2-4.3,3-9.6,3.1-15.9c0.9-0.2,1.7-0.3,2.4-0.5c3.5-0.8,6.9-1.9,10.2-3.4c0.4-0.2,0.6-0.3,0.6-0.5
				c-0.1-0.2-0.4-0.3-1-0.2C63.2,43.8,62.3,43.8,61,43.8z"/>
			<path id="パス_201" class="st0" d="M122.6,43.2c-3.5,0.1-7-0.1-10.5-0.6c-3.9-0.6-7.4-1-10.6-1.2V29.5H91.2v11.7
				c-1,0-1.9,0.1-3,0.1c-2.3,0.1-4.7,0.4-7,0.9c-2.8,0.5-5.6,1.2-8.2,2.2c-2.3,0.8-4.4,1.9-6.4,3.3c-0.2,0.1-0.3,0.3-0.4,0.4
				c-0.1,0.1-0.1,0.3-0.1,0.4c0.2,0.1,0.5,0.1,0.7,0.1c2.8-0.4,6.1-0.6,10-0.8c1.9,0,4.8,0.1,8.5,0.4c2,0.2,4,0.4,5.9,0.5v27.3h-7.7
				v5.3h17.9V48.9c1.2,0,2.4-0.1,3.8-0.1c3.6-0.2,7.2-0.7,10.7-1.5c3.3-0.8,6.4-1.9,9.5-3.3c0.4-0.2,0.6-0.3,0.6-0.5
				c-0.1-0.2-0.4-0.3-0.9-0.3C124.7,43.2,123.8,43.2,122.6,43.2z"/>
			<path id="パス_202" class="st0" d="M120.2,24.7c-2.1,0-4,0.8-5.5,2.2c-3.1,3-3.1,8-0.1,11.1s8,3.1,11.1,0.1s3.1-8,0.1-11.1
				c0,0,0,0-0.1-0.1C124.2,25.5,122.2,24.7,120.2,24.7z M122.9,35.1c-1.5,1.5-3.9,1.6-5.5,0.1s-1.6-3.9-0.1-5.5c0,0,0.1-0.1,0.1-0.1
				c1.6-1.4,3.9-1.4,5.5,0C124.4,31.1,124.5,33.6,122.9,35.1C123,35.1,122.9,35.1,122.9,35.1z"/>
			<path id="パス_203" class="st0" d="M221.8,64.7c-0.3-1.7-0.9-3.3-1.7-4.9c-0.8-1.5-1.8-2.9-3.1-4c-0.9-0.9-2-1.7-3.1-2.3
				c-1.3-0.6-2.4-1.1-3.5-1.5c-3-1-6.1-1.5-9.2-1.5c-1.5-0.1-3-0.3-4.4-0.8V29.4h-9.2v51.9h9.2V54.9c0.1,0.1,0.1,0.2,0.2,0.3
				c1.4,1.5,3,2.7,4.7,3.7c1.5,0.8,3.1,1.4,4.8,1.9c1.9,0.5,3.7,0.9,5.6,1.1c1.5,0.2,3,0.6,4.5,1.1c1.7,0.8,3.2,1.7,4.7,2.8
				c0.2,0.1,0.3,0.1,0.4,0.1c0.1-0.1,0.1-0.3,0.1-0.5C221.8,65.1,221.8,64.9,221.8,64.7z"/>
			<path id="パス_204" class="st0" d="M80.2,53.6c-0.5,0.8-1.2,1.5-1.8,2.1c-1.7,1.7-3.3,3.4-4.8,5.1c-1.1,1.2-2,2.6-2.8,4
				l-1.2,2.9c-0.9,3.2-1.3,6.5-1.1,9.9c0,0.7,0,1.6,0,2.6c0.7-1,1.6-1.9,2.6-2.6c1.7-1.2,3.2-2.6,4.7-4c1.4-1.5,2.5-3.1,3.5-4.9
				l1.2-2.9c0.4-1.1,0.6-2.2,0.6-3.3c0.2-2.1,0.1-4.2-0.3-6.2C80.9,55.4,80.7,54.5,80.2,53.6z"/>
			<path id="パス_205" class="st0" d="M121.5,67.8l-1.2-2.9c-0.8-1.4-1.7-2.8-2.8-4c-1.5-1.7-3.1-3.4-4.8-5.1
				c-0.7-0.7-1.3-1.4-1.8-2.1c-0.4,0.9-0.6,1.8-0.6,2.8c-0.4,2-0.5,4.1-0.3,6.2c0,1.1,0.2,2.3,0.6,3.3l1.2,2.9
				c1,1.8,2.2,3.4,3.5,4.9c1.5,1.4,3.1,2.7,4.7,4c1,0.8,1.8,1.6,2.6,2.6c0-1.1,0-1.9,0-2.6C122.8,74.4,122.4,71.1,121.5,67.8z"/>
		</g>
		<g id="グループ_195" transform="translate(672.901 837.291)">
			<path id="パス_206" class="st0" d="M25.9,72c-0.2,0-0.5,0-1.1,0c-1.6,0-3.1-0.2-4.7-0.7c-1.2-0.4-2.4-0.6-3.4-0.9V31.7
				c0.2,0,0.3,0,0.5,0c1.6-0.1,3.2-0.5,4.7-1.1c1.5-0.6,2.9-1.5,4.1-2.5c0.1-0.1,0.2-0.2,0.2-0.4c0-0.2-0.2-0.2-0.4-0.2
				c-0.2,0-0.5,0-1.1,0c-1.6,0-3.1-0.2-4.7-0.7c-2.4-0.8-4.9-1.2-7.4-1.4c-0.9,0-1.9,0-3.1,0.1c-1,0.1-2.1,0.3-3.1,0.6
				C5.3,26.4,4.1,27,3,27.7c-1.1,0.7-2,1.5-2.8,2.5c-0.1,0.1-0.1,0.2-0.2,0.3C0,30.7,0,30.8,0,30.9c0.1,0.1,0.2,0.1,0.3,0.1
				c1.5-0.3,2.9-0.4,4.4-0.5c1.3,0.1,2.5,0.2,3.7,0.5c0,0,0.1,0,0.1,0v39.2c-0.7,0.1-1.3,0.2-2,0.4c-1.3,0.3-2.5,0.9-3.6,1.6
				c-1.1,0.7-2,1.5-2.8,2.5c-0.1,0.1-0.1,0.2-0.2,0.3C0,75.2,0,75.3,0,75.4c0.1,0.1,0.2,0.1,0.3,0.1c1.5-0.3,2.9-0.4,4.4-0.5
				C6,75,7.2,75.2,8.5,75.4c1.5,0.3,3,0.6,4.6,0.7c1.4,0.1,2.8,0.1,4.2,0.1c1.6-0.1,3.2-0.5,4.7-1.1c1.5-0.6,2.9-1.5,4.1-2.5
				c0.1-0.1,0.2-0.2,0.2-0.4C26.3,72.1,26.2,72,25.9,72z"/>
			<path id="パス_207" class="st0" d="M74,36.4c-0.1-1.9-0.2-3.6-0.3-5.5c-0.1-1.4-0.1-3-0.2-4.5c-0.1-1.1-0.1-1.7-1-1.7
				c-0.5,0-0.8,0.4-1.2,0.5c-0.5,0.3-1,0.6-1.6,0.9c-3.4,0.8-6.9,0.9-10.3,0.3c-2.4-0.6-4.9-0.9-7.4-1c-0.9,0-1.9,0-3.1,0.1
				c-1,0.1-2.1,0.2-3.1,0.5c-3.3,1-6.8,0.8-10-0.6c-0.4,0-0.7-0.1-1.1-0.2c-0.4-0.2-0.8-0.4-1.2-0.4c-0.7,0-0.9,0.7-1,1
				c-0.7,5-1.2,10.1-1.9,15.1c0,0.4-0.1,0.8-0.1,1.2c0,0.4,0.3,0.9,0.7,0.9c0.7,0,1.1-0.9,1.6-2c1-2.6,2.5-5,4.4-7.1
				c0.6-0.6,1.2-1.2,1.9-1.7c0.7-0.5,1.5-0.9,2.4-1.2c0,0,6.5-1.6,6.5,2.8l0,36.2c-0.8,0.1-1.5,0.3-2.2,0.5
				c-1.3,0.3-2.5,0.9-3.6,1.6c-1.1,0.7-2,1.5-2.8,2.5c-0.1,0.1-0.1,0.2-0.2,0.3c0,0.1-0.1,0.2-0.1,0.3c0.1,0.1,0.2,0.1,0.3,0.1
				c1.5-0.3,2.9-0.4,4.4-0.5c1.3,0.1,2.5,0.2,3.7,0.5c1.5,0.3,3,0.6,4.6,0.7c1.4,0.1,2.8,0.1,4.2,0.1c1.6-0.1,3.2-0.5,4.7-1.1
				c1.5-0.6,2.9-1.5,4.1-2.5c0.1-0.1,0.2-0.2,0.2-0.4c0-0.2-0.2-0.2-0.4-0.2c-0.2,0-0.5,0-1.1,0c-1.6,0-3.1-0.2-4.7-0.7
				c-1.1-0.3-2.1-0.6-3.1-0.8V33.8c0-1.8,0.7-3.9,8.9-1.7c0.8,0.5,1.5,1,2.1,1.7c1.7,1.6,2.6,3.1,4.2,6.5c0.4,0.9,0.9,1.8,1.4,2.7
				c0.2,0.2,0.5,0.3,0.7,0.3c0.4,0,0.8-0.3,0.8-1.2C74.3,40,74.1,38,74,36.4z"/>
		</g>
	</g>
</g>
<g>
	<path class="st0" d="M10.4,3.6c0-0.9,0-1.3-0.1-1.9h2.5c-0.1,0.5-0.1,1-0.1,1.8v1h4.5c0.8,0,1.2,0,1.7-0.1
		c-0.1,0.5-0.1,0.8-0.1,1.6v5.4c0,0.9,0,1.3,0.1,1.8h-2.3v-1h-3.8v3.2c0,1.1,0,1.6,0.1,2.2h-2.6c0.1-0.6,0.1-1.2,0.1-2.2v-3.2H6.8v1
		H4.4c0.1-0.5,0.1-1,0.1-1.8V5.9c0-0.7,0-1-0.1-1.5C5,4.4,5.3,4.4,6.1,4.4h4.4V3.6z M6.8,6.6V10h3.7V6.6H6.8z M16.6,10V6.6h-3.8V10
		H16.6z"/>
	<path class="st0" d="M30.1,6c0,0.2,0,0.2-0.1,0.5c0,0.1,0,0.1-0.1,0.6c-0.2,1.1-0.6,2.3-0.9,3.2c-0.6,1.7-1,2.6-2,4.3
		c-0.8-0.6-1.4-1.1-2.1-1.4c1.6-2.3,2.6-5,2.9-7.7L30.1,6z M34.4,1.9c-0.1,0.6-0.1,1.3-0.1,2.2v11c0,0.9-0.2,1.5-0.7,1.8
		c-0.4,0.2-1,0.3-2,0.3c-0.6,0-1.4,0-2.1-0.1c-0.1-0.9-0.3-1.4-0.6-2.3c1.1,0.1,1.7,0.2,2.4,0.2c0.6,0,0.7-0.1,0.7-0.4V4.1
		c0-0.9,0-1.7-0.1-2.2H34.4z M38.2,5.3c0,0.1,0,0.3,0.1,0.3c0.1,0.7,0.4,1.9,0.8,2.9c0.6,1.7,1.3,3,2.3,4.4c-0.8,0.5-1.5,0.9-2,1.5
		c-1.3-2-2.2-3.8-2.9-6.3C36.4,8,36.2,7.3,35.9,6L38.2,5.3z"/>
	<path class="st0" d="M55.3,11.7c0,0.2,0,0.2,0,0.3c0.5,0.6,1,0.9,1.8,1.3c-0.3,0.4-0.4,0.6-0.5,0.9c-0.3,0.6-0.3,0.6-0.4,0.8
		c-0.5-0.3-0.9-0.6-1.3-1.1c-0.4,1.4-1,2.4-2,3.5c-0.5-0.6-0.8-0.9-1.6-1.4c1.3-1,2-2.3,2.1-4.3c-0.6,0-0.8,0-1.1,0.1v-2
		c0.4,0.1,0.6,0.1,1.3,0.1H57c0,0,0-0.2-0.1-0.7l-0.7,0.2c0-0.3,0-0.3-0.1-0.5c-0.3,0.1-0.3,0.1-1.8,0.2C54,9.2,54,9.2,53.1,9.3
		l-0.2,0c-0.2,0-0.2,0-0.3,0l0-0.1c-0.2,0.3-0.3,0.4-0.3,0.5c0,0.1-0.1,0.4-0.3,1c-0.3-0.4-0.6-1-0.9-1.6c0,0.3,0,0.9,0.1,1.9v4.6
		c0,1.1,0,1.7,0.1,2.1h-2.1c0.1-0.5,0.1-1.2,0.1-2.1V13c0-0.5,0-1.2,0.1-2.4C49,12,48.6,13,48.1,13.7c-0.3-0.9-0.5-1.6-0.9-2.3
		c0.8-1.2,1.5-3,1.9-4.8h-0.4c-0.4,0-0.8,0-1.1,0.1V4.7c0.3,0.1,0.5,0.1,1.1,0.1h0.5V3.5c0-0.7,0-1.3-0.1-1.8h2.1
		c-0.1,0.4-0.1,0.9-0.1,1.8v1.3h0.3c0.2,0,0.4,0,0.6,0c-0.1-0.1-0.2-0.2-0.3-0.2L53,3.2l0.3,0.3c0.5-0.7,0.7-1.2,1-1.8l1.6,0.8
		c-0.5,1-0.9,1.6-1.4,2.2c0.2,0.2,0.2,0.3,0.4,0.5c0.5-0.7,0.6-0.8,0.9-1.5l1,0.6c0-0.3,0-0.5,0-0.7c0-1,0-1.3-0.1-1.9h2.2
		c-0.1,0.3-0.1,0.6-0.1,1.1v0.8L59,3.1l0.3,0.3c0.4-0.6,0.7-1.1,1-1.8l1.6,0.9c-0.5,0.9-0.8,1.3-1.5,2c0.2,0.2,0.2,0.2,0.4,0.4
		c0.4-0.5,0.6-0.7,1-1.5l1.3,0.9c-1.7,2-1.8,2.2-2.6,3c0.4,0,0.8-0.1,1.3-0.1c-0.1-0.3-0.1-0.4-0.3-0.7l1.1-0.4
		C63,7,63.3,7.9,63.6,9l-1.2,0.4c-0.1-0.3-0.1-0.5-0.1-0.7c-0.5,0.1-0.6,0.1-0.9,0.1c0.3,0.3,0.5,0.6,0.7,1.1c0.7,0,0.9,0,1.3-0.1v2
		c-0.5-0.1-1.2-0.1-1.8-0.1h-0.6l1.5,0.8c-0.7,1-1.1,1.4-1.8,2.1c0.4,0.5,0.7,0.8,0.9,0.8c0.3,0,0.4-0.4,0.6-2
		c0.5,0.5,0.9,0.9,1.5,1.1c-0.3,2.2-0.8,3-1.8,3c-0.9,0-1.6-0.5-2.6-1.8c-1.1,0.8-2.2,1.3-3.6,1.8c-0.3-0.7-0.5-1.1-1.1-1.8
		c1.4-0.3,2.5-0.8,3.8-1.6c-0.4-0.8-0.6-1.6-0.9-2.5H55.3z M52.4,7.7c0.1,0,0.2,0,0.3,0c0.5-0.6,0.7-0.8,1-1.2
		c-0.6-0.7-0.8-1-1.3-1.5v1.8c-0.4-0.1-0.6-0.1-0.9-0.1h-0.2C51.6,7.4,52,8,52.5,8.6L52.4,7.7z M56.7,6.5c0-0.6,0-0.8-0.1-1.4
		c-0.7,1.1-1.3,1.8-2.1,2.6c0.5,0,0.8-0.1,1.4-0.1c-0.1-0.3-0.1-0.4-0.3-0.8L56.7,6.5z M59.8,6.3c-0.4-0.5-0.7-0.8-1.2-1.3
		c0,1.2,0,1.2,0.1,2.4C59.3,6.8,59.5,6.7,59.8,6.3z M60.5,9.8c-0.2-0.4-0.4-0.6-0.6-0.9c-0.1,0-0.4,0-1,0.1c0,0.3,0,0.3,0.1,0.8
		H60.5z M59.3,11.7c0.1,0.5,0.3,0.9,0.4,1.3c0.5-0.5,0.7-0.7,1.1-1.3H59.3z"/>
	<path class="st0" d="M75.6,10.6c0-0.5,0-0.7,0-1C75.2,10,75,10.4,74.7,11c-0.4-0.5-0.6-0.9-0.9-1.5c0,0.3,0.1,1,0.1,2.1v3.9
		c0,0.9,0,1.6,0.1,2.1h-2.3c0.1-0.6,0.1-1.3,0.1-2.1v-2.7c0-0.6,0-1.4,0.1-2.1c-0.5,1.4-0.8,2-1.3,2.9c-0.3-0.7-0.6-1.2-1.1-1.9
		c1-1.4,1.8-3.2,2.1-4.9h-0.5c-0.5,0-0.8,0-1.1,0.1V4.6c0.3,0.1,0.6,0.1,1.1,0.1h0.6V3.5c0-0.9,0-1.3-0.1-1.8H74
		c-0.1,0.5-0.1,1-0.1,1.8v1.3h0.3c0.4,0,0.6,0,1-0.1v2.1c-0.3-0.1-0.6-0.1-0.9-0.1h-0.2c0.2,0.6,0.5,1.1,0.9,1.8V6.9
		c0.4,0.1,0.8,0.1,1.4,0.1h0.8V6.3h-0.4c-0.6,0-0.9,0-1.2,0.1V4.9C76,4.9,76.3,5,76.8,5h0.4V4.4h-0.5c-0.6,0-1,0-1.4,0.1V2.8
		c0.4,0.1,0.8,0.1,1.4,0.1h0.6c0-0.6,0-0.8-0.1-1.1h2.2c-0.1,0.3-0.1,0.5-0.1,1.1h2c0-0.7,0-0.8-0.1-1.1h2.2
		c-0.1,0.3-0.1,0.6-0.1,1.1h0.9c0.5,0,0.9,0,1.4-0.1v1.6c-0.4-0.1-0.7-0.1-1.4-0.1h-0.9V5h0.6c0.4,0,0.9,0,1.2-0.1v1.5
		c-0.4-0.1-0.6-0.1-1.2-0.1h-0.7v0.6h1c0.6,0,1.1,0,1.6-0.1v1.8c-0.5-0.1-0.9-0.1-1.6-0.1h-3v0.6h2.2c0.7,0,1.1,0,1.5-0.1
		c-0.1,0.5-0.1,0.9-0.1,1.7v2.4c0.5,0,0.7,0,1-0.1v1.9c-0.4-0.1-0.5-0.1-1-0.1v0.9c0,1.4-0.4,1.7-2.3,1.7c-0.2,0-0.3,0-1.2,0
		c-0.1-0.7-0.1-1.1-0.4-1.7c0.7,0.1,1,0.1,1.3,0.1c0.6,0,0.7-0.1,0.7-0.4v-0.6h-5.2v0.5c0,1.2,0,1.6,0.1,2.2h-2.1
		c0.1-0.7,0.1-1.1,0.1-2.2v-0.5c-0.4,0-0.7,0-0.9,0.1V13c0.3,0,0.5,0.1,0.9,0.1V10.6z M76.5,8.5c-0.5,0-1.1,0-1.4,0.1
		c0.2,0.2,0.2,0.3,0.5,0.5c0.4,0,0.9,0,1.4,0h2.1V8.5H76.5z M79.2,11.2v-0.7h-1.6v0.7H79.2z M79.2,13.2v-0.7h-1.6v0.7H79.2z M81.2,5
		V4.4h-2V5H81.2z M81.2,6.9V6.3h-2v0.6H81.2z M82.8,11.2v-0.7H81v0.7H82.8z M82.8,13.2v-0.7H81v0.7H82.8z"/>
	<path class="st0" d="M92.7,6.2c0,0,0.1,0,0.1,0c0.5,0,2.6-0.2,3.4-0.3c0.3-1.8,0.4-2.8,0.4-3.4c0-0.1,0-0.1,0-0.3l2.6,0.3
		c-0.1,0.2-0.1,0.3-0.1,0.5c0,0.1-0.2,0.8-0.4,2.2c-0.1,0.4-0.1,0.4-0.1,0.6c0.4,0,0.6,0,0.9,0c1.2,0,2.1,0.3,2.7,1
		c0.6,0.7,0.8,1.5,0.8,3.1c0,3-0.5,5.4-1.4,6.3c-0.5,0.6-1.1,0.8-2,0.8c-0.7,0-1.4-0.1-2.6-0.5c0-0.4,0-0.5,0-0.8
		c0-0.6-0.1-1-0.2-1.8c0.9,0.4,1.9,0.6,2.4,0.6c0.4,0,0.7-0.3,0.9-1c0.3-0.8,0.5-2.6,0.5-3.9c0-0.8-0.1-1.3-0.4-1.5
		c-0.2-0.2-0.5-0.3-1.1-0.3c-0.3,0-0.5,0-0.9,0.1c-0.6,2.8-1.5,5.4-3.1,8.7c-0.2,0.3-0.2,0.4-0.3,0.6l-2.4-1.3
		c1.2-1.5,2.6-4.9,3.3-7.8c-1.2,0.2-2.4,0.4-2.9,0.5L92.7,6.2z M104.1,2.7c0.7,0.7,1.1,1.3,1.6,2.2l-1.5,0.7c-0.5-0.9-1-1.7-1.6-2.3
		L104.1,2.7z M105.8,5.5c1.3,1.9,2.1,3.6,2.7,5.9l-2.3,1.1c-0.3-1.4-0.6-2.5-1.3-3.8c-0.5-1.1-0.7-1.5-1.2-2.2L105.8,5.5z
		 M106.2,1.8c0.6,0.6,1.1,1.3,1.6,2.2l-1.5,0.8c-0.5-0.9-1-1.5-1.5-2.2L106.2,1.8z"/>
	<path class="st0" d="M116.3,6.7c-0.4,0-0.8,0-1.2,0.1V4.6c0.4,0.1,0.8,0.1,1.3,0.1h0.6V3.5c0-0.9,0-1.2-0.1-1.7h2.3
		c-0.1,0.5-0.1,0.9-0.1,1.7v1.3h0.5c0.4,0,0.7,0,0.9-0.1v2.1c-0.3,0-0.6-0.1-0.9-0.1h-0.5v2.1c0.5-0.2,0.6-0.2,1.3-0.5v2
		c-0.7,0.3-0.9,0.4-1.3,0.5v4.8c0,1.5-0.5,1.9-2.3,1.9c-0.4,0-0.8,0-1.4-0.1c-0.1-0.9-0.2-1.3-0.5-2.1c0.6,0.1,1,0.1,1.3,0.1
		c0.5,0,0.6-0.1,0.6-0.5v-3.3c-0.6,0.2-0.6,0.2-1.1,0.3c-0.2,0.1-0.4,0.1-0.6,0.2L115,9.9c0.5,0,1-0.2,2-0.5V6.7H116.3z M124.3,10.9
		H122c-0.6,0-0.9,0-1.3,0.1v-2c0.4,0.1,0.9,0.1,1.5,0.1h6.8c0.7,0,1.1,0,1.6-0.1v2c-0.5-0.1-0.9-0.1-1.6-0.1h-2.6V12h2.1
		c0.7,0,1.1,0,1.5-0.1v1.9c-0.5-0.1-0.8-0.1-1.5-0.1h-2.1v1.4c0.5,0.1,1.1,0.1,1.7,0.1c0.8,0,2-0.1,2.8-0.1
		c-0.3,0.8-0.4,1.3-0.5,2.1c-0.7,0-1.5,0-1.9,0c-3.4,0-4.8-0.4-6.3-1.9c-0.5,1-0.8,1.4-1.5,2.3c-0.6-0.7-0.7-0.8-1.7-1.5
		c0.9-0.9,1.3-1.5,1.8-2.5c0.3-0.8,0.5-1.6,0.6-2.4l2.1,0.4c-0.1,0.1-0.1,0.4-0.3,0.9c-0.1,0.3-0.2,0.6-0.3,0.9
		c0.4,0.5,0.7,0.7,1.2,1.1V10.9z M122.4,8.3c-0.5,0-1.1,0-1.4,0c0-0.3,0-0.3,0-0.6c0-0.1,0-0.2,0-0.4c0-0.3,0-0.6,0-0.7V3.8
		c0-0.7,0-1.2-0.1-1.6c0.5,0.1,1.1,0.1,1.7,0.1h5.3c0.7,0,1.1,0,1.6-0.1c-0.1,0.4-0.1,1-0.1,1.7v2.8c0,0.7,0,0.9,0.1,1.7
		c-0.5,0-1-0.1-1.7-0.1H122.4z M123.1,4.6h4.3V3.9h-4.3V4.6z M123.1,6.7h4.3V6h-4.3V6.7z"/>
	<path class="st0" d="M145.9,13.3c-1.2,2-2.1,3-3.8,4.3c-0.6-0.7-1-1.1-1.7-1.7c0,0.3,0.1,1.2,0.1,1.6h-2.4c0.1-0.6,0.1-1.1,0.1-2
		v-4.5c0-1.1,0-1.1,0-1.8c-0.4,0.7-0.7,1-1.2,1.6c-0.3-1.2-0.4-1.6-0.8-2.6c1.6-1.7,2.9-4.4,3.3-6.8l2.3,0.6
		c-0.1,0.2-0.1,0.4-0.3,0.7c-0.4,1.2-0.7,1.9-1.1,2.9v10.1c1-0.6,1.4-1,2-1.7c0.6-0.7,0.9-1.1,1.5-2.1h-1.3c-0.7,0-1.2,0-1.6,0.1V10
		c0.4,0.1,0.9,0.1,1.6,0.1h0.7V6.9H143c-0.7,0-1.1,0-1.6,0.1V4.7c0.5,0.1,1,0.1,1.6,0.1h0.3V3.2c0-0.5,0-0.9-0.1-1.4h2.3
		c-0.1,0.4-0.1,0.8-0.1,1.4v1.6h2.1V3.3c0-0.6,0-1-0.1-1.4h2.3c-0.1,0.5-0.1,0.9-0.1,1.4v1.5h0.6c0.7,0,1.2,0,1.6-0.1v2.2
		c-0.5-0.1-0.9-0.1-1.6-0.1h-0.6v3.2h1.1c0.7,0,1.1,0,1.6-0.1v2.2c-0.5-0.1-0.9-0.1-1.6-0.1h-1.8c0.5,0.8,0.7,1,1.1,1.5
		c0.9,1,1.4,1.4,2.4,2c-0.6,0.7-1.1,1.2-1.5,1.9c-0.9-0.7-1.3-1-2-1.8c-0.8-0.9-1.2-1.4-1.9-2.6l1.7-1.1H144L145.9,13.3z
		 M147.6,10.1V6.9h-2.1v3.2H147.6z"/>
	<path class="st0" d="M158.7,4.1c0.4,0,0.6,0,0.9,0c0.4,0,2.1-0.1,6.9-0.2c0-1.3,0-1.4-0.1-1.9h2.6c-0.1,0.7-0.1,0.8-0.1,1.9
		c2.9,0,4.2-0.1,4.9-0.1l0,2.3C173,6,172.6,6,170.8,6c-0.9,0-1,0-1.9,0l0,0.4V7l0,1.4c0,0.1,0,0.2,0,0.4c0.4,0.9,0.6,1.6,0.6,2.6
		c0,2-0.9,3.5-2.7,4.7c-0.9,0.6-1.7,0.9-3.2,1.4c-0.5-1.2-0.7-1.5-1.4-2.3c1.8-0.3,3-0.8,3.8-1.5c0.5-0.4,0.8-0.9,0.9-1.4
		c-0.6,0.7-1.3,1-2.4,1c-0.8,0-1.4-0.2-2-0.7c-0.8-0.6-1.1-1.4-1.1-2.3c0-1.9,1.5-3.2,3.6-3.2c0.7,0,1.2,0.1,1.6,0.4
		c0-0.1,0-0.1,0-0.3c0-0.1,0-0.1,0-1c-4,0.1-6.3,0.2-7.7,0.4L158.7,4.1z M163.8,10.1c0,0.6,0.5,1.1,1.3,1.1c0.8,0,1.5-0.6,1.5-1.3
		c0-0.6-0.5-1-1.3-1C164.4,8.9,163.8,9.4,163.8,10.1z"/>
	<path class="st0" d="M182,2.8c0.6,0.1,1.2,0.1,2.2,0.1c1.5,0,3.6-0.1,5.2-0.2c0.7-0.1,0.9-0.1,1.2-0.2l1.2,1.8
		c-0.4,0.2-0.4,0.2-1.7,1.4c-1.8,1.6-2.3,2-3.7,3c1-0.3,1.8-0.4,2.8-0.4c1.4,0,2.6,0.4,3.6,1.2c0.8,0.7,1.2,1.6,1.2,2.8
		c0,1.6-0.8,3-2.3,3.9c-1.1,0.7-2.6,1-4.3,1c-1.5,0-2.7-0.3-3.5-0.9c-0.7-0.5-1-1.2-1-2.1c0-1.5,1.3-2.6,3.1-2.6
		c1.2,0,2.3,0.5,3,1.4c0.3,0.4,0.5,0.8,0.8,1.5c1.2-0.5,1.7-1.1,1.7-2.2c0-1.2-1.3-2-3.2-2c-2.5,0-4.8,1-6.9,2.9l-1.4-2.2
		c1.6-0.8,5.2-3.6,7.6-6c-1.4,0.1-1.7,0.1-4.2,0.3c-0.5,0-0.7,0-1.2,0.1L182,2.8z M185.9,13.5c-0.5,0-0.9,0.3-0.9,0.7
		c0,0.6,0.6,0.9,1.8,0.9c0.3,0,0.3,0,0.7-0.1C187.3,14,186.7,13.5,185.9,13.5z"/>
	<path class="st0" d="M203.8,4.6c-0.6,0.1-0.8,0.2-1.6,0.3c-0.1-0.6-0.3-1.1-0.8-1.9c1.9-0.2,3.2-0.5,4.5-1.1
		c0.3-0.1,0.5-0.2,0.7-0.4l1.3,1.8c-0.1,0.1-0.1,0.1-0.4,0.2c-0.5,0.2-0.9,0.3-1.6,0.6v2h0.4c0.6,0,0.9,0,1.2-0.1v2.1
		c-0.3-0.1-0.6-0.1-1.2-0.1H206c0.6,1.2,1,1.8,1.9,2.7c-0.4,0.9-0.6,1.1-0.9,2c-0.5-0.6-0.7-1-1.2-1.9c0,0.4,0.1,1.2,0.1,1.7v2.9
		c0,1,0,1.5,0.1,2.1h-2.3c0.1-0.7,0.1-1.2,0.1-2.1V13c0-0.3,0.1-1.4,0.1-1.8c-0.5,1.4-0.9,2.3-1.8,3.4c-0.3-1-0.5-1.4-1-2.2
		c1.1-1.3,2-2.9,2.4-4.3h-0.7c-0.6,0-0.9,0-1.3,0.1V6c0.4,0.1,0.7,0.1,1.3,0.1h1V4.6z M209.7,5.1c-0.5-1.2-0.8-1.9-1.4-2.7l2-0.9
		c0.6,1,1,1.8,1.4,2.7l-1.8,0.8h2.7c0.6-1.2,1-2.1,1.3-3.5l2.2,0.7c-1,2.1-1,2.1-1.4,2.8h0.3c0.6,0,0.9,0,1.4-0.1
		c-0.1,0.4-0.1,0.7-0.1,1.2v3.3c0,0.5,0,0.9,0.1,1.3c-0.5-0.1-0.9-0.1-1.4-0.1h-0.6V15c0,0.2,0.1,0.3,0.3,0.3c0.1,0,0.2,0,0.2,0
		c0,0,0.1,0,0.1,0c0.5,0,0.6-0.1,0.6-2.3c0.7,0.4,1.1,0.6,1.7,0.8c-0.1,1.9-0.2,2.5-0.5,2.9c-0.3,0.5-0.9,0.6-2.5,0.6
		c-1.5,0-2-0.3-2-1.5v-5.1h-1l0.2,0c-0.2,2.2-0.4,3.2-1.1,4.4c-0.6,1.1-1.3,1.8-2.5,2.5c-0.4-0.7-0.7-1.1-1.5-1.8
		c1-0.5,1.7-1.1,2.2-1.9c0.5-0.8,0.8-2,0.8-3.1c0,0,0-0.1,0-0.2h-0.1c-0.6,0-0.9,0-1.3,0.1c0-0.4,0.1-0.8,0.1-1.3V6.3
		c0-0.4,0-0.8-0.1-1.2c0.5,0.1,0.8,0.1,1.4,0.1H209.7z M210.1,8.7h4.1V7.1h-4.1V8.7z"/>
	<path class="st0" d="M225.1,4.4c-0.5,0-0.8,0-1.2,0.1V2.4c0.4,0.1,0.9,0.1,1.6,0.1h2.3c0.7,0,1.1,0,1.6-0.1v2.1
		c-0.4-0.1-0.8-0.1-1.2-0.1h-0.4v3h0.3c0.4,0,0.7,0,1.1-0.1v2c-0.3,0-0.7-0.1-1.1-0.1h-0.3v2.9c0.6-0.2,0.8-0.3,1.5-0.7l0,2.1
		c-1.4,0.7-2.4,1.1-4.7,2.1c-0.1,0.1-0.2,0.1-0.4,0.2l-0.5-2.3c0.6-0.1,0.8-0.2,2-0.6V9.4h-0.4c-0.5,0-0.8,0-1.2,0.1V7.4
		c0.4,0.1,0.7,0.1,1.2,0.1h0.3v-3H225.1z M233.3,13.8h-1.8c-1,0-1.4,0-1.8,0.1v-2.1c0.4,0.1,0.7,0.1,1.8,0.1h1.8v-1.2h-1.6
		c-1.1,0-1.5,0-2,0.1c0.1-0.4,0.1-1.1,0.1-2.2v-4c0-1.2,0-1.8-0.1-2.3c0.7,0.1,1.2,0.1,2.4,0.1h4.8c1.3,0,1.8,0,2.2-0.1
		c-0.1,0.5-0.1,1.3-0.1,2.4v3.7c0,1.2,0,1.8,0.1,2.3c-0.5-0.1-0.8-0.1-1.8-0.1h-2v1.2h2c1,0,1.4,0,1.9-0.1v2.1
		c-0.5-0.1-0.9-0.1-1.8-0.1h-2v1.3h2.5c0.9,0,1.4,0,1.9-0.1v2.1c-0.6-0.1-1.1-0.1-2-0.1h-6.9c-1,0-1.4,0-2.1,0.1V15
		c0.5,0.1,0.9,0.1,1.8,0.1h2.8V13.8z M231.8,4.2v1.4h1.5V4.2H231.8z M231.8,7.3v1.4h1.5V7.3H231.8z M235.3,5.6h1.5V4.2h-1.5V5.6z
		 M235.3,8.7h1.5V7.3h-1.5V8.7z"/>
	<path class="st0" d="M252.5,3.8c0-0.9,0-1.4-0.1-2h2.7c-0.1,0.6-0.1,1.2-0.1,2v2.7h4c0.9,0,1.7,0,2.5-0.1v2.4
		c-0.8-0.1-1.5-0.1-2.5-0.1h-4.1v5.8h3.4c1.1,0,1.6,0,2.3-0.1v2.4c-0.7-0.1-1.2-0.1-2.3-0.1h-9c-1,0-1.6,0-2.3,0.1v-2.4
		c0.6,0.1,1.2,0.1,2.2,0.1h3.2V8.7h-3.7c-1,0-1.7,0-2.6,0.1V6.4c0.7,0.1,1.6,0.1,2.6,0.1h3.7V3.8z"/>
	<path class="st0" d="M275.3,12.4c-1,2.2-2.1,3.2-3.5,3.2c-2.1,0-3.6-2.1-3.6-5c0-1.9,0.7-3.7,1.9-5.1c1.5-1.6,3.6-2.4,6-2.4
		c4.3,0,7,2.6,7,6.5c0,3.1-1.5,5.5-4.3,6.6c-0.8,0.3-1.5,0.5-2.7,0.7c-0.4-1.1-0.6-1.5-1.3-2.4c1.5-0.1,2.6-0.4,3.4-0.8
		c1.5-0.8,2.3-2.4,2.3-4.2c0-1.5-0.7-2.8-1.8-3.6c-0.5-0.3-0.9-0.5-1.6-0.5C276.8,8.1,276.2,10.4,275.3,12.4z M272.6,6.2
		c-1.3,1-2.1,2.7-2.1,4.4c0,1.3,0.5,2.3,1.2,2.3c0.5,0,1-0.7,1.6-2c0.6-1.5,1.2-3.7,1.4-5.5C273.8,5.5,273.3,5.7,272.6,6.2z"/>
	<path class="st0" d="M289.6,4.6c0.6,0.1,1.4,0.2,2.4,0.2c0.1,0,0.1,0,0.6,0c0.2-0.9,0.3-2,0.3-2.5c0-0.1,0-0.2,0-0.3l2.7,0.2
		c-0.1,0.4-0.1,0.4-0.3,1.6c-0.1,0.5-0.1,0.5-0.1,0.8c1.2-0.1,2-0.3,2.8-0.5l0.1,2.3c-0.3,0-0.3,0-0.9,0.1c-0.7,0.1-1.5,0.2-2.4,0.3
		c-0.3,1.5-0.5,2.6-1,4.2c-0.5,1.9-0.7,2.4-1.5,4.7c-0.2,0.5-0.3,0.9-0.4,1.2l-2.6-1c1.1-2.2,2.4-5.9,3-9h-0.5l-1.8-0.1
		c-0.1,0-0.2,0-0.3,0L289.6,4.6z M298.5,11.4c-0.7,0.9-0.9,1.3-0.9,1.9c0,0.8,0.8,1.2,2.4,1.2c1.2,0,2.8-0.3,3.8-0.7l0.2,2.5
		c-0.3,0-0.4,0.1-0.9,0.1c-1.4,0.2-2.3,0.3-3.2,0.3c-1.6,0-2.7-0.2-3.5-0.7c-0.8-0.4-1.3-1.3-1.3-2.2c0-0.9,0.4-1.8,1.3-3.1
		L298.5,11.4z M303.4,9.4c-0.8-0.1-1.3-0.1-2.2-0.1c-1.8,0-2.9,0.1-4.6,0.5l-0.2-2.2c2.5-0.5,3.4-0.5,5.4-0.5c0.4,0,0.5,0,1.6,0
		L303.4,9.4z"/>
	<path class="st0" d="M315.1,2.7c0,0.7,0.2,1.8,0.4,2.6c0.9-0.4,2-0.6,3.1-0.6c0.1,0,0.2,0,0.4,0c0.4-1.4,0.4-2,0.5-2.6l2.5,0.5
		c-0.1,0.2-0.1,0.3-0.2,0.5c-0.2,0.8-0.4,1.7-0.5,1.9c1,0.3,1.6,0.6,2.3,1.1c1.3,1,2,2.5,2,4.3c0,2.6-1.5,4.7-4,5.8
		c-0.9,0.4-1.6,0.6-2.9,0.8c-0.3-1-0.5-1.4-1.3-2.4c3.7-0.3,5.7-1.8,5.7-4.4c0-1.5-0.8-2.5-2.4-3.1c-0.8,2.5-1.8,4.6-3,6.1
		c-1.3,1.7-2.6,2.6-3.9,2.6c-1.9,0-3.2-1.7-3.2-4.1c0-2.1,1-3.9,2.7-5.3c-0.1-0.2-0.3-1.1-0.6-2.6c-0.1-0.2-0.1-0.3-0.2-0.6
		L315.1,2.7z M312.9,11.5c0,1.1,0.4,1.8,1.1,1.8c0.4,0,0.9-0.3,1.3-0.9c-0.7-1.4-0.9-2.1-1.3-3.6C313.3,9.6,312.9,10.6,312.9,11.5z
		 M316.8,10.4c0.8-1.5,1.1-2.2,1.5-3.6c-1,0-1.7,0.2-2.5,0.6C316.2,8.7,316.3,9,316.8,10.4z"/>
	<path class="st0" d="M339.6,12.4c-1,2.2-2.1,3.2-3.5,3.2c-2.1,0-3.6-2.1-3.6-5c0-1.9,0.7-3.7,1.9-5.1c1.5-1.6,3.6-2.4,6-2.4
		c4.3,0,7,2.6,7,6.5c0,3.1-1.5,5.5-4.3,6.6c-0.8,0.3-1.5,0.5-2.7,0.7c-0.4-1.1-0.6-1.5-1.3-2.4c1.5-0.1,2.6-0.4,3.4-0.8
		c1.5-0.8,2.3-2.4,2.3-4.2c0-1.5-0.7-2.8-1.8-3.6c-0.5-0.3-0.9-0.5-1.6-0.5C341.1,8.1,340.5,10.4,339.6,12.4z M336.9,6.2
		c-1.3,1-2.1,2.7-2.1,4.4c0,1.3,0.5,2.3,1.2,2.3c0.5,0,1-0.7,1.6-2c0.6-1.5,1.2-3.7,1.4-5.5C338.1,5.5,337.5,5.7,336.9,6.2z"/>
	<path class="st0" d="M357.4,2.6c-0.1,0.7-0.1,1.2-0.1,2.3v9.1c0,1.1,0,1.7,0.1,2.3h-3.1c0.1-0.7,0.1-1.3,0.1-2.3V4.9
		c0-1.2,0-1.6-0.1-2.3H357.4z"/>
	<path class="st0" d="M371.7,14c0,1,0,1.6,0.1,2.4h-3.1c0.1-0.7,0.1-1.4,0.1-2.4V5.1h-2.2c-1,0-1.8,0-2.4,0.1V2.5
		c0.7,0.1,1.4,0.1,2.4,0.1h7.1c1.2,0,1.9,0,2.6-0.1v2.7c-0.7-0.1-1.3-0.1-2.6-0.1h-2V14z"/>
	<path class="st0" d="M382.4,9.5c0.3-1.4,0.5-2.5,0.5-3.9c0-0.1,0-0.3,0-0.5l1.4,0.3c0,1.8-0.2,3.4-0.5,4.8L382.4,9.5z M386.6,15.5
		c0,0.9,0,1.4,0.1,2.1h-2.3c0.1-0.6,0.1-1.4,0.1-2.2V3.5c0-0.8,0-1.3-0.1-1.8h2.3c-0.1,0.6-0.1,1-0.1,1.8V5l0.9-0.4
		c0.4,0.9,0.6,1.2,0.9,2.3c0.3,0,0.5,0,0.9,0h2.4V6.4h-1.9c-0.6,0-0.9,0-1.4,0.1V4.9c0.4,0,0.7,0.1,1.4,0.1h1.9V4.4h-2.1
		c-1,0-1.3,0-1.7,0.1V2.7c0.5,0.1,0.9,0.1,1.9,0.1h1.9c0-0.5,0-0.7-0.1-1.1h2.2c-0.1,0.4-0.1,0.6-0.1,1.1h2.4c1,0,1.3,0,1.8-0.1v1.8
		c-0.5-0.1-0.9-0.1-1.8-0.1h-2.4v0.6h2.3c0.7,0,1,0,1.3-0.1v1.5c-0.4,0-0.7-0.1-1.4-0.1h-2.3V7h2.8c0.9,0,1.2,0,1.7-0.1v1.8
		c-0.5-0.1-0.9-0.1-1.7-0.1h-7.2c-0.9,0-1.2,0-1.7,0.1V7.3l-0.5,0.2c-0.2-0.7-0.3-1.2-0.5-1.8V15.5z M390.4,15.5c0,0.8,0,1.4,0.1,2
		h-2.3c0.1-0.6,0.1-1,0.1-2v-4.9c0-0.6,0-1-0.1-1.4c0.4,0,0.7,0.1,1.3,0.1h6.3c0.7,0,1.1,0,1.5-0.1c-0.1,0.4-0.1,0.9-0.1,1.7v4.8
		c0,1.4-0.5,1.8-2.5,1.8c-0.4,0-0.4,0-1.4-0.1c-0.1-0.8-0.2-1.2-0.4-1.9c0.7,0.1,1.2,0.1,1.6,0.1c0.6,0,0.7-0.1,0.7-0.4v-0.5h-4.8
		V15.5z M395.3,11.3v-0.6h-4.8v0.6H395.3z M395.3,13.3v-0.6h-4.8v0.6H395.3z"/>
	<path class="st0" d="M410.8,6.1c0.7,0,1.1,0,1.5-0.1v2.1c-0.3,0-0.5-0.1-0.9-0.1c-0.2,0.8-0.2,1-0.5,1.7c0.7,0,1,0,1.3-0.1v2.1
		c-0.5-0.1-0.9-0.1-1.5-0.1h-1.1v1.1h1c0.7,0,1,0,1.5-0.1v2.1c-0.5-0.1-0.8-0.1-1.5-0.1h-1v1c0,0.7,0,1.3,0.1,1.8h-2.2
		c0.1-0.6,0.1-1,0.1-1.8v-1h-1c-0.7,0-1,0-1.5,0.1v-2.1c0.5,0.1,0.8,0.1,1.5,0.1h1v-1.1h-1.3c-0.7,0-1.1,0-1.5,0.1V9.6
		c0.5,0.1,0.7,0.1,1.5,0.1c-0.1-0.6-0.2-1-0.4-1.7c-0.4,0-0.7,0-1.1,0.1V6c0.5,0.1,0.8,0.1,1.5,0.1h1.3V5h-0.9c-0.6,0-1,0-1.5,0.1V3
		c0.4,0.1,0.8,0.1,1.5,0.1h0.9V2.9c0-0.5,0-1-0.1-1.2h2.2c0,0.4-0.1,0.7-0.1,1.2v0.2h0.8c0.7,0,1.1,0,1.5-0.1v2.1
		c-0.5-0.1-0.9-0.1-1.5-0.1h-0.8v1.1H410.8z M409.1,9.7c0.2-0.5,0.3-1.1,0.4-1.7h-1.7c0.2,0.7,0.3,1,0.4,1.7H409.1z M420.2,8.7
		c-0.1,0.2-0.1,0.4-0.2,0.8c-0.3,1.5-0.9,3.1-1.4,4.1c0.8,0.8,1.1,1.1,2.2,1.7c-0.6,0.9-0.8,1.4-1.1,2.2c-0.9-0.7-1.4-1.1-2.2-2
		c-0.6,0.8-1,1.3-1.9,2c-0.3-0.7-0.6-1-1-1.6c0,0.7,0.1,1.1,0.1,1.7h-2.3c0.1-0.7,0.1-1.2,0.1-2.2V4c0-0.6,0-1.3-0.1-1.8
		c0.5,0.1,0.9,0.1,1.6,0.1h4.3c0.8,0,1.3,0,1.7-0.1c-0.1,0.6-0.1,0.6-0.1,1.1c-0.2,3.4-0.4,3.7-2.5,3.7c-0.4,0-0.7,0-1.4-0.1
		c-0.1-0.7-0.2-1.3-0.4-1.8c0.7,0.1,1.3,0.2,1.6,0.2c0.4,0,0.5-0.1,0.6-1.1h-3.2v3.5h2.9c0.9,0,1.3,0,1.7-0.1L420.2,8.7z
		 M414.7,15.3c0.7-0.5,1.1-1,1.5-1.6c-0.7-1.1-1.2-2.2-1.5-3.7V15.3z M416.4,9.5c0.3,0.9,0.5,1.5,1,2.3c0.3-0.7,0.4-1.2,0.7-2.3
		H416.4z"/>
	<path class="st0" d="M428.2,6.7c-0.4,0-0.8,0-1.2,0.1V4.6c0.4,0.1,0.8,0.1,1.3,0.1h0.6V3.5c0-0.9,0-1.2-0.1-1.7h2.3
		C431,2.2,431,2.6,431,3.5v1.3h0.5c0.4,0,0.7,0,0.9-0.1v2.1c-0.3,0-0.6-0.1-0.9-0.1H431v2.1c0.5-0.2,0.6-0.2,1.3-0.5v2
		c-0.7,0.3-0.9,0.4-1.3,0.5v4.8c0,1.5-0.5,1.9-2.3,1.9c-0.4,0-0.8,0-1.4-0.1c-0.1-0.9-0.2-1.3-0.5-2.1c0.6,0.1,1,0.1,1.3,0.1
		c0.5,0,0.6-0.1,0.6-0.5v-3.3c-0.6,0.2-0.6,0.2-1.1,0.3c-0.2,0.1-0.4,0.1-0.6,0.2l-0.3-2.2c0.5,0,1-0.2,2-0.5V6.7H428.2z
		 M436.2,10.9h-2.3c-0.6,0-0.9,0-1.3,0.1v-2C433,9,433.4,9,434.1,9h6.8c0.7,0,1.1,0,1.6-0.1v2c-0.5-0.1-0.9-0.1-1.6-0.1h-2.6V12h2.1
		c0.7,0,1.1,0,1.5-0.1v1.9c-0.5-0.1-0.8-0.1-1.5-0.1h-2.1v1.4c0.5,0.1,1.1,0.1,1.7,0.1c0.8,0,2-0.1,2.8-0.1
		c-0.3,0.8-0.4,1.3-0.5,2.1c-0.7,0-1.5,0-1.9,0c-3.4,0-4.8-0.4-6.3-1.9c-0.5,1-0.8,1.4-1.5,2.3c-0.6-0.7-0.7-0.8-1.7-1.5
		c0.9-0.9,1.3-1.5,1.8-2.5c0.3-0.8,0.5-1.6,0.6-2.4l2.1,0.4c-0.1,0.1-0.1,0.4-0.3,0.9c-0.1,0.3-0.2,0.6-0.3,0.9
		c0.4,0.5,0.7,0.7,1.2,1.1V10.9z M434.3,8.3c-0.5,0-1.1,0-1.4,0c0-0.3,0-0.3,0-0.6c0-0.1,0-0.2,0-0.4c0-0.3,0-0.6,0-0.7V3.8
		c0-0.7,0-1.2-0.1-1.6c0.5,0.1,1.1,0.1,1.7,0.1h5.3c0.7,0,1.1,0,1.6-0.1c-0.1,0.4-0.1,1-0.1,1.7v2.8c0,0.7,0,0.9,0.1,1.7
		c-0.5,0-1-0.1-1.7-0.1H434.3z M435,4.6h4.3V3.9H435V4.6z M435,6.7h4.3V6H435V6.7z"/>
	<path class="st0" d="M458.1,13.3c-1.2,2-2.1,3-3.8,4.3c-0.6-0.7-1-1.1-1.7-1.7c0,0.3,0.1,1.2,0.1,1.6h-2.4c0.1-0.6,0.1-1.1,0.1-2
		v-4.5c0-1.1,0-1.1,0-1.8c-0.4,0.7-0.7,1-1.2,1.6c-0.3-1.2-0.4-1.6-0.8-2.6c1.6-1.7,2.9-4.4,3.3-6.8l2.3,0.6
		c-0.1,0.2-0.1,0.4-0.3,0.7c-0.4,1.2-0.7,1.9-1.1,2.9v10.1c1-0.6,1.4-1,2-1.7c0.6-0.7,0.9-1.1,1.5-2.1h-1.3c-0.7,0-1.2,0-1.6,0.1V10
		c0.4,0.1,0.9,0.1,1.6,0.1h0.7V6.9h-0.3c-0.7,0-1.1,0-1.6,0.1V4.7c0.5,0.1,1,0.1,1.6,0.1h0.3V3.2c0-0.5,0-0.9-0.1-1.4h2.3
		c-0.1,0.4-0.1,0.8-0.1,1.4v1.6h2.1V3.3c0-0.6,0-1-0.1-1.4h2.3c-0.1,0.5-0.1,0.9-0.1,1.4v1.5h0.6c0.7,0,1.2,0,1.6-0.1v2.2
		c-0.5-0.1-0.9-0.1-1.6-0.1H462v3.2h1.1c0.7,0,1.1,0,1.6-0.1v2.2c-0.5-0.1-0.9-0.1-1.6-0.1h-1.8c0.5,0.8,0.7,1,1.1,1.5
		c0.9,1,1.4,1.4,2.4,2c-0.6,0.7-1.1,1.2-1.5,1.9c-0.9-0.7-1.3-1-2-1.8c-0.8-0.9-1.2-1.4-1.9-2.6l1.7-1.1h-4.8L458.1,13.3z
		 M459.8,10.1V6.9h-2.1v3.2H459.8z"/>
	<path class="st0" d="M480.6,5.5c0-0.3,0-0.5,0-0.7V4.2c0-1,0-1.4-0.1-1.9h2.6C483,3.1,483,3.1,483,4c0,0.3,0,0.3,0,1.5h0.9
		c1.1,0,1.7,0,2.3-0.1v2.5c-0.6-0.1-1.3-0.1-2.3-0.1h-1c0,1.7-0.1,1.9-0.1,2.6c-0.2,1.5-0.5,2.6-1.2,3.6c-0.7,1-1.6,1.9-2.9,2.5
		c-0.5,0.3-0.9,0.4-1.8,0.8c-0.5-0.9-0.7-1.3-1.6-2.2c1.6-0.5,2.5-0.9,3.3-1.5c1.2-1,1.7-2.1,1.8-4c0-0.3,0-0.7,0.1-1.7h-4v1.9
		c0,1.2,0,1.4,0.1,2H474c0.1-0.4,0.1-1,0.1-2V7.8h-0.9c-1.2,0-1.5,0-2.3,0.1V5.4c0.8,0.1,1.1,0.1,2.3,0.1h0.8V4.3
		c0-0.9,0-1.4-0.1-1.9h2.7c-0.1,0.7-0.1,0.8-0.1,1.9v1.3H480.6z"/>
	<path class="st0" d="M505.7,3.7c-0.4,0.3-0.4,0.3-0.6,0.6c-1.3,1.3-2.6,2.5-4,3.5v6.7c0,1.4,0,1.9,0.1,2.5h-2.8
		c0.1-0.6,0.1-1.1,0.1-2.5V9.4c-1.8,1.1-2.7,1.5-5.8,2.6c-0.5-1.1-0.7-1.4-1.4-2.3c3.4-1,6.3-2.3,9-4.4c1.5-1.2,2.6-2.3,3.1-3.1
		L505.7,3.7z"/>
	<path class="st0" d="M513.8,17c0.1-0.6,0.1-1.2,0.1-2.4V4.5c0-1.2,0-1.7-0.1-2.3h2.8c-0.1,0.6-0.1,1-0.1,2.3v2.6
		c2.6,0.9,5,2,7.7,3.6l-1.4,2.4c-1.5-1-3.7-2.2-5.7-3.1c-0.3-0.1-0.4-0.2-0.6-0.3v4.9c0,1.1,0,1.7,0.1,2.4H513.8z"/>
</g>
</svg>
