<svg xmlns="http://www.w3.org/2000/svg" width="68.241" height="59.842" viewBox="0 0 68.241 59.842">
  <g id="cat" transform="translate(-808.069 -530.185)">
    <g id="グループ_199" data-name="グループ 199" transform="translate(816.74 530.185)">
      <path id="パス_235" data-name="パス 235" d="M866.243,568.258c.069-.929.233-1.836.253-2.771a10.1,10.1,0,0,0-.381-2.566,16.66,16.66,0,0,0-.55-2.469c-.385-.958-.617-2-.95-2.986a41.577,41.577,0,0,0-2.262-4.988c-.182-.373-.533-.674-.728-1.058s-.339-.807-.537-1.2c-.344-.675-1.248-1.494-1.282-2.332a.36.36,0,0,1-.15-.36c.023-.17.047-.338.072-.507h0l.006-.018c.032-.214.069-.426.116-.638a.184.184,0,0,0-.054-.031l-.027-.015c.39-1.959.71-3.937.973-5.917.1-.747.314-1.475.385-2.224.069-.708-.016-1.422.062-2.136.119-1.092.554-2.387.019-3.428-.349-.678-1.7.331-1.97.578-.015.014-.03.025-.046.038a3.073,3.073,0,0,0-.973.746,14.316,14.316,0,0,0-2.271,1.7c-1.117,1.143-2.174,2.278-3.187,3.519a21.894,21.894,0,0,1-1.771,2.011,10.953,10.953,0,0,1-1.376,1.32,9.4,9.4,0,0,0-2.224-.586c-.952-.128-1.883-.388-2.848-.517a12.754,12.754,0,0,0-2.591-.114.241.241,0,0,0-.117-.037c-.5-.027-1.015-.054-1.528-.059h-.052a8.716,8.716,0,0,0-2.355.26.447.447,0,0,1-.152-.065l-.046-.031a.193.193,0,0,0-.025.077l-.013.089-.011,0a9.661,9.661,0,0,1-.722-1.11c-.443-.608-.964-1.137-1.459-1.7-.456-.517-.842-1.1-1.246-1.656-.458-.633-1.034-1.153-1.509-1.767-.422-.548-.868-1.077-1.3-1.618a13.4,13.4,0,0,0-1.3-1.789c-.393-.338-.647-1.133-1.093-1.49a.555.555,0,0,0-.81-.107.953.953,0,0,0-.433.5c-.015.013-.029.02-.044.033a.885.885,0,0,0-.178.832c-.042.279-.067.539-.1.721a12.948,12.948,0,0,0-.068,2.948,6.127,6.127,0,0,0-.094,1.82c-.177,1.5-.236,3.014-.3,4.527a10.187,10.187,0,0,0,.029,2.7.789.789,0,0,0-.312.64c-.026.2-.183.364-.21.566a4.951,4.951,0,0,1-.878,2.308c-.574.822-1.257,1.553-1.806,2.393-.379.581-.752,1.162-1.146,1.73a.413.413,0,0,1-.249.365.436.436,0,0,1-.023.057.422.422,0,0,1-.232.273c-.07.093-.138.187-.21.279-.3.377-.575.759-.842,1.144-.022.021-.048.037-.07.06a.485.485,0,0,0-.109.2c-.063.091-.127.181-.188.273a.2.2,0,0,0-.184.284c-.622.973-1.185,1.974-1.766,3.018-.912,1.635-1.051,3.612-1.575,5.384-.077.26-.144.528-.2.8a.256.256,0,0,0-.133.181c-.085.427-.182.862-.275,1.3a36.55,36.55,0,0,1-.278,3.855c0,.047,0,.1,0,.142a21.294,21.294,0,0,0,.336,2.455c.166.784.524,1.533.673,2.309,0,.016.015.023.019.037a3.028,3.028,0,0,0,.246.953,2.687,2.687,0,0,0,.218.753,5.6,5.6,0,0,1,.9,1.733c.224.409.432.829.639,1.251.058.11.111.223.169.334q-.292-.7-.576-1.409c.018.032.043.066.059.1a10.709,10.709,0,0,0,.849,1.559,21.347,21.347,0,0,0,5.094,5.21,12.522,12.522,0,0,0,2.912,1.5c1.262.456,2.432,1.017,3.671,1.525a23.221,23.221,0,0,0,3.242.913,5.008,5.008,0,0,0,1.729.224.217.217,0,0,0,.025,0,9.268,9.268,0,0,1,2.179.433c.481.068.936.173,1.4.264a.234.234,0,0,0,.094.061.485.485,0,0,1,.25-.024l.316.048a.526.526,0,0,1,.276-.036l.724.1a.516.516,0,0,1,.255-.036,21.438,21.438,0,0,0,4.265.034.551.551,0,0,1,.518-.318,16.05,16.05,0,0,0,2.126-.14c.061-.019.122-.046.184-.063l.022-.008h0c.044-.01.084-.027.13-.037a.423.423,0,0,1,.109,0,.459.459,0,0,1,.074-.041c-.2.015-.408.026-.613.043.543-.116,1.083-.25,1.626-.4,2.146-.783,4.078-1.989,6.112-2.956l.195-.16q.617-.388,1.235-.78c.194-.122.381-.249.57-.375.5-.521.972-1.063,1.488-1.591a12.334,12.334,0,0,0,2.365-2.633.314.314,0,0,0-.03-.043c.481-.851.974-1.7,1.431-2.548a8.079,8.079,0,0,0,.8-2.214c.081-.4.115-.817.193-1.222.1-.515.4-1.056.545-1.574.2-.716.366-1.457.6-2.163A10.287,10.287,0,0,0,866.243,568.258Zm-1.149,4.139a21.854,21.854,0,0,0-.726,2.325,10.918,10.918,0,0,1-.905,3.011c-.487.967-1.031,1.909-1.565,2.854-.8.7-1.511,1.608-2.24,2.377a17.619,17.619,0,0,1-2.6,2.1,24.647,24.647,0,0,1-7.179,3.4,6.685,6.685,0,0,1-1.721.514.328.328,0,0,0-.006.085c-.743.106-1.5.125-2.245.231-.868.124-1.819.072-2.7.133-.985.068-1.966-.187-2.94-.081-.606-.086-1.249-.3-1.853-.391-.555-.077-1.082-.359-1.633-.391a.266.266,0,0,0-.177-.011.982.982,0,0,1-.11.019c-.009,0-.018,0-.027,0s-.011.005-.018.006a7.649,7.649,0,0,1-2.364-.4,13.669,13.669,0,0,1-3.132-1.048,39.493,39.493,0,0,1-5.672-2.615,20.793,20.793,0,0,1-4.446-4.329,24.04,24.04,0,0,1-1.558-2.659,9.445,9.445,0,0,1-1.344-2.749,2.5,2.5,0,0,0-.071-.527l-.007-.021a.214.214,0,0,0-.024-.073c-.011-.033-.023-.064-.032-.1a38.737,38.737,0,0,1-.973-4.6,17.71,17.71,0,0,1,.58-5.041.271.271,0,0,0,0-.072c.084-.385.175-.766.281-1.13a29.5,29.5,0,0,1,1.337-4.8,30.319,30.319,0,0,1,1.862-3.3c.142.034.286.079.434.126l.008-.008a2.169,2.169,0,0,0,.645.376c.208.2.427.386.665.595a1.77,1.77,0,0,0,1.116.369,2.157,2.157,0,0,0,1.587.106.78.78,0,0,0,.457-.929.436.436,0,0,0-.16-.486,7.881,7.881,0,0,1-1.306-.9,4.5,4.5,0,0,1-1.007-2.266.265.265,0,0,0-.068-.191c.231-.349.455-.7.68-1.052.545-.849,1.178-1.607,1.789-2.408a4.432,4.432,0,0,0,1.07-2,7.58,7.58,0,0,1,.31-1.425,5.021,5.021,0,0,1,.237-1.294.4.4,0,0,1,.04-.068c0-.206.009-.416,0-.623a23.87,23.87,0,0,1,.073-2.456c.047-.8.092-1.591.154-2.382a3.154,3.154,0,0,0,.4.046c.128,0,.243-.083.366-.081a.207.207,0,0,0,.121-.037,13.679,13.679,0,0,1,.017,2.569,20.915,20.915,0,0,0,.044,2.779c0,.26.4.2.4-.056-.008-1.561-.119-3.149.01-4.713a22.817,22.817,0,0,0-.158-2.278c-.01-.45.026-.9.018-1.35,0-.122-.02-.329-.025-.54a4.1,4.1,0,0,0,.041-.526c.066-.237.224-.306.587.1.581.651,1,1.519,1.538,2.221a9.236,9.236,0,0,1,1.382,2.265,11.331,11.331,0,0,0,2.415,3.766,2.062,2.062,0,0,1-.332.064,5.771,5.771,0,0,0-1.061.074,16.023,16.023,0,0,1-1.487.613.272.272,0,0,0-.286.415l.016.023a.262.262,0,0,0,.243.1,4.756,4.756,0,0,0,1.3-.526,3.739,3.739,0,0,1,1.472-.174,2.51,2.51,0,0,0,.688-.208c.008,0,.011-.007.02-.01l.005,0c.246-.1.125-.458-.12-.481-1.417-1.412-2.1-3.213-3.073-4.918a4.473,4.473,0,0,1,1.212-.377.209.209,0,0,0,.322.083c.144.185.288.37.424.559.719.992,1.547,1.864,2.307,2.819a13.01,13.01,0,0,0,.939,1.409.273.273,0,0,0,.359.246,4.862,4.862,0,0,1,.561-.156c.135.417.493.523.957.635a1.808,1.808,0,0,0,.473-.053,7.815,7.815,0,0,1,1.671-.1c.115.008.228.022.342.032a17.4,17.4,0,0,0-.127,2.118c-.095-.013-.191-.028-.286-.039a6.121,6.121,0,0,0-.989-.005.239.239,0,0,0-.216-.081c-.193.022-.418.048-.643.092-.03,0-.06,0-.091,0a.249.249,0,0,0-.205.075,1.152,1.152,0,0,0-.789.606c-.2.478.416,1,.815,1.071.715.122,1.434.2,2.153.287-.1.669-.2,1.337-.277,2.01q-.3.012-.6.042c-1.21-.044-2.46.068-2.226.812.282.892,1.746.606,2.476.711.077.011.155.027.232.039a17.746,17.746,0,0,0,.014,2.633c-.075.393-.253,1.006-.056,1.338v.116h0v.07a.212.212,0,0,0,.036.118c-.023.211-.046.42-.056.621-.028.517.321,1.955,1.121,1.845.944-.129,1.442-2.228,1.772-2.912a9.981,9.981,0,0,0,.815-3.153c.209.046.423.085.633.133.8.182,2.427.528,3.158-.034.405-.311.025-1.046-.323-1.219a9.606,9.606,0,0,0-3.2-.792c.02-.133.045-.264.063-.4.032-.161.06-.321.1-.483A.224.224,0,0,0,845,547.9c.031-.254.061-.508.092-.762a7.349,7.349,0,0,1,.877.175,4.361,4.361,0,0,0,1.25.149c1.634-.007.851-1.876-.174-2.236a6.315,6.315,0,0,0-1.657-.3c.09-.578.19-1.153.324-1.723.056-.1.108-.19.154-.283.59.1,1.18.2,1.776.26a.745.745,0,0,0,.857-.544,6.187,6.187,0,0,1,1.126.345.182.182,0,0,0,.143.1l.132.018a.2.2,0,0,0,.131-.366,14.045,14.045,0,0,0,2.135-2.194c.707-.806,1.349-1.677,2.051-2.492a.186.186,0,0,0,.034.037c.027.018.053.038.079.057a.877.877,0,0,0,.784.708,20.177,20.177,0,0,0-1.132,1.993,10.411,10.411,0,0,0-1.438,3.225.186.186,0,0,0,.21.218.246.246,0,0,0,.135.068,3.1,3.1,0,0,1,1.407.669,4.936,4.936,0,0,1,.614.583l.121.124.1.08a.2.2,0,0,0,.077.068.291.291,0,0,0,.264.4.386.386,0,0,0,.371-.408c-.042-.308-.476-.578-.677-.775A4.087,4.087,0,0,0,853,543.835a8.561,8.561,0,0,1,1.152-2.479c.478-.818.87-1.644,1.411-2.426.111-.16.229-.318.35-.473.058-.065.114-.133.167-.205.343-.42.711-.822,1.087-1.2s.746-.764,1.133-1.133c.292-.277,1.407-.938,1.321-.078-.138,1.381-.376,2.766-.577,4.147a.205.205,0,0,0-.01.076c-.031.209-.062.418-.091.626l-.373,2.811c-.082.618-.251,1.207-.363,1.814a.2.2,0,0,0-.157.27c.057.142.08.2.222.26a.2.2,0,0,0,.277-.159c.129-.916.377-1.811.5-2.742l.354-2.661.028.005a.466.466,0,0,0,.381.34.651.651,0,0,0,.474.2c-.032.2-.062.393-.089.589-.249,1.878-.581,3.755-.975,5.608,0,.066,0,.132,0,.2s.03.1.046.157c-.007.053-.016.107-.023.161a1.34,1.34,0,0,0,.063.4.912.912,0,0,1,.013.115.18.18,0,0,0,.027.183c.017.021.033.043.049.065a.193.193,0,0,0,.1.067,16.911,16.911,0,0,0,1.359,2.278c.2.4.347.823.548,1.222.192.378.517.637.705,1.02.251.514.531,1.011.8,1.513a.6.6,0,0,1,.141.171,9.171,9.171,0,0,1,.559,1.281.22.22,0,0,0-.207.155c-.49,1.363-2.475,2.411-3.7,2.853-.478.172-1.222.767-.614,1.3a4.348,4.348,0,0,0,3.228.725c.905-.084,1.592-.751,2.454-.8h0a1,1,0,0,0,.108.213.282.282,0,0,0,.294.081c.082.284.157.566.208.843.176.951.387,1.886.594,2.828a10.333,10.333,0,0,1-.051,3.468c-.11.873-.117,1.75-.214,2.625A13.174,13.174,0,0,1,865.094,572.4Z" transform="translate(-816.328 -530.184)" fill="#001d42"/>
      <path id="パス_236" data-name="パス 236" d="M830.653,559.8a5.95,5.95,0,0,1-1.342-.9,11.866,11.866,0,0,0-1.338-.87c-.323-.234-.508-.587-.876-.79a9.952,9.952,0,0,1-1.962-.919c-.2-.172-.446.149-.249.319a3.256,3.256,0,0,0,1.332.665,3.606,3.606,0,0,1,1.505,1.044.6.6,0,0,0,.25.15,3.035,3.035,0,0,1,1.3.919,4.876,4.876,0,0,0,1.219.753C830.733,560.285,830.889,559.912,830.653,559.8Z" transform="translate(-815.981 -528.965)" fill="#001d42"/>
      <path id="パス_237" data-name="パス 237" d="M830.552,561.18c-1.5-.758-3.341-.685-4.945-1.232a11.213,11.213,0,0,1-1.073-.38c-.247-.111-.545-.4-.816-.432a13.8,13.8,0,0,0-2.511-.335.2.2,0,0,0-.4-.054l-.014.1a.2.2,0,0,0,.122.213,10.751,10.751,0,0,0,1.946.37,19.028,19.028,0,0,1,2.588.891,16.157,16.157,0,0,0,2.241.57,8.628,8.628,0,0,1,2.7.661C830.628,561.671,830.785,561.3,830.552,561.18Z" transform="translate(-816.105 -528.856)" fill="#001d42"/>
      <path id="パス_238" data-name="パス 238" d="M829.525,562.147c-.488.053-1.025-.194-1.529-.161a10.26,10.26,0,0,1-2.247-.248c-.668-.1-1.351-.1-2.022-.168-.325-.036-1.14-.306-1.347-.077.175-.2-.146-.442-.319-.249-.675.749,1.7.737,1.922.761,1.035.113,2.051.2,3.082.362.489.076.979,0,1.471.05a4.447,4.447,0,0,0,1.042.13A.2.2,0,0,0,829.525,562.147Z" transform="translate(-816.048 -528.732)" fill="#001d42"/>
      <path id="パス_239" data-name="パス 239" d="M829.436,563.085a16.852,16.852,0,0,1-3.974,1.033,7.742,7.742,0,0,0-1.49.078,9.968,9.968,0,0,1-1.745.47.2.2,0,0,0-.156-.01l-.021.007c.023.145.04.287.057.43a9.238,9.238,0,0,0,1.43-.311,11.186,11.186,0,0,1,1.98-.265,17.208,17.208,0,0,0,4.074-1.06C829.837,563.368,829.679,562.994,829.436,563.085Z" transform="translate(-816.043 -528.644)" fill="#001d42"/>
      <path id="パス_240" data-name="パス 240" d="M856.9,561.249a11.573,11.573,0,0,1-2.306,1.038,7.386,7.386,0,0,0-2.058,1.209c-.022.006-.044.009-.066.018a.258.258,0,0,0-.065-.025.379.379,0,0,1-.082.088,1.192,1.192,0,0,1-.207.051.405.405,0,0,0-.359.469.194.194,0,0,0,.175.164c-.015.025-.025.051-.04.077a.16.16,0,0,0,.1-.019c.039-.02.076-.046.113-.068a.2.2,0,0,0,.208-.126c.136-.083.269-.172.4-.26a.185.185,0,0,0,.043-.027,14.778,14.778,0,0,1,1.732-1.083,9.592,9.592,0,0,0,1.069-.34,12.913,12.913,0,0,1,1.178-.628.161.161,0,0,0,.235,0,.859.859,0,0,0,.19-.269A.2.2,0,0,0,856.9,561.249Z" transform="translate(-814.874 -528.732)" fill="#001d42"/>
      <path id="パス_241" data-name="パス 241" d="M859.8,562.671a4.123,4.123,0,0,0-1.136.482,12.943,12.943,0,0,1-2.225.587c-1.4.417-2.783,1.006-4.212,1.292-.255.051-.2.454.055.4,1.155-.232,2.238-.683,3.366-1.015a21.1,21.1,0,0,1,2.466-.557c.613-.1,1.115-.694,1.741-.789A.2.2,0,0,0,859.8,562.671Z" transform="translate(-814.926 -528.664)" fill="#001d42"/>
      <path id="パス_242" data-name="パス 242" d="M861.23,566.388a5.13,5.13,0,0,0-1.114.079,19.087,19.087,0,0,1-2.424-.145c-1.494-.175-2.962-.39-4.449-.592a.2.2,0,0,0-.054.4c.69.093,1.357.291,2.046.367s1.365.088,2.045.178a18.859,18.859,0,0,0,2.048.171c.217.005.383.022.6.022.012,0,.572-.014.946-.035a.17.17,0,0,0,.142.026.838.838,0,0,0,.31-.113C861.489,566.652,861.385,566.418,861.23,566.388Z" transform="translate(-814.878 -528.518)" fill="#001d42"/>
      <path id="パス_243" data-name="パス 243" d="M858.481,569.8c-.2-.223-.491-.228-.758-.357-.663-.324-1.272-.731-1.952-1.019a4.824,4.824,0,0,1-1.929-1.055,1.721,1.721,0,0,0-1.053-.433.2.2,0,0,0-.054.4,2.792,2.792,0,0,1,1.34.8,4.063,4.063,0,0,0,1.286.566,7.182,7.182,0,0,1,1.581.8c.284.185,1.006.3,1.216.54C858.331,570.24,858.654,570,858.481,569.8Z" transform="translate(-814.9 -528.465)" fill="#001d42"/>
      <path id="パス_244" data-name="パス 244" d="M851.322,563.415c-.123-.316-.609-.113-.486.2a1.487,1.487,0,0,1-.127,1.415c-.065.1-.115.2-.167.3a.253.253,0,0,0-.162.247.82.82,0,0,1-.273.231.257.257,0,0,0-.141.2,6.973,6.973,0,0,1-4.044.9c-.849-.04-5.281-.988-4.251-2.459a.22.22,0,0,0,.091-.048.845.845,0,0,0,.254-.319h0a2.369,2.369,0,0,0,1.207-.7.267.267,0,0,0,.081-.221.94.94,0,0,0,.28-1.247c0-.009-.005-.018-.01-.027a.466.466,0,0,0-.038-.049c-.012-.019-.019-.036-.033-.055a.248.248,0,0,0-.113-.081.789.789,0,0,0-.7.139c-.2.118-.423.16-.626.269-.016.008-.034.021-.05.031a2.764,2.764,0,0,1-2.061-.6.555.555,0,0,1-.2-.02,1.814,1.814,0,0,1-.346-.11.5.5,0,0,0-.084-.037c-.018-.007-.037-.014-.055-.023h0a.434.434,0,0,0-.269.031.262.262,0,0,0-.217.155.211.211,0,0,0-.087.121c-.007.023-.01.046-.017.069h0v.012a.927.927,0,0,0,.357,1.091c.067.095.137.188.2.289a4.242,4.242,0,0,0,.791.7,1.118,1.118,0,0,0,.142.11c.071.164.139.329.215.489a.561.561,0,0,0,.022.27c.013.044.022.084.03.124.046.074.1.144.141.218-.1.065-.2.134-.3.2l-.044.009c-.031,0-.061,0-.093,0-.015,0-.025.005-.04.005a.533.533,0,0,1-.238.228.306.306,0,0,0-.008.052,4.019,4.019,0,0,1-.657.376,11.466,11.466,0,0,1-1.214.211,2.26,2.26,0,0,1-.422.065,8.23,8.23,0,0,1-1.037-.21,3.834,3.834,0,0,1-2.776-1.076.5.5,0,0,1-.28-.083,2.075,2.075,0,0,1-.447-.427c-.324-.212-.646-.434-.968-.664-.059-.17-.117-.341-.175-.511a.216.216,0,0,0-.1-.117,1.734,1.734,0,0,1,.16-1.024l0-.009a.255.255,0,0,0,.094-.066.751.751,0,0,0,.179-.416c.022-.027.045-.055.065-.083.2-.274-.215-.6-.415-.322-.1.137-.218.261-.319.4a.245.245,0,0,0-.039.206,2.408,2.408,0,0,0-.276,1.374,2.2,2.2,0,0,0,.054.359.236.236,0,0,0,.051.344l.055.04a15.408,15.408,0,0,1,.31,2.878,18.563,18.563,0,0,0,.043,3.131c.092.867-.027,1.8-.007,2.674.024,1.083.269,2.169.2,3.253a2.748,2.748,0,0,0,1.561,2.858c.177.081.357.156.536.233a.238.238,0,0,0,.192.14l.087.012a.225.225,0,0,0,.062-.01,18.209,18.209,0,0,0,5.4,1.336c.89.068,1.755.071,2.647.087a12.259,12.259,0,0,0,2.54-.5c.1-.02.188-.048.281-.072a.281.281,0,0,0,.2-.053,3.181,3.181,0,0,0,2.39-2.611c.145-.847.493-1.629.59-2.509a15.706,15.706,0,0,1,1.133-3.83,11.546,11.546,0,0,0,.807-2.663,8.864,8.864,0,0,1,.571-1.994.35.35,0,0,1-.014-.189c.005-.024.013-.049.019-.075a.527.527,0,0,1,.11-.354l.029-.037a1.526,1.526,0,0,1,.079-.141.249.249,0,0,0-.05-.044c.045-.085.092-.171.145-.263A1.952,1.952,0,0,0,851.322,563.415Zm-3.229,3.842a6.812,6.812,0,0,1-.561,1.112c-.172.218-.377.407-.549.627-.062.08-.255.176-.232.3a.831.831,0,0,1,.028-.278c.066-.4.384-1.195.138-1.61A10.737,10.737,0,0,0,848.093,567.258Zm-12.956-.884a10.675,10.675,0,0,1-.436,1.64,2.794,2.794,0,0,1-.187-1.027c-.032-.335-.123-.639-.183-.953A7.535,7.535,0,0,0,835.137,566.374Zm-1.57,11.716a4.253,4.253,0,0,1,.335-1.078c.042-.075.08-.15.114-.228a.11.11,0,0,0,.01.181.663.663,0,0,1,0,.455,3.343,3.343,0,0,0-.082.887A4.078,4.078,0,0,1,833.567,578.09Zm7,1.819a27.384,27.384,0,0,1-4.611-.8,2.646,2.646,0,0,0,.412-.512c.226-.341.37-.744.576-1.1.482-.819,1.962-.643,2.1.114a2.379,2.379,0,0,0-.1.572.264.264,0,0,0,.5.138,1.524,1.524,0,0,0,.177-.677,1.26,1.26,0,0,1,.552-.4c.954-.221,1.223.9,1.272,1.477a2.828,2.828,0,0,0,.413,1.253A9.756,9.756,0,0,1,840.57,579.91Zm4.4-.395c-.218.068-.446.129-.679.182a4.384,4.384,0,0,1,.2-.46,1.629,1.629,0,0,0,.172-.646.782.782,0,0,1,.209-.411,2.044,2.044,0,0,1,.2,1.174A.29.29,0,0,0,844.971,579.515Zm4.727-10.631c-.454,1.634-1.362,3.239-1.671,4.909s-.385,4.489-2.147,5.366c-.087.043-.181.083-.273.123a2.573,2.573,0,0,0-.466-1.7.264.264,0,0,0-.37-.048,1.783,1.783,0,0,0-.609.844,3.032,3.032,0,0,1-.225.777c-.071.131-.144.26-.212.393-.05.1-.016.171-.094.271a12.378,12.378,0,0,1-1.313.136.225.225,0,0,0,.027-.149c-.018-.091-.036-.182-.052-.273a.248.248,0,0,0-.142-.185c-.292-.911-.21-2.393-1.356-2.586a1.6,1.6,0,0,0-1.4.259,2.127,2.127,0,0,0-1.2-.609,1.633,1.633,0,0,0-1.48.516c-.391.5-.711,1.8-1.4,1.933a.238.238,0,0,0-.038.015c-.1-.038-.2-.071-.3-.112l-.473-.2a2.241,2.241,0,0,1,.06-1.208,1.081,1.081,0,0,0-.392-1.067c-.552-.413-.916.713-1.079,1.424a3.055,3.055,0,0,1-.539-.715c-.329-.6-.132-2.175-.175-2.859-.1-1.554,0-3.16-.168-4.715-.109-1.029.071-2.031.024-3.049a19.684,19.684,0,0,0-.262-2.048c.2.144.387.281.583.416a4.622,4.622,0,0,0,1.209,1c.037.557.189,1.094.255,1.657a1.491,1.491,0,0,0,.623,1.264.263.263,0,0,0,.311-.08,6.52,6.52,0,0,0,.671-2.064c.345.071.706.1,1.049.2a.267.267,0,0,0,.267-.064c.094.016.184.037.288.045.51.043.986-.2,1.487-.153A1.881,1.881,0,0,0,840,566.1H840c.327-.012.656-.056.981-.1h.035a1.54,1.54,0,0,1,.174.08.219.219,0,0,0,.258-.035c.046.013.082.019.082,0a.281.281,0,0,0,.471.209,8.1,8.1,0,0,0,2.147.9,8.773,8.773,0,0,0,2.178.271.279.279,0,0,0,.208.264c-.109-.028-.054-.057-.056.07a2.082,2.082,0,0,1-.044.342c-.044.254-.111.5-.165.756-.06.29-.133.781.258.867.578.129.875-.472,1.214-.819a3.642,3.642,0,0,0,.61-.881,4.1,4.1,0,0,1,.321-.713.238.238,0,0,0,.057-.2,5.686,5.686,0,0,0,1.57-.73C850.016,567.193,849.91,568.118,849.7,568.884Z" transform="translate(-815.781 -528.811)" fill="#001d42"/>
      <path id="パス_245" data-name="パス 245" d="M856.043,557.232a.446.446,0,0,0-.28-.1l-.009-.014-.055-.057a.794.794,0,0,1-.036.085,3.533,3.533,0,0,1-.537-.183c-.1-.055-.168-.183-.28-.207a.166.166,0,0,0-.14.038,5.871,5.871,0,0,0-.952-.225,8.464,8.464,0,0,0-1.194-.161.923.923,0,0,0-.886-.013l-.023,0a.249.249,0,0,1-.124.042,3.18,3.18,0,0,1-.7-.057.38.38,0,0,0-.027.066,2.866,2.866,0,0,0-.617-.1,1.939,1.939,0,0,0-.314.023c-.063.013-.127.025-.191.036-.316.063-.648.165-.927.234a4.284,4.284,0,0,0-1.074.347.536.536,0,0,0-.137.05,1.956,1.956,0,0,1-.254.135l-.113.017a.142.142,0,0,1-.022,0c-.008,0-.014.005-.022.005l-.052.008c-.009,0-.014.009-.022.012a.161.161,0,0,0-.023.014.2.2,0,0,0-.082.1q-.628.2-1.255.418a4.008,4.008,0,0,1-.715.405,5.929,5.929,0,0,0-.673.315c-.186.248-.394.458-.582.7-.006.007-.014.009-.021.018a.564.564,0,0,0-.008.148.511.511,0,0,0,.015.071.3.3,0,0,0,.052.14c.025.121.091.221.193.213.136-.01.268-.062.4-.073l.007,0a.134.134,0,0,0,.121.021,10.427,10.427,0,0,0,.835.882q.537.343,1.092.653a10.4,10.4,0,0,0,4.562.077,8.25,8.25,0,0,0,1.5-.345l.024-.015a.185.185,0,0,0,.107,0c.064-.017.134-.048.2-.071.692-.436,1.34-.963,2.021-1.439l.012-.005a5.893,5.893,0,0,0,.717-1.093c.025-.027.048-.056.073-.083a.19.19,0,0,0,.156-.1l.041-.064a.279.279,0,0,0,.046-.124c.059-.07.12-.137.177-.209l0-.027a.63.63,0,0,0,.073-.115A.36.36,0,0,0,856.043,557.232Zm-6.986,3.5h-.043c-.079.014-.156.028-.233.045-.1.021-.2.036-.3.047a4.719,4.719,0,0,1-.7.091.157.157,0,0,1,0,.022,3.408,3.408,0,0,1-.36-.017.211.211,0,0,0-.108-.085,3.074,3.074,0,0,1-.408-.155c-.155-.076-.3-.156-.456-.239a1.124,1.124,0,0,0-.509-.229,2.72,2.72,0,0,1-1.18-.937.283.283,0,0,0-.063-.071,1.364,1.364,0,0,1,.484-.663.848.848,0,0,1,.284-.085,7.908,7.908,0,0,0,1.415-.477c.01,0,.015.006.024.006a1.146,1.146,0,0,0,.338-.058c.009-.015.019-.027.028-.041.055-.009.108-.017.162-.024l.01,0c.174-.026.349-.052.524-.075.037.1.1.168.185.155.228-.03.464-.05.7-.069a4.612,4.612,0,0,0,.169,1.137l0,.029a5.054,5.054,0,0,0,.169.82,2.8,2.8,0,0,0,.132.842c.01.023.02.042.029.062a2.594,2.594,0,0,1-.3-.03Zm5.951-2.429a.461.461,0,0,1-.122.238l-.006.012a14.609,14.609,0,0,1-1.56,1.392c-.015.008-.029.015-.045.022a2.352,2.352,0,0,1-.744.374v-.018a.271.271,0,0,1-.068.02h-.05a.264.264,0,0,1-.147-.048.373.373,0,0,1-.049,0,.4.4,0,0,1-.106-.039.336.336,0,0,1-.184.123c-.087.021-.184.047-.277.071a.234.234,0,0,0,.05-.088c.006-.023.009-.047.015-.069h0c.119-.517.277-1.024.383-1.542a6.873,6.873,0,0,0,.029-.882,3.508,3.508,0,0,0,.081-.679.229.229,0,0,0-.037-.081.291.291,0,0,1,.124-.037,1.8,1.8,0,0,1,.185.007.114.114,0,0,0,.1,0,2.667,2.667,0,0,1,.349.062.2.2,0,0,1,.024-.006,4.052,4.052,0,0,1,1.636.307.281.281,0,0,0,.187.2c.087.019.176.184.281.207a1.821,1.821,0,0,1,.2.06A2.543,2.543,0,0,0,855.008,558.3Z" transform="translate(-815.25 -528.966)" fill="#001d42"/>
      <path id="パス_246" data-name="パス 246" d="M838.978,558.221c-.123-.292-.272-.553-.393-.847a5.448,5.448,0,0,0-.574-.476,3.864,3.864,0,0,1-.6-.577q-.556-.365-1.118-.714a.209.209,0,0,0-.055-.115.1.1,0,0,0-.02-.018c-.006-.005-.011-.015-.018-.018s-.034-.014-.05-.021-.01-.009-.02-.011-.015-.005-.021-.006l-.106-.043a1.9,1.9,0,0,1-.213-.2.547.547,0,0,0-.121-.084,4.11,4.11,0,0,0-.958-.6c-.255-.135-.552-.315-.844-.452-.06-.025-.119-.052-.177-.08a1.86,1.86,0,0,0-.3-.1,2.792,2.792,0,0,0-.628-.036.346.346,0,0,0-.01-.075,3.035,3.035,0,0,1-.694-.1.265.265,0,0,1-.111-.071l-.021-.008a.892.892,0,0,0-.866-.192,8.228,8.228,0,0,0-1.2-.112,5.344,5.344,0,0,0-1.218.035c-.1-.007-.2-.015-.3-.013v-.005l-.063,0a.236.236,0,0,1-.061.016c-.115,0-.236.018-.353.016-.006,0-.009,0-.017-.005l-.07.047a.148.148,0,0,0-.014.012.432.432,0,0,0-.3.04.389.389,0,0,0-.174.375.69.69,0,0,0,.043.135l-.005.028c.039.086.082.168.121.252a.327.327,0,0,0,.014.138l.024.073a.189.189,0,0,0,.129.134c.018.034.033.068.05.1a6.136,6.136,0,0,0,.426,1.275l.009.007c.545.643,1.045,1.326,1.608,1.929.059.039.121.087.177.12a.2.2,0,0,0,.105.025l.02.021a7.945,7.945,0,0,0,1.37.7,9.964,9.964,0,0,0,4.458.976q.617-.186,1.226-.411a10.45,10.45,0,0,0,1.031-.7.135.135,0,0,0,.124.007l.005,0c.129.042.245.125.374.167.1.033.187-.056.241-.171a.325.325,0,0,0,.086-.129.708.708,0,0,0,.033-.069.662.662,0,0,0,.028-.152C838.99,558.235,838.982,558.23,838.978,558.221Zm-8.432-.827a.337.337,0,0,1-.112.016c-.017,0-.031-.009-.048-.013a.26.26,0,0,1-.154.014l-.049-.012c-.024-.005-.04-.024-.062-.035l0,.017a2.272,2.272,0,0,1-.632-.55c-.014-.012-.026-.021-.039-.034a14.859,14.859,0,0,1-1.173-1.773l0-.014a.488.488,0,0,1-.06-.27,2.488,2.488,0,0,0-.172-.518l.008-.02.019-.072a.387.387,0,0,0,.013-.1.991.991,0,0,1,.119-.052,4.761,4.761,0,0,0,.491.014,3.808,3.808,0,0,1,1.809.044c.008,0,.014.008.022.012a2.66,2.66,0,0,1,.355.018.1.1,0,0,0,.1.019,1.608,1.608,0,0,1,.183.036.311.311,0,0,1,.182.16c.069.005.138.007.207.012a.739.739,0,0,0-.033.119.233.233,0,0,0-.153.2c-.1.737-.237,1.452-.389,2.168-.075.281-.134.562-.184.835-.029-.016-.062-.035-.091-.049A.335.335,0,0,1,830.546,557.394Zm7.4.7a2.774,2.774,0,0,1-1.382.679,1.1,1.1,0,0,0-.553.115c-.168.048-.333.1-.5.136a3.066,3.066,0,0,1-.437.064.214.214,0,0,0-.127.061,2.988,2.988,0,0,1-.354-.066c0-.006,0-.015.006-.022a4.415,4.415,0,0,1-.657-.254c-.092-.034-.186-.072-.281-.118-.071-.036-.144-.067-.216-.1l-.042-.008,0,0a2.674,2.674,0,0,1-.3-.039c.014-.019.028-.035.044-.056a3.081,3.081,0,0,0,.338-.825,5.6,5.6,0,0,0,.369-.793l.012-.029a4.963,4.963,0,0,0,.447-1.115c.227.075.451.149.665.233.083.033.16-.025.219-.115.165.062.329.13.491.2l.009,0c.05.02.1.039.151.062a.433.433,0,0,1,.018.048,1.149,1.149,0,0,0,.314.136c.009,0,.017,0,.025,0a7.61,7.61,0,0,0,1.26.81.823.823,0,0,1,.255.152,1.418,1.418,0,0,1,.307.785A.29.29,0,0,0,837.943,558.094Z" transform="translate(-815.894 -529.11)" fill="#001d42"/>
      <path id="パス_247" data-name="パス 247" d="M840.677,557.124c-.12-.317-.606-.114-.486.2a.772.772,0,0,1,.085.414l-.045.343a.263.263,0,0,0,.522.069l.058-.435A1.23,1.23,0,0,0,840.677,557.124Z" transform="translate(-815.329 -528.929)" fill="#001d42"/>
      <path id="パス_248" data-name="パス 248" d="M842.033,556.965c-.1.134-.284.261-.341.424a2.438,2.438,0,0,0-.176.526.263.263,0,0,0,.522.069c.043-.313.231-.456.41-.7C842.651,557.016,842.235,556.693,842.033,556.965Z" transform="translate(-815.275 -528.934)" fill="#001d42"/>
    </g>
    <path id="パス_249" data-name="パス 249" d="M815.043,546.937a.239.239,0,0,0-.183-.115l-.152-.021-.009-.012a.245.245,0,0,0-.365-.038l-.865-.115a.235.235,0,0,0-.067,0,.652.652,0,0,1-.229-.1.239.239,0,0,0-.167-.046,1.549,1.549,0,0,1-.659-.688,6.483,6.483,0,0,1-.333-2.273c-.014-.246-.33-.281-.468-.126-.833.932-.6,3.08-2.395,2.91-.351-.277-.584-.147-.979.127a.266.266,0,0,0,0,.417c1,.754,2.277.671,2.466,2.227a4.5,4.5,0,0,0,.278,1.28.2.2,0,0,0-.089.16.971.971,0,0,0,.2.633.262.262,0,0,0,.5.055.531.531,0,0,0,.118-.148.537.537,0,0,1-.012-.212,1.107,1.107,0,0,1,.358-.7,3.8,3.8,0,0,1,.925-1.69,8.819,8.819,0,0,1,1.595-.91.972.972,0,0,0,.649-.163A.263.263,0,0,0,815.043,546.937Zm-2.7,1.352a4.224,4.224,0,0,0-.921,1.895c-.343-.747-.206-1.658-.629-2.41a2.384,2.384,0,0,0-1.469-.925,2.247,2.247,0,0,0,1.494-.72,3.441,3.441,0,0,0,.579-.953,3.2,3.2,0,0,0,.167-.447,3.642,3.642,0,0,0,.476,1.649,2.594,2.594,0,0,0,1.754,1A6.306,6.306,0,0,0,812.339,548.289Z" transform="translate(0 0.611)" fill="#001d42"/>
    <path id="パス_250" data-name="パス 250" d="M873.571,568.474c-.647-.159-1.315-.094-1.959-.277-.586-.165-.578-1.082-.661-1.541a4.507,4.507,0,0,0-.117-.485.2.2,0,0,0,.079-.064c-.009-.038-.019-.075-.029-.111a1.418,1.418,0,0,1-.088-.241.327.327,0,0,1-.017-.082l-.019-.008c-.142-.029-.233-.337-.274-.448a1.565,1.565,0,0,1-.109-.665.263.263,0,0,0-.522-.07l-.024.18a.252.252,0,0,0-.159.2l-.035.26a.248.248,0,0,0,.042.18.166.166,0,0,0-.015.02c-.447,1.06-.146,2.615-1.542,2.858a.739.739,0,0,0-.391-.079l-.008-.005a1.033,1.033,0,0,1-.114,0c-.026.012-.053.022-.08.035s-.037.005-.056.01c-.207.06-.4.133-.6.187-.138-.023-.272-.065-.355-.081a.222.222,0,0,0-.166.033.252.252,0,0,0-.122.05l-.148.112a.265.265,0,0,0,.125.47,2.236,2.236,0,0,0,.46,0,1.483,1.483,0,0,0,.376.231,6.182,6.182,0,0,1,1.533.519c.328.216.648,1.333.836,1.722a12.127,12.127,0,0,1,.47,1.788.265.265,0,0,0,.45.06c.45-.562.383-1.265.659-1.922.47-1.122,1.775-1.686,2.7-2.356A.266.266,0,0,0,873.571,568.474Zm-2.356,1.626a4.745,4.745,0,0,0-.706.993,6.02,6.02,0,0,0-.332,1.181,9.007,9.007,0,0,0-1.009-2.777,2.091,2.091,0,0,0-1.138-.676c-.088-.027-.173-.06-.259-.092.066,0,.127-.015.191-.021a.217.217,0,0,0,.357-.062,1.969,1.969,0,0,0,1.023-.633c.675-.781.465-1.4.714-2.221.638.488.258,1.818.709,2.407.487.638,1.3.639,2.051.7A7.285,7.285,0,0,0,871.215,570.1Z" transform="translate(2.509 1.582)" fill="#001d42"/>
  </g>
</svg>
