<svg xmlns="http://www.w3.org/2000/svg" width="35.715" height="20" viewBox="0 0 35.715 20">
  <g id="ci_logo" transform="translate(-488 -123)">
    <g id="グループ_210" data-name="グループ 210" transform="translate(488 123)">
      <g id="グループ_207" data-name="グループ 207" transform="translate(0 14.271)">
        <g id="グループ_203" data-name="グループ 203">
          <path id="パス_251" data-name="パス 251" d="M331.74,712.077h-3.088v-.868H327.9v.868h-3.089v3.429H327.9v1.432h.752v-1.432h3.088v-3.429Zm-6.249,2.865v-2.3H327.9v2.3Zm3.16,0v-2.3h2.408v2.3Z" transform="translate(-324.811 -711.209)" fill="#1a1311"/>
          <g id="グループ_202" data-name="グループ 202" transform="translate(8.776 0)">
            <path id="パス_252" data-name="パス 252" d="M339.441,716.365h-.209l.209.573h.752v-5.729h-.752Z" transform="translate(-335.864 -711.209)" fill="#1a1311"/>
            <path id="パス_253" data-name="パス 253" d="M335.232,715.775h.743l1.043-2.865h-.743Z" transform="translate(-335.232 -711.478)" fill="#1a1311"/>
            <path id="パス_254" data-name="パス 254" d="M343.2,712.91h-.743l1.043,2.865h.743Z" transform="translate(-336.373 -711.478)" fill="#1a1311"/>
          </g>
        </g>
        <g id="グループ_206" data-name="グループ 206" transform="translate(18.162)">
          <g id="グループ_204" data-name="グループ 204" transform="translate(9.417)">
            <path id="パス_255" data-name="パス 255" d="M365.541,713.7v-.5h-1.146v-.3h.627v-.5h-.627v-.3h.886v-.5h-.886v-.376h-.627v.376H362.3v-.376h-.627v.376h-.886v.5h.886v.3h-.627v.5h.627v.3h-1.145v.5h2.193v.3h-1.674v1.611h-.519v.5h.519v.824h.627v-.824h2.722v.323h-.183l.183.5h.627v-.824h.52v-.5h-.52V714h-1.674v-.3Zm-2.82.806v.3h-1.048v-.3Zm-1.048.806h1.048v.3h-1.048Zm1.674.3v-.3h1.048v.3Zm1.048-1.11v.3h-1.048v-.3Zm-2.1-2.417h1.469v.3H362.3Zm0,1.11v-.3h1.469v.3Z" transform="translate(-358.122 -711.209)" fill="#1a1311"/>
            <path id="パス_256" data-name="パス 256" d="M359.96,712.821v-.537h-.721v-1.074h-.591v1.074h-.721v.537h.72l-.977,2.685h.61l.369-1.013v2.445h.591V714.2h.735l-.732-1.376Z" transform="translate(-357.67 -711.209)" fill="#1a1311"/>
          </g>
          <g id="グループ_205" data-name="グループ 205" transform="translate(0 0)">
            <path id="パス_257" data-name="パス 257" d="M349.428,712.258l.633.633-.6.595v.537h1.9v-.859h-.537v.322h-.576l1.089-1.089-.392-.392-.494.494-.242-.242.634-.634-.392-.392-1.025,1.025h0Z" transform="translate(-346.952 -711.213)" fill="#1a1311"/>
            <path id="パス_258" data-name="パス 258" d="M353.93,713.161v.322h-.576l1.089-1.089L354.05,712l-.494.494-.24-.241.632-.633-.392-.392-.632.633-.392.392.632.633-.595.595v.537h.663v.376h-.958v-3.185h-.627V714.4h-2.193v.556h.623l-.723,1.987h.628l.28-.77h1.089v-.555h-.887l.241-.662h1.008a2.247,2.247,0,0,0,.154.43,2.482,2.482,0,0,0,.5.7l-.455.455.405.405.5-.5a3.162,3.162,0,0,0,.7.339,3.127,3.127,0,0,0,.944.162v-.627a2.516,2.516,0,0,1-1.192-.329l.708-.709h-.81l-.361.362a1.859,1.859,0,0,1-.379-.523c-.024-.053-.047-.107-.067-.161h2.1V714.4H353.8v-.376h.662v-.859Z" transform="translate(-346.94 -711.21)" fill="#1a1311"/>
            <path id="パス_259" data-name="パス 259" d="M348.061,712.821h.717v-.537h-.721v-1.074h-.591v1.074h-.721v.537h.72l-.977,2.685h.61l.369-1.013v2.445h.591V714.2h.735Z" transform="translate(-346.488 -711.209)" fill="#1a1311"/>
          </g>
        </g>
      </g>
      <path id="パス_260" data-name="パス 260" d="M356.954,697.782H324.811V694.2h35.714Z" transform="translate(-324.811 -694.201)" fill="#e12f15"/>
      <path id="パス_261" data-name="パス 261" d="M356.954,702.884H324.811V699.3h35.714Z" transform="translate(-324.811 -695.02)" fill="#1a1311"/>
      <rect id="長方形_205" data-name="長方形 205" width="0.358" height="0.358" transform="translate(34.999 12.142)" fill="#1a1311"/>
      <path id="パス_262" data-name="パス 262" d="M333.587,706.808a1.211,1.211,0,0,0-.6.141v.324a.908.908,0,0,1,.529-.152.485.485,0,0,1,.33.106.38.38,0,0,1,.109.28v.1h-.36c-.755,0-.876.381-.876.589a.484.484,0,0,0,.182.388.73.73,0,0,0,.484.152c.022,0,.044,0,.064,0a.785.785,0,0,0,.506-.2v.19h.378v-1.2A.7.7,0,0,0,333.587,706.808Zm-.141,1.632a.457.457,0,0,1-.28-.073.244.244,0,0,1,.029-.408.685.685,0,0,1,.371-.081h.387v.253A.562.562,0,0,1,333.445,708.44Z" transform="translate(-326.077 -696.222)" fill="#1a1311"/>
      <path id="パス_263" data-name="パス 263" d="M329.746,708.214a1.081,1.081,0,0,1-.493.21.9.9,0,0,1-.372-.024.677.677,0,0,1-.22-.125.586.586,0,0,1-.134-.176.557.557,0,0,1-.055-.221h1.514a.345.345,0,0,0,0-.06v-.062a1.131,1.131,0,0,0-.064-.394.858.858,0,0,0-.183-.3.791.791,0,0,0-.291-.19,1.051,1.051,0,0,0-.38-.066,1.037,1.037,0,0,0-.39.072.956.956,0,0,0-.315.2.886.886,0,0,0-.206.307,1.059,1.059,0,0,0,0,.785.892.892,0,0,0,.21.3.918.918,0,0,0,.317.2,1.138,1.138,0,0,0,.4.069,1.074,1.074,0,0,0,.654-.181Zm-1.214-.805a.573.573,0,0,1,.313-.275.651.651,0,0,1,.227-.04.628.628,0,0,1,.232.04.475.475,0,0,1,.164.11.468.468,0,0,1,.1.164.677.677,0,0,1,.037.2h-1.133A.506.506,0,0,1,328.532,707.408Z" transform="translate(-325.328 -696.222)" fill="#1a1311"/>
      <path id="パス_264" data-name="パス 264" d="M326.647,707.407a.847.847,0,0,0-.245-.152.558.558,0,0,0,.3-.514.564.564,0,0,0-.216-.461.911.911,0,0,0-.589-.174h-1.075v2.506h1.112a.874.874,0,0,0,.732-.3.714.714,0,0,0,.155-.446A.617.617,0,0,0,326.647,707.407Zm-1.449-.968h.671a.516.516,0,0,1,.334.092.3.3,0,0,1,.11.237.334.334,0,0,1-.124.27.581.581,0,0,1-.378.1H325.2Zm1.158,1.677a.489.489,0,0,1-.417.165H325.2v-.806h.684a.9.9,0,0,1,.328.05.332.332,0,0,1,.223.338A.416.416,0,0,1,326.355,708.116Z" transform="translate(-324.813 -696.111)" fill="#1a1311"/>
      <g id="グループ_208" data-name="グループ 208" transform="translate(10.555 9.96)">
        <path id="パス_265" data-name="パス 265" d="M344.846,708.219a1.068,1.068,0,0,1-.493.209.911.911,0,0,1-.372-.023.694.694,0,0,1-.22-.125.571.571,0,0,1-.134-.176.543.543,0,0,1-.055-.221h1.514a.355.355,0,0,0,0-.061v-.062a1.15,1.15,0,0,0-.064-.393.843.843,0,0,0-.183-.3.781.781,0,0,0-.291-.19,1.123,1.123,0,0,0-.771.005.974.974,0,0,0-.314.2.886.886,0,0,0-.206.307,1.061,1.061,0,0,0,0,.786.9.9,0,0,0,.209.3.941.941,0,0,0,.318.2,1.135,1.135,0,0,0,.4.069,1.079,1.079,0,0,0,.654-.181Zm-1.214-.805a.6.6,0,0,1,.128-.164.581.581,0,0,1,.185-.11.631.631,0,0,1,.227-.04.611.611,0,0,1,.232.04.462.462,0,0,1,.164.11.48.48,0,0,1,.1.164.666.666,0,0,1,.037.2h-1.133A.5.5,0,0,1,343.632,707.413Z" transform="translate(-338.307 -706.182)" fill="#1a1311"/>
        <path id="パス_266" data-name="パス 266" d="M347.1,706.808a1.209,1.209,0,0,0-.6.141v.324a.9.9,0,0,1,.529-.152.486.486,0,0,1,.33.106.383.383,0,0,1,.109.28v.1h-.36c-.755,0-.877.381-.877.589a.483.483,0,0,0,.183.388.728.728,0,0,0,.484.152c.022,0,.043,0,.064,0a.781.781,0,0,0,.505-.2v.19h.379v-1.2A.7.7,0,0,0,347.1,706.808Zm-.141,1.632a.461.461,0,0,1-.281-.073.245.245,0,0,1,.029-.408.689.689,0,0,1,.371-.081h.387v.254A.562.562,0,0,1,346.96,708.44Z" transform="translate(-338.787 -706.181)" fill="#1a1311"/>
        <path id="パス_267" data-name="パス 267" d="M341.571,707.13v-.312h-.38v1.9h.38V707.7c0-.427.433-.573.743-.573v-.345A.891.891,0,0,0,341.571,707.13Z" transform="translate(-337.992 -706.178)" fill="#1a1311"/>
        <path id="パス_268" data-name="パス 268" d="M350.413,707.023v-.279h-.579v-.429h-.376v.429h-.36v.279h.36v1.053a.521.521,0,0,0,.595.584.922.922,0,0,0,.307-.05v-.325a.656.656,0,0,1-.261.054.235.235,0,0,1-.264-.268v-1.048Z" transform="translate(-339.24 -706.104)" fill="#1a1311"/>
        <path id="パス_269" data-name="パス 269" d="M339.241,708.166v-.653h-.536v-.331h.919v1.195a1.567,1.567,0,0,1-1.853-.08,1.344,1.344,0,0,1,0-1.875,1.363,1.363,0,0,1,.971-.359,1.605,1.605,0,0,1,.769.168v.393a1.427,1.427,0,0,0-.746-.2.991.991,0,0,0-.7.257,1,1,0,0,0,0,1.356,1.006,1.006,0,0,0,.715.248A.9.9,0,0,0,339.241,708.166Z" transform="translate(-337.392 -706.064)" fill="#1a1311"/>
      </g>
      <g id="グループ_209" data-name="グループ 209" transform="translate(24.16 9.96)">
        <path id="パス_270" data-name="パス 270" d="M363.719,708.613v-2.506h.376v2.506Z" transform="translate(-355.206 -706.071)" fill="#1a1311"/>
        <path id="パス_271" data-name="パス 271" d="M365.186,708.613v-2.506h.376v2.506Z" transform="translate(-355.438 -706.071)" fill="#1a1311"/>
        <path id="パス_272" data-name="パス 272" d="M358.641,706.807a.707.707,0,0,0-.43.178.914.914,0,0,0-.157.176.6.6,0,0,0-.64-.354.722.722,0,0,0-.428.178.769.769,0,0,0-.094.094v-.258h-.375v1.9h.375V707.7a.575.575,0,0,1,.147-.427.459.459,0,0,1,.325-.147c.273-.007.383.206.383.436v1.16h.375V707.7a.572.572,0,0,1,.147-.427.457.457,0,0,1,.324-.147c.273-.007.383.206.383.436v1.16h.376v-1.267A.622.622,0,0,0,358.641,706.807Z" transform="translate(-354.069 -706.181)" fill="#1a1311"/>
        <path id="パス_273" data-name="パス 273" d="M361.626,706.808a1.209,1.209,0,0,0-.6.141v.324a.906.906,0,0,1,.529-.152.485.485,0,0,1,.33.106.383.383,0,0,1,.109.28v.1h-.36c-.755,0-.877.381-.877.589a.483.483,0,0,0,.183.388.728.728,0,0,0,.484.152c.022,0,.043,0,.064,0a.781.781,0,0,0,.505-.2v.19h.379v-1.2A.7.7,0,0,0,361.626,706.808Zm-.141,1.632a.461.461,0,0,1-.281-.073.245.245,0,0,1,.029-.408.689.689,0,0,1,.371-.081h.387v.254A.562.562,0,0,1,361.485,708.44Z" transform="translate(-354.738 -706.181)" fill="#1a1311"/>
        <path id="パス_274" data-name="パス 274" d="M355.3,707.837c-.034-.2-.165-.382-.6-.579a3.488,3.488,0,0,1-.557-.282.276.276,0,0,1-.13-.232.263.263,0,0,1,.124-.234.69.69,0,0,1,.379-.1,1.285,1.285,0,0,1,.642.157v-.383a1.514,1.514,0,0,0-.634-.12c-.325,0-.917.13-.917.682a.617.617,0,0,0,.273.523,3.949,3.949,0,0,0,.553.291c.145.066.434.191.445.371.013.211-.233.348-.518.352a1.19,1.19,0,0,1-.751-.295v.416a1.306,1.306,0,0,0,.768.239,1.131,1.131,0,0,0,.681-.187A.644.644,0,0,0,355.3,707.837Z" transform="translate(-353.61 -706.064)" fill="#1a1311"/>
      </g>
    </g>
  </g>
</svg>
