<svg xmlns="http://www.w3.org/2000/svg" viewBox="0 0 592.18 93.98"><defs><style>.cls-1{fill:#231815;}.cls-2{fill:#dc4923;}.cls-3{fill:#fff;}</style></defs><g id="レイヤー_2" data-name="レイヤー 2"><g id="レイヤー_1-2" data-name="レイヤー 1"><path class="cls-1" d="M111.61,27.85l7.25,3.07a16.68,16.68,0,0,0-2.94,4.26,9.76,9.76,0,0,0-.8,3.63,4,4,0,0,0,2.85,3.9,19.35,19.35,0,0,0,6.39,1.35c1.22,0,2.6.06,4.15.06q7.28,0,12.92-.22a83.45,83.45,0,0,0,9-1l-.17,8.44Q142,52,134.9,52a100.69,100.69,0,0,1-15.77-.88,25.4,25.4,0,0,1-5.46-1.48,10.88,10.88,0,0,1-3.56-2.37c-1.9-1.88-2.84-4.58-2.84-8.1A15.41,15.41,0,0,1,109,31.92,35.67,35.67,0,0,1,111.61,27.85Zm-1.83-15.1L109.84,5q11.7-.2,17.53-.2,10.32,0,19.78.89v7.22a79.65,79.65,0,0,0-8.3,3.62c-2.19,1.14-4.76,2.67-7.71,4.56l-4.93-4.64q2.61-1.8,5.7-3.74c-4.87-.14-8.53-.22-11-.22S114.74,12.59,109.78,12.75Z"/><path class="cls-1" d="M161.46,27.85l7.25,3.07a16.68,16.68,0,0,0-2.94,4.26,9.76,9.76,0,0,0-.8,3.63,4,4,0,0,0,2.85,3.9,19.46,19.46,0,0,0,6.39,1.35c1.22,0,2.6.06,4.15.06q7.27,0,12.92-.22a83.45,83.45,0,0,0,9-1l-.17,8.44q-8.22.63-15.35.63A100.69,100.69,0,0,1,169,51.09a25.4,25.4,0,0,1-5.46-1.48A10.88,10.88,0,0,1,160,47.24q-2.84-2.82-2.84-8.1a15.41,15.41,0,0,1,1.71-7.22A35.67,35.67,0,0,1,161.46,27.85Zm-1.83-15.1L159.69,5q11.7-.2,17.53-.2,10.32,0,19.78.89v7.22a79.65,79.65,0,0,0-8.3,3.62c-2.19,1.14-4.76,2.67-7.71,4.56l-4.93-4.64q2.61-1.8,5.7-3.74c-4.87-.14-8.53-.22-11-.22S164.59,12.59,159.63,12.75Z"/><path class="cls-1" d="M217.86,21.22c-3.54.35-7,.72-10.4,1.13l-1.08-7.8q5.73-.53,12.89-1a95.31,95.31,0,0,0,1.47-11l8.63.58q-1,5.31-1.83,10,2.61-.09,3.9-.09c3.49,0,6.21.67,8.16,2a8.21,8.21,0,0,1,3.15,4.65,28.27,28.27,0,0,1,.89,7.94,118.82,118.82,0,0,1-1,15.63q-.75,5.9-2.94,8.08-1.78,1.85-6.33,1.85a63,63,0,0,1-8.52-.69l-2.1-8.77a41.49,41.49,0,0,0,8.55,1,3.19,3.19,0,0,0,2.1-.47,3.24,3.24,0,0,0,.88-1.66,40.57,40.57,0,0,0,1-6.75c.27-3,.4-6,.4-9q0-4.25-1.21-5.59a2.37,2.37,0,0,0-1.16-.75,8.47,8.47,0,0,0-2.22-.22,34.71,34.71,0,0,0-5,.39q-2.72,11.7-4.73,18.17a100.19,100.19,0,0,1-6,14.38l-7.89-4.45q2.81-5,4.22-8a71.07,71.07,0,0,0,2.81-7.08Q216.1,28.91,217.86,21.22Zm23.51-9.71,7-3.35a54.34,54.34,0,0,1,4.17,6.56,82.73,82.73,0,0,1,6.31,16.56l-7.66,3.9A98.44,98.44,0,0,0,247.68,23a47.2,47.2,0,0,0-4.07-8.27C243.13,14,242.39,12.93,241.37,11.51Z"/><path class="cls-1" d="M264.77,40.83q0-15.66.75-26.31l8.05.67q-.49,7.13-.72,13.83a45,45,0,0,1,8.74-5.09,31.33,31.33,0,0,1,11.76-2.24,23.5,23.5,0,0,1,8.82,1.6,11.59,11.59,0,0,1,5.95,5.14,14,14,0,0,1,1.69,7,14.44,14.44,0,0,1-7.06,13,25,25,0,0,1-9.49,3.63,70.89,70.89,0,0,1-11.42.85c-1.64,0-3.85,0-6.64-.08l-2.1-7.91a93,93,0,0,0,9.85.66q10.1,0,15.51-3.7A8,8,0,0,0,302.28,35a5.89,5.89,0,0,0-2-4.68,9.92,9.92,0,0,0-6.7-2.1,23.74,23.74,0,0,0-11.42,3.07A28.68,28.68,0,0,0,274,38q-1,1.3-2.54,3.54ZM271.86,10l2.43-7A110.83,110.83,0,0,1,287.12,5a89.37,89.37,0,0,1,12.45,4.06l-3.18,7.44a75.18,75.18,0,0,0-11.53-4Q279.33,11.15,271.86,10Z"/><path class="cls-1" d="M329.64,53.64H320.9V5.22h8.74Z"/><path class="cls-1" d="M361.5,53.64h-8.75V12.34H338.36V5.22h37.5v7.12H361.5Z"/><path class="cls-1" d="M382.09,15.16h10.24V4.92h7.55V15.16h15.54V3.49h7.94V15.16H433v7.16h-9.68q-.14,5.31-.48,8.27a33.93,33.93,0,0,1-1.12,5.59,22.14,22.14,0,0,1-12.34,14.44,31.31,31.31,0,0,1-6.86,2.13c-1.27.26-2.71.5-4.31.74L394,45.94a45,45,0,0,0,10.1-2q8.06-3.07,10.07-10.38a52.74,52.74,0,0,0,1.24-11.2H399.88V36.93h-7.55V22.32H382.09Z"/><path class="cls-1" d="M439.29,45.92q2.35-4,3.5-6.32a44.14,44.14,0,0,0,2.15-5.3A93.28,93.28,0,0,0,447.45,25l7.86,2.35a87.12,87.12,0,0,1-3.71,13.17,75.73,75.73,0,0,1-5.34,10.34Zm29.9-32.34h20.14v7.55H469.19v31.7h-7.94V21.13h-21V13.58h21V3.73h7.94Zm4.95,13.89,7.39-3q3.15,8.28,5.14,12.78,1.59,3.6,4.46,9.24l-7.44,3.62q-3.44-7-5.53-12.11Q476.63,34.22,474.14,27.47ZM487.23,0a5.89,5.89,0,0,1,4.53,2.07,6,6,0,0,1,1.61,4.15,5.94,5.94,0,0,1-2.08,4.65,6,6,0,0,1-4.17,1.6,5.93,5.93,0,0,1-4.62-2.07,6,6,0,0,1-1.61-4.2A6,6,0,0,1,483,1.6,6.09,6.09,0,0,1,487.23,0Zm-.14,3.4a2.76,2.76,0,0,0-2.08.94,2.81,2.81,0,0,0-.71,1.91,2.82,2.82,0,0,0,2.82,2.82A2.82,2.82,0,0,0,490,6.22a2.75,2.75,0,0,0-.94-2.1A2.81,2.81,0,0,0,487.09,3.4Z"/><path class="cls-1" d="M496.58,24.42h48v7.75h-48Z"/><path class="cls-1" d="M556.3,4.12h7.94V18.5q9.1,3.08,14.14,5.18,4.73,2,13.8,6.39l-3.79,8q-8.16-4.62-12-6.5-4.62-2.27-12.14-5.23V52.47H556.3Z"/><path class="cls-1" d="M113.25,88.84h-3.7V68.36h3.7Z"/><path class="cls-1" d="M128.23,88.84h-3.7V71.37h-6.08v-3H134.3v3h-6.07Z"/><path class="cls-1" d="M137.24,67.85h16.42L157,72.22a20.56,20.56,0,0,1-4.18,10,17.64,17.64,0,0,1-7.31,5.45,25.55,25.55,0,0,1-4,1.15l-2.07-3.31a24.26,24.26,0,0,0,4-.83,13.46,13.46,0,0,0,2.94-1.39,14.82,14.82,0,0,0,6.44-8.55,20.86,20.86,0,0,0,.7-3.67H137.24Zm21.32-2.3a2.59,2.59,0,0,1,2,.92,2.77,2.77,0,1,1-4.11,3.7,2.75,2.75,0,0,1,.2-3.91A2.73,2.73,0,0,1,158.56,65.55Zm-.06,1.51a1.26,1.26,0,0,0-1.25,1.27,1.21,1.21,0,0,0,.42.93,1.25,1.25,0,0,0,.85.32,1.24,1.24,0,0,0,1.25-1.27,1.19,1.19,0,0,0-.41-.93A1.27,1.27,0,0,0,158.5,67.06Z"/><path class="cls-1" d="M162.71,73.87h20.93a26.75,26.75,0,0,1-.88,5.46,12.77,12.77,0,0,1-7,7.87,19.92,19.92,0,0,1-5,1.66c-.57.1-1.44.22-2.59.36l-1.52-3.46a28.85,28.85,0,0,0,5.3-.93,11.34,11.34,0,0,0,6.4-4.48,11,11,0,0,0,1.31-3.21H162.71Zm2.57-2.82V67.78h16v3.27Z"/><path class="cls-1" d="M189.3,74.23l2.91-.81c.49,1.23.84,2.17,1,2.8s.57,1.84,1,3.34l-2.93.86Q190.44,77.35,189.3,74.23Zm3.39,12.22a22.09,22.09,0,0,0,4.63-1.81,10.15,10.15,0,0,0,3.84-3.86,15.83,15.83,0,0,0,1.53-5,28.46,28.46,0,0,0,.26-3.27l3.27.35a34,34,0,0,1-.84,5.44,14.28,14.28,0,0,1-4.41,7.6,14,14,0,0,1-4.62,2.61l-1.49.48ZM195,73.06l3-.83c.45,1.18.76,2.06.95,2.65s.5,1.81.85,3.27l-2.85.92Q196,75.92,195,73.06Z"/><path class="cls-1" d="M215.44,67.38H219v6.39q4,1.37,6.28,2.3t6.14,2.84l-1.69,3.56c-2.42-1.36-4.19-2.33-5.33-2.88-1.37-.68-3.17-1.45-5.4-2.33V88.87h-3.53Z"/><path class="cls-1" d="M235,67.85h20.66a43.12,43.12,0,0,1-.41,4.82,19.31,19.31,0,0,1-6.44,12,17.65,17.65,0,0,1-6.37,3.54c-.57.17-1.45.39-2.62.65l-2.06-3.31a24.26,24.26,0,0,0,4-.83,13.61,13.61,0,0,0,2.93-1.39,14.73,14.73,0,0,0,6.43-8.55,20.73,20.73,0,0,0,.72-3.67H235Z"/><path class="cls-1" d="M260.46,74.68h9V71.82h3.18v2.86h4.07v2.85h-4.07v8.1a3.83,3.83,0,0,1-.48,2.08,3.08,3.08,0,0,1-2.78,1.08h-2.26l-1.08-3q1.68.15,2.34.15a1.33,1.33,0,0,0,.84-.21,1,1,0,0,0,.24-.75V80.67a26.49,26.49,0,0,1-3.6,3.32,36.93,36.93,0,0,1-4.05,2.63l-2.08-2.42a31.8,31.8,0,0,0,4.4-2.54A16.67,16.67,0,0,0,267,79.17c.31-.35.75-.9,1.3-1.64h-7.82Z"/><path class="cls-1" d="M282.56,76.4h21.35v3.44H282.56Z"/><path class="cls-1" d="M322.78,86.06q-5.31,1-9.14,1.39-3.11.36-8.08.68L305,84.42l2.32-.14q2.44-5.34,3.81-9.19,1-2.84,2.37-7.53l3.88.57q-2.11,6.11-3.39,9.38c-.69,1.73-1.65,3.95-2.9,6.66q3.65-.23,5.74-.5c1.16-.14,2.72-.39,4.69-.75-1-2.17-2-4.1-3-5.82l3.33-1.61c1.56,2.92,2.78,5.35,3.64,7.3q.9,2,2,5L324,89.41C323.63,88.38,323.23,87.26,322.78,86.06Z"/><path class="cls-1" d="M339.35,87.69V84.5h9.24V71.74h-8.14V68.56h19.63v3.18h-8.14V84.5h9.23v3.19Z"/><path class="cls-1" d="M365.17,74.23l2.9-.81c.49,1.23.84,2.17,1.05,2.8s.56,1.84,1,3.34l-2.93.86Q366.29,77.35,365.17,74.23Zm3.38,12.22a22,22,0,0,0,4.64-1.81A10.05,10.05,0,0,0,377,80.78a15.82,15.82,0,0,0,1.54-5,30.94,30.94,0,0,0,.26-3.27l3.27.35a36.39,36.39,0,0,1-.84,5.44,14.41,14.41,0,0,1-4.41,7.6,14,14,0,0,1-4.63,2.61l-1.48.48Zm2.29-13.39,3-.83c.44,1.18.76,2.06.95,2.65s.5,1.81.85,3.27l-2.86.92C372.19,77,371.55,75,370.84,73.06Z"/><path class="cls-1" d="M392,72.11V67.38h3.51v4.47l13.15-.93a26.41,26.41,0,0,1-.64,4.66,9.68,9.68,0,0,1-3.94,5.3A20.26,20.26,0,0,1,399.75,83l-2.21-3.07a25,25,0,0,0,3.67-1.59A7.38,7.38,0,0,0,404,76a4.86,4.86,0,0,0,.51-1.46l-9,.77v7.9a1.8,1.8,0,0,0,.56,1.54c.43.33,1.83.5,4.19.5a65.75,65.75,0,0,0,7.9-.47l-.34,3.58q-4.59.23-7.08.23a24.7,24.7,0,0,1-5.08-.38,4.83,4.83,0,0,1-2.9-1.6,4.37,4.37,0,0,1-.76-2.65V75.58L387.2,76l-.26-3.53Z"/><path class="cls-1" d="M413.19,70.78,415.32,68c1.6,1,2.95,1.81,4,2.58.73.52,1.7,1.24,2.91,2.17l-2.15,2.88C417.72,73.86,415.42,72.23,413.19,70.78Zm.17,14a47.73,47.73,0,0,0,6.12-1,15.15,15.15,0,0,0,9.37-6.27,15.48,15.48,0,0,0,2.08-4.91c.12-.52.28-1.31.46-2.37l3.31,1.82a29.68,29.68,0,0,1-2.49,6.81A15.85,15.85,0,0,1,427.79,84a22.46,22.46,0,0,1-8.63,3.67c-1.17.25-2.78.49-4.84.71Z"/><path class="cls-1" d="M438.21,77.31l1.46-3c1.61.55,2.82,1,3.61,1.3s1.89.81,3.38,1.5l-1.4,3.2c-1.55-.74-2.71-1.28-3.5-1.61S439.8,77.9,438.21,77.31Zm.6,7.45a46.94,46.94,0,0,0,5.52-.85,17.91,17.91,0,0,0,7.39-3.44,14.5,14.5,0,0,0,4-5.36,17.1,17.1,0,0,0,1-3.65L460,73.84a29.92,29.92,0,0,1-1.21,3.34,16.16,16.16,0,0,1-1.47,2.54,19.25,19.25,0,0,1-11.16,7.55A53.31,53.31,0,0,1,440,88.4Zm1.65-13.89,1.48-3.13c1.86.68,3.26,1.23,4.21,1.63.75.31,1.71.75,2.89,1.33l-1.31,3.16c-1.9-.88-3.25-1.49-4.05-1.82S441.79,71.3,440.46,70.87Z"/><path class="cls-1" d="M469.85,78.43l-4.89.49-.31-2.81,5-.41L469.36,72l3-.21.27,3.64,9.41-.76a32.1,32.1,0,0,1-.25,3.35,7.39,7.39,0,0,1-2.64,4.67A11.8,11.8,0,0,1,476,84.42L474,82.11a22.89,22.89,0,0,0,2.19-.86,6.28,6.28,0,0,0,1.32-.87,3.83,3.83,0,0,0,1.25-1.94c.07-.25.14-.57.21-.94l-6.21.62.81,10.77-2.91.31Z"/><path class="cls-1" d="M485.19,85.93a15.1,15.1,0,0,0,1.93-2.47c1.36-2.31,2.05-5.46,2.05-9.46V67.83h3.52V74A28,28,0,0,1,491.44,83a14.24,14.24,0,0,1-2.37,4.35c-.23.28-.6.69-1.1,1.23ZM496,67.38h3.53V84.47a9,9,0,0,0,1.47-.65A5.67,5.67,0,0,0,502,83a9.69,9.69,0,0,0,2.52-4.66,24.07,24.07,0,0,0,.48-2.81l3.3,1.82a30.62,30.62,0,0,1-1.39,4.45A10.45,10.45,0,0,1,501,87.67a12.29,12.29,0,0,1-3,.69c-.6.08-1.29.13-2.06.18Z"/><path class="cls-1" d="M519.12,87.34v2h-2.93v-8.5h-1.61c-.17,2.13-.38,3.9-.63,5.32A16.78,16.78,0,0,1,512.84,90l-2.79-2.39a17.78,17.78,0,0,0,1.05-3.7,39.53,39.53,0,0,0,.4-6.11V67.07h3.11v5.48H516v-6h2.92v6h1.39v3h-5.68v2.27h4.51v8Q521,82.46,521,75.36V67h12.46V70.1h-9.27v3h8.91v2.56a26.64,26.64,0,0,1-.81,4.89,20.6,20.6,0,0,1-1.55,3.55,8.83,8.83,0,0,0,1.5,1.5c.35.27.95.69,1.82,1.26l-1.73,2.88a21.14,21.14,0,0,1-2.38-1.85,15.8,15.8,0,0,1-1.22-1.23,15,15,0,0,1-2.12,1.93,21.29,21.29,0,0,1-2,1.25l-2.14-2.6a22.3,22.3,0,0,0,2.7-1.6,10.3,10.3,0,0,0,1.63-1.51,24,24,0,0,1-1.4-2.76,25.13,25.13,0,0,1-1.15-3.71l2.77-1c.31,1.18.57,2,.76,2.62a15.84,15.84,0,0,0,.87,2,14.89,14.89,0,0,0,.88-2.58,17.65,17.65,0,0,0,.29-2.73h-5.63c-.06,2.44-.18,4.32-.35,5.64a20.2,20.2,0,0,1-1.36,5.23,27.86,27.86,0,0,1-1.26,2.51Z"/><circle class="cls-2" cx="46.75" cy="47.24" r="46.75"/><path class="cls-3" d="M65.36,53.82a14.16,14.16,0,0,0,2.77-4.6A16.32,16.32,0,0,0,69.59,43a2.71,2.71,0,0,0-1.34-2.19c-1.38,2.24-3.73,4-4,3.66-.44-.55,4.66-5.3,4.43-9.27a3.45,3.45,0,0,0-1.8-2.82S63.08,36.77,62.53,36s4-5.61,4-5.61A3.26,3.26,0,0,0,67,27.2a2.63,2.63,0,0,0-2.45-1.8s-5.8,3.14-6.2,2.27,5.51-3.74,5.51-3.74a3.78,3.78,0,0,0,.51-4.29c-1-2-3.57-1.75-4.64-1.55a72.13,72.13,0,0,0-9.31,2.84,1.19,1.19,0,0,1-.15.09,34.78,34.78,0,0,0-3.74,1.88,25.65,25.65,0,0,1-2.49,1.74c-1.84,1.25-2.85,1.84-3.42,2.16-.75.48-1.51,1-2.23,1.49A9.61,9.61,0,0,1,41,32.63a4.48,4.48,0,0,1-1.56,4.2,4.29,4.29,0,0,1-1.16.74,6.46,6.46,0,0,1,1.2,3.84,4,4,0,0,1-2.29,3.31,2.87,2.87,0,0,1-.51.21,6.07,6.07,0,0,1,.15,3.27,3.94,3.94,0,0,1-4.06,3.16h0l-.52,0a7.76,7.76,0,0,1-.86-.11c-.55,1.7-1.82,3.6-4.24,3.6h0a5.15,5.15,0,0,1-.94-.09,8.54,8.54,0,0,1-4.14-2c-.67.88-1.31,1.7-1.86,2.4l16.07,14c1.84-2.26,4.89-5.63,7.27-6.36a36.2,36.2,0,0,1,3.95-1,45.42,45.42,0,0,0,5.21-1.33A42.4,42.4,0,0,0,65.36,53.82Z"/><path class="cls-3" d="M57.45,68.93,73.2,55.2,69,51a12.31,12.31,0,0,1-2.7,4.15A46.38,46.38,0,0,1,53.21,62a48.24,48.24,0,0,1-5.37,1.37l-.15,0a38.7,38.7,0,0,0,5,2,9,9,0,0,1,3.3,2C56.53,68,57,68.47,57.45,68.93Z"/><path class="cls-3" d="M22.52,50.92c.17.18.35.35.53.51a7.13,7.13,0,0,0,3.47,1.7,3.63,3.63,0,0,0,.64.06c1.58,0,2.33-1.37,2.68-2.44a24.28,24.28,0,0,1-4.1-2.44l-.07-.05-.23-.21c-.43-.38-.83-.76-1.19-1.14a13.07,13.07,0,0,1-1.82-2.3,6.72,6.72,0,0,0-1.09,2.24A4.56,4.56,0,0,0,22,50.18,4.43,4.43,0,0,0,22.52,50.92Z"/><path class="cls-3" d="M23.56,43.3a10.22,10.22,0,0,0,1.59,2.19l.08.08c.33.36.7.72,1.1,1.09l.37.34c.53.36,1,.68,1.43,1a13.36,13.36,0,0,0,2.53,1.37,5.64,5.64,0,0,0,1.08.3,6.57,6.57,0,0,0,.66.09,2.42,2.42,0,0,0,2.87-1.91A4.63,4.63,0,0,0,35,45.09c-1.64-.14-3.8-1-6.44-2.69h0l-.11-.08-.56-.49-.59-.52a16.91,16.91,0,0,1-2.83-3.17,9.92,9.92,0,0,1-.57-.87A5.24,5.24,0,0,0,23,42,7.07,7.07,0,0,0,23.56,43.3Z"/><path class="cls-3" d="M25.78,37.18c.32.43.59.79.85,1.1A13.43,13.43,0,0,0,28,39.76l.94.84.33.29.19.16a21,21,0,0,0,4,2,6.09,6.09,0,0,0,2,.42h.09a1.78,1.78,0,0,0,.85-.2,2.44,2.44,0,0,0,1.46-2,5.56,5.56,0,0,0-1.41-3.46,3.19,3.19,0,0,1-.8-.18,23,23,0,0,1-3.77-2c-.46-.3-.92-.61-1.35-.92s-1-.76-1.43-1.11a9.37,9.37,0,0,1-2-2.58,3.64,3.64,0,0,0-2.19,2,3.55,3.55,0,0,0,.17,3.06A9,9,0,0,0,25.78,37.18Z"/><path class="cls-3" d="M29.11,31.13a7.5,7.5,0,0,0,1.08,1.21c.33.29.73.6,1.16.92s.88.62,1.35.92c.75.49,1.51,1,2.2,1.32a11.6,11.6,0,0,0,1.33.63,2,2,0,0,0,.94.09,2.65,2.65,0,0,0,1.21-.61,2.92,2.92,0,0,0,1-2.6,8.33,8.33,0,0,0-2.36-3.75c-.34-.34-.68-.64-1-.89l-.57,0h-.3a5.74,5.74,0,0,1-3.69-1.11,2.27,2.27,0,0,1-.72-1.71,3.36,3.36,0,0,1,.31-1.36H31A3.8,3.8,0,0,0,28,27.3a4.51,4.51,0,0,0,.27,2.14A7,7,0,0,0,29.11,31.13Z"/><path class="cls-3" d="M33.86,26.64a6,6,0,0,0,1.36.15h.18a6.65,6.65,0,0,0,1.16-.13A7.72,7.72,0,0,0,38,26.27c.28-.1.56-.22.85-.35l.15-.08.43-.22.15-.08.25-.14.06,0c.55-.31,1.52-.88,3.29-2.09.68-.46,1.51-1,2.43-1.69a17.33,17.33,0,0,1,2.9-1.52L48.42,20a29.42,29.42,0,0,0-3.24-2.45,4.59,4.59,0,0,0-2.5-.88,4.77,4.77,0,0,0-2.36.75,26.45,26.45,0,0,0-4,3.57c-.69.7-1.41,1.4-2.14,2.1l-.69.65-.23.22a2.89,2.89,0,0,0-.55.67l-.06.11a1.87,1.87,0,0,0-.23.84h0a.66.66,0,0,0,.19.51A3,3,0,0,0,33.86,26.64Z"/><path class="cls-3" d="M36.51,71.5l-1.23-1.08-16.08-14L18,55.34l-.67-.59a1,1,0,0,0-.62-.22.93.93,0,0,0-.71.32l-3.69,4.23a1,1,0,0,0-.23.68,1,1,0,0,0,.32.64l19.52,17a1,1,0,0,0,1.32-.09l3.69-4.23a.91.91,0,0,0,.23-.69.92.92,0,0,0-.32-.64Z"/><path class="cls-3" d="M81.2,59.08l-3.69-4.24a1,1,0,0,0-.71-.31,1,1,0,0,0-.62.22l-.67.59L59,69.78l-.43.37L57.3,71.22l-.63.55a.92.92,0,0,0-.32.64.91.91,0,0,0,.23.69l3.69,4.23a1,1,0,0,0,1.33.09l19.51-17a.92.92,0,0,0,.32-.64A1,1,0,0,0,81.2,59.08Z"/></g></g></svg>