<svg xmlns="http://www.w3.org/2000/svg" width="50" height="50" viewBox="0 0 50 50"><defs><style>.a{fill:#a0a0a0;}</style></defs><path class="a" d="M1225.832,902.727V931.06A10.834,10.834,0,0,1,1215,941.894h-28.334a10.834,10.834,0,0,1-10.833-10.834V902.727a10.833,10.833,0,0,1,10.833-10.833H1215A10.834,10.834,0,0,1,1225.832,902.727Zm-17.6,7.665h-5.754v-3.774a1.536,1.536,0,0,1,1.6-1.748h4.061v-6.231l-5.593-.022c-6.209,0-7.622,4.647-7.622,7.622v4.153h-3.59v6.42h3.59v18.169h7.554V916.812h5.095Z" transform="translate(-1175.832 -891.894)"/></svg>