<?xml version="1.0" encoding="UTF-8"?><svg id="_イヤー_2" xmlns="http://www.w3.org/2000/svg" viewBox="0 0 668.98 430.87"><defs><style>.cls-1{fill:none;}.cls-2{fill:#ca4928;}.cls-3{fill:#251e1c;}</style></defs><g id="logo"><g><g><g><path class="cls-3" d="M166.39,297.21h-48.9v-13.75h-11.91v13.75H56.69v54.28h48.9v22.68h11.91v-22.68h48.9v-54.28h0Zm-98.93,45.35v-36.43h38.12v36.43h-38.12Zm50.03,0v-36.43h38.13v36.43h-38.13Z"/><g><polygon class="cls-3" points="252.28 365.1 248.98 365.1 252.28 374.17 252.28 374.17 252.28 374.17 264.19 374.17 264.19 283.46 252.28 283.46 252.28 365.1"/><polygon class="cls-3" points="195.64 351.5 207.4 351.5 223.91 306.14 212.15 306.14 195.64 351.5"/><polygon class="cls-3" points="303.76 306.14 291.99 306.14 308.5 351.5 320.27 351.5 303.76 306.14"/></g></g><g><g><path class="cls-3" d="M612.28,322.87v-7.94h-18.14v-4.82h9.92v-7.94h-9.92v-4.82h14.03v-7.94h-14.03v-5.95h-9.92v5.95h-23.24v-5.95h-9.92v5.95h-14.03v7.94h14.03v4.82h-9.92v7.94h9.92v4.82h-18.14v7.94h34.72v4.82h-26.5v25.51h-8.22v7.94h8.22v13.04h9.92v-13.04h43.09v5.1h-2.89l2.89,7.94h9.92v-13.04h8.22v-7.94h-8.22v-25.51h-26.5v-4.82h34.72Zm-44.65,12.76v4.82h-16.58v-4.82h16.58Zm-16.58,12.76h16.58v4.82h-16.58v-4.82Zm26.5,4.82v-4.82h16.58v4.82h-16.58Zm16.58-17.57v4.82h-16.58v-4.82h16.58Zm-33.17-38.27h23.24v4.82h-23.24v-4.82Zm0,17.57v-4.82h23.24v4.82h-23.24Z"/><polygon class="cls-3" points="531.07 308.98 531.07 300.47 519.66 300.47 519.66 283.46 510.31 283.46 510.31 300.47 498.9 300.47 498.9 308.98 510.29 308.98 494.82 351.5 504.47 351.5 510.31 335.46 510.31 374.17 519.66 374.17 519.66 330.76 531.3 330.76 519.72 308.98 531.07 308.98"/></g><g><polygon class="cls-3" points="384.91 300.02 394.93 310.04 385.51 319.46 385.51 327.97 407.06 327.97 415.56 327.97 415.56 319.46 415.56 314.36 407.06 314.36 407.06 319.46 397.94 319.46 415.18 302.23 408.96 296.01 401.15 303.83 397.32 300 407.36 289.96 401.15 283.75 384.91 299.98 384.93 300 384.91 300.02"/><path class="cls-3" d="M456.38,314.36v5.1h-9.12l17.24-17.24-6.21-6.21-7.82,7.82-3.81-3.81,10.02-10.02-6.21-6.21-10.02,10.02-6.21,6.21,10.02,10.02-9.42,9.42v8.5h10.49v5.95h-15.17v-50.43h-9.92v50.43h-34.72v8.79h9.87l-11.45,31.46h9.95l4.44-12.19h17.24v-8.79h-14.04l3.82-10.49h15.95c.58,2.34,1.39,4.61,2.44,6.81,1.92,4.03,4.59,7.74,7.93,11.03l-7.2,7.2,6.41,6.41,7.92-7.92c3.42,2.21,7.18,4.02,11.14,5.35,4.87,1.63,9.97,2.5,14.96,2.57v-9.92c-6.53-.11-13.18-1.97-18.88-5.22l11.22-11.22h-12.83l-5.73,5.73c-2.55-2.49-4.56-5.28-5.99-8.28-.4-.84-.75-1.68-1.05-2.55h33.25v-8.79h-10.49v-5.95h10.49v-13.61h-8.5Z"/><polygon class="cls-3" points="370.62 308.98 381.97 308.98 381.97 300.47 370.56 300.47 370.56 283.46 361.2 283.46 361.2 300.47 349.8 300.47 349.8 308.98 361.19 308.98 345.71 351.5 355.37 351.5 361.2 335.46 361.2 374.17 370.56 374.17 370.56 330.76 382.2 330.76 370.62 308.98"/></g></g></g><g><polygon class="cls-2" points="566.93 113.39 56.69 113.39 56.69 56.69 623.62 56.69 566.93 113.39"/><polygon class="cls-3" points="566.93 181.42 56.69 181.42 56.69 124.72 623.62 124.72 566.93 181.42"/></g><g><rect class="cls-3" x="612.28" y="249.45" width="5.67" height="5.67"/><path class="cls-3" d="M175.88,224.79c-3.99,0-7.07,.83-9.56,2.22v5.13c2.57-1.7,5.21-2.4,8.37-2.4,2.27,0,4.27,.71,5.22,1.68,1,1.03,1.73,2.42,1.73,4.44v1.61h-5.7c-11.95,.04-13.88,6.01-13.88,9.32,0,2.48,.96,4.53,2.89,6.14,1.93,1.61,4.48,2.42,7.67,2.42,.35,0,.68,0,1.01-.02,3.25-.15,6.26-1.46,8.01-3.22v3.02h6v-19.02c0-7.31-5.57-11.31-11.76-11.31Zm-2.24,25.84c-1.94,0-3.43-.39-4.44-1.16-1.02-.78-1.53-1.84-1.53-3.2s.66-2.41,1.98-3.26c1.32-.85,3.27-1.28,5.87-1.28h6.13v4c-.75,1.72-3.47,4.91-8.01,4.91Z"/><path class="cls-3" d="M126.64,247.04c-3.07,2.22-5.79,3.07-7.81,3.32-1.95,.25-4.17,.18-5.89-.37-1.19-.38-2.59-1.2-3.47-1.99-.88-.79-1.6-1.72-2.13-2.79-.53-1.07-.81-2.25-.87-3.49h23.97c.05-.31,.07-.63,.07-.96v-.97c0-2.32-.34-4.38-1.02-6.23-.68-1.86-1.65-3.44-2.89-4.74-1.26-1.31-2.79-2.3-4.59-3-1.8-.69-3.82-1.04-6.02-1.04s-4.29,.37-6.18,1.12c-1.91,.76-3.57,1.81-4.98,3.16-1.39,1.34-2.48,2.96-3.27,4.85-.79,1.89-1.18,3.96-1.18,6.21s.39,4.36,1.2,6.23c.81,1.88,1.91,3.47,3.31,4.8,1.4,1.33,3.06,2.36,5.02,3.09,1.95,.73,4.08,1.09,6.37,1.09,4.73,0,7.56-1.02,10.36-2.87v-5.44Zm-19.24-12.75c.54-1,1.22-1.87,2.04-2.59,.82-.74,1.8-1.32,2.93-1.75,1.12-.42,2.32-.64,3.59-.64,1.39,0,2.61,.22,3.66,.64,1.04,.42,1.89,1,2.6,1.75,.7,.73,1.22,1.6,1.6,2.59,.35,1,.55,2.04,.59,3.18h-17.93c.09-1.14,.4-2.18,.93-3.18Z"/><path class="cls-3" d="M85.73,236.03c-.87-.84-2.27-1.71-3.88-2.4,1.31-.68,4.86-3.1,4.76-8.14,0-3.02-1.14-5.45-3.41-7.29-2.27-1.84-5.38-2.77-9.33-2.77h-17.03v39.69h17.6c5.26,0,9.16-1.59,11.59-4.71,1.63-2.1,2.46-4.47,2.46-7.06,0-3.09-.93-5.55-2.75-7.32Zm-22.95-15.32h10.63c2.36,0,4.13,.48,5.29,1.45,1.16,.97,1.75,2.22,1.75,3.76,0,1.75-.65,3.18-1.96,4.27-1.31,1.09-3.3,1.64-5.99,1.64h-9.71v-11.12Zm18.33,26.54c-1.29,1.74-3.51,2.62-6.6,2.62h-11.73v-12.77h10.83c2.15,0,3.9,.26,5.19,.79,2.38,.96,3.53,2.7,3.53,5.35,0,1.57-.41,2.92-1.22,4.01Z"/><g><path class="cls-3" d="M327.97,247.1c-3.07,2.22-5.79,3.07-7.81,3.32-1.95,.25-4.17,.18-5.89-.37-1.19-.38-2.59-1.2-3.47-1.99-.88-.79-1.6-1.72-2.12-2.79-.53-1.07-.81-2.25-.87-3.49h23.97c.05-.31,.07-.63,.07-.96v-.97c0-2.32-.34-4.38-1.02-6.23-.68-1.86-1.65-3.44-2.89-4.74-1.26-1.31-2.79-2.3-4.59-3-1.8-.69-3.82-1.04-6.02-1.04s-4.29,.37-6.18,1.12c-1.91,.76-3.57,1.81-4.98,3.16-1.39,1.34-2.48,2.96-3.27,4.85-.79,1.89-1.18,3.96-1.18,6.21s.39,4.36,1.2,6.23c.81,1.88,1.91,3.47,3.31,4.8,1.4,1.33,3.06,2.36,5.02,3.09,1.95,.73,4.08,1.09,6.37,1.09,4.73,0,7.56-1.02,10.36-2.87v-5.44Zm-19.24-12.75c.54-1,1.22-1.87,2.04-2.59,.82-.74,1.8-1.32,2.93-1.75,1.12-.42,2.32-.64,3.59-.64,1.39,0,2.61,.22,3.66,.64,1.04,.42,1.89,1,2.6,1.75,.7,.73,1.22,1.6,1.6,2.59,.35,1,.55,2.04,.59,3.18h-17.93c.09-1.14,.4-2.18,.93-3.18Z"/><path class="cls-3" d="M356.07,224.79c-3.99,0-7.07,.83-9.56,2.22v5.13c2.57-1.7,5.21-2.4,8.37-2.4,2.27,0,4.27,.71,5.22,1.68,1,1.03,1.73,2.42,1.73,4.44v1.61h-5.7c-11.95,.04-13.88,6.02-13.88,9.32,0,2.48,.96,4.53,2.89,6.14,1.93,1.61,4.48,2.42,7.67,2.42,.35,0,.68,0,1.01-.02,3.25-.15,6.26-1.46,8.01-3.22v3.02h6v-19.02c0-7.31-5.57-11.31-11.76-11.31Zm-2.24,25.84c-1.94,0-3.43-.39-4.44-1.16-1.02-.78-1.53-1.84-1.53-3.2s.66-2.41,1.98-3.26c1.32-.85,3.27-1.28,5.87-1.28h6.13v4c-.75,1.72-3.47,4.91-8.01,4.91Z"/><path class="cls-3" d="M281.11,229.94v-4.93h-6.02v30.1h6.02v-16.08c0-6.76,6.85-9.08,11.76-9.08v-5.47c-5.56,.29-9.49,2.11-11.76,5.46Z"/><path class="cls-3" d="M401.33,229.43v-4.41h-9.16v-6.8h-5.95v6.8h-5.7v4.41h5.7v16.66c0,6.17,3.14,9.26,9.41,9.26,1.67,0,3.46-.26,4.86-.79v-5.15c-1.24,.57-2.75,.86-4.14,.86-2.8,0-4.18-1.42-4.18-4.25v-16.59h9.16Z"/><path class="cls-3" d="M253.72,248.14v-10.34h-8.48v-5.23h14.54v18.92c-3.5,2.59-8.15,4.19-13.54,4.19-6.54,0-11.81-1.82-15.81-5.47-4-3.65-5.99-8.61-5.99-14.88s2.02-11.01,6.06-14.79c4.04-3.78,9.16-5.68,15.37-5.68,4.84,0,8.9,.88,12.17,2.65v6.23c-3.53-2.12-7.47-3.18-11.81-3.18s-8.28,1.35-11.09,4.06c-2.82,2.71-4.22,6.27-4.22,10.7s1.39,8.14,4.16,10.76c2.75,2.6,6.52,3.92,11.33,3.94,2.78,0,5.19-.66,7.32-1.9Z"/></g><g><path class="cls-3" d="M575.46,255.12v-39.69h5.95v39.69h-5.95Z"/><path class="cls-3" d="M595.02,255.12v-39.69h5.95v39.69h-5.95Z"/><path class="cls-3" d="M513.06,224.79c-2.54,.17-4.72,1.03-6.81,2.81-.95,.81-1.77,1.77-2.48,2.79-1.39-3.04-4.36-5.99-10.13-5.6-2.53,.17-4.67,1.06-6.78,2.81-.52,.43-1.04,.94-1.49,1.49v-4.08h-5.94v30.1h5.94v-16.17c0-2.98,.77-5.24,2.32-6.77,1.55-1.53,3.17-2.28,5.14-2.33,4.31-.11,6.06,3.26,6.06,6.9v18.37h5.94v-16.17c0-2.98,.77-5.24,2.32-6.77,1.55-1.53,3.17-2.28,5.14-2.33,4.31-.11,6.06,3.26,6.06,6.9v18.37h5.94v-20.06c0-3.96-2.33-10.88-11.25-10.28Z"/><path class="cls-3" d="M549.74,224.79c-3.99,0-7.07,.83-9.56,2.22v5.13c2.57-1.7,5.21-2.4,8.37-2.4,2.27,0,4.27,.71,5.22,1.68,1,1.03,1.73,2.42,1.73,4.44v1.61h-5.7c-11.95,.04-13.88,6.02-13.88,9.32,0,2.48,.96,4.53,2.89,6.14,1.93,1.61,4.48,2.42,7.67,2.42,.35,0,.68,0,1.01-.02,3.25-.15,6.26-1.46,8.01-3.22v3.02h6v-19.02c0-7.31-5.57-11.31-11.76-11.31Zm-2.24,25.84c-1.94,0-3.43-.39-4.44-1.16-1.02-.78-1.53-1.84-1.53-3.2s.66-2.41,1.98-3.26c1.32-.85,3.27-1.28,5.87-1.28h6.13v4c-.75,1.72-3.47,4.91-8.01,4.91Z"/><path class="cls-3" d="M467.5,242.95c-.54-3.18-2.62-6.06-9.51-9.17-2.85-1.28-6.79-2.95-8.81-4.47-1.34-1.01-2.05-2.09-2.05-3.67s.57-2.73,1.96-3.7c1.39-.97,3.57-1.59,5.99-1.59,3.75,0,7.27,.83,10.17,2.5v-6.07c-2.76-1.27-6.11-1.9-10.04-1.9-5.14,0-14.51,2.06-14.51,10.8,0,3.96,1.9,6.52,4.31,8.28,2.51,1.83,7.57,4.04,8.76,4.6,2.29,1.06,6.87,3.03,7.05,5.87,.21,3.35-3.69,5.51-8.2,5.57-4.43,0-8.42-1.84-11.9-4.66v6.58c3.11,2.24,7.27,3.79,12.16,3.79,4.32,0,8.07-.93,10.79-2.95,2.92-2.17,4.47-6.04,3.84-9.79Z"/></g></g><rect class="cls-1" width="668.98" height="430.87"/></g></g></svg>