<svg xmlns="http://www.w3.org/2000/svg" viewBox="0 0 175.75 113.39"><defs><style>.cls-1{fill:#231815;}.cls-2{fill:#e84720;}.cls-3{fill:none;}</style></defs><g id="レイヤー_2" data-name="レイヤー 2"><g id="レイヤー_1-2" data-name="レイヤー 1"><path class="cls-1" d="M43.71,78.21H30.87V74.6H27.74v3.61H14.89V92.5H27.74v6h3.13v-6H43.71V78.21Zm-26,11.94V80.56h10v9.59Zm13.15,0V80.56h10v9.59Z"/><polygon class="cls-1" points="66.28 96.08 65.41 96.08 66.28 98.47 66.28 98.47 66.28 98.47 69.41 98.47 69.41 74.6 66.28 74.6 66.28 96.08"/><polygon class="cls-1" points="51.4 92.5 54.49 92.5 58.82 80.56 55.73 80.56 51.4 92.5"/><polygon class="cls-1" points="79.8 80.56 76.71 80.56 81.05 92.5 84.14 92.5 79.8 80.56"/><path class="cls-1" d="M160.85,85V82.88h-4.76V81.61h2.6V79.52h-2.6V78.25h3.68V76.16h-3.68V74.6h-2.61v1.56h-6.1V74.6h-2.61v1.56h-3.69v2.09h3.69v1.27h-2.61v2.09h2.61v1.27H140V85h9.13v1.27h-7V93H140V95h2.16v3.43h2.61V95h11.32v1.34h-.76l.76,2.09h2.6V95h2.16V93h-2.16V86.23h-7V85Zm-11.72,3.36v1.27h-4.36V88.32Zm-4.36,3.36h4.36V93h-4.36Zm7,1.27V91.68h4.36V93Zm4.36-4.63v1.27h-4.36V88.32Zm-8.71-10.07h6.1v1.27h-6.1Zm0,4.63V81.61h6.1v1.27Z"/><polygon class="cls-1" points="139.52 81.31 139.52 79.07 136.52 79.07 136.52 74.6 134.06 74.6 134.06 79.07 131.07 79.07 131.07 81.31 134.06 81.31 129.99 92.5 132.53 92.5 134.06 88.28 134.06 98.47 136.52 98.47 136.52 87.04 139.58 87.04 136.54 81.31 139.52 81.31"/><polygon class="cls-1" points="101.12 78.95 103.75 81.59 101.28 84.07 101.28 86.31 106.94 86.31 109.17 86.31 109.17 84.07 109.17 82.73 106.94 82.73 106.94 84.07 104.54 84.07 109.07 79.53 107.44 77.9 105.39 79.95 104.38 78.95 107.02 76.31 105.39 74.67 101.12 78.94 101.13 78.95 101.12 78.95"/><path class="cls-1" d="M119.9,82.73v1.34h-2.4L122,79.53,120.4,77.9,118.34,80l-1-1L120,76.32l-1.64-1.64-2.63,2.64L114.08,79l2.63,2.64-2.47,2.48v2.24H117v1.56h-4V74.6H110.4V87.87h-9.12v2.32h2.59l-3,8.28h2.62l1.16-3.21h4.53V93h-3.69l1-2.76h4.19a9.11,9.11,0,0,0,.64,1.79,10.06,10.06,0,0,0,2.08,2.9l-1.89,1.9,1.68,1.69,2.08-2.09a13.2,13.2,0,0,0,2.93,1.41,13,13,0,0,0,3.93.68V95.86a10.45,10.45,0,0,1-5-1.38l3-3h-3.37L115.24,93a8,8,0,0,1-1.57-2.18c-.1-.22-.2-.45-.28-.67h8.74V87.87h-2.76V86.31h2.76V82.73Z"/><polygon class="cls-1" points="97.37 81.31 100.35 81.31 100.35 79.07 97.35 79.07 97.35 74.6 94.89 74.6 94.89 79.07 91.89 79.07 91.89 81.31 94.89 81.31 90.82 92.5 93.36 92.5 94.89 88.28 94.89 98.47 97.35 98.47 97.35 87.04 100.41 87.04 97.37 81.31"/><polygon class="cls-2" points="148.94 29.84 14.89 29.84 14.89 14.92 163.83 14.92 148.94 29.84"/><polygon class="cls-1" points="148.94 47.74 14.89 47.74 14.89 32.82 163.83 32.82 148.94 47.74"/><rect class="cls-1" x="160.85" y="65.64" width="1.49" height="1.49"/><path class="cls-1" d="M46.21,59.15a5,5,0,0,0-2.52.59v1.35a3.77,3.77,0,0,1,2.2-.63,2,2,0,0,1,1.38.44,1.61,1.61,0,0,1,.45,1.17v.42h-1.5c-3.14,0-3.64,1.58-3.64,2.45a2,2,0,0,0,.76,1.62,3,3,0,0,0,2,.64h.27a3.23,3.23,0,0,0,2.1-.85v.8H49.3v-5A2.92,2.92,0,0,0,46.21,59.15ZM45.62,66a1.94,1.94,0,0,1-1.17-.3,1,1,0,0,1-.4-.84,1,1,0,0,1,.52-.86,2.79,2.79,0,0,1,1.54-.34h1.61v1A2.33,2.33,0,0,1,45.62,66Z"/><path class="cls-1" d="M33.27,65a4.44,4.44,0,0,1-2.05.87,3.81,3.81,0,0,1-1.55-.09,2.76,2.76,0,0,1-.91-.53A2.3,2.3,0,0,1,28,63.61h6.3a2.11,2.11,0,0,0,0-.25V63.1A4.7,4.7,0,0,0,34,61.46a3.45,3.45,0,0,0-.76-1.24,3.14,3.14,0,0,0-1.21-.79,4.4,4.4,0,0,0-1.58-.28,4.32,4.32,0,0,0-1.62.3,4.12,4.12,0,0,0-1.31.83,3.85,3.85,0,0,0-.86,1.28,4.4,4.4,0,0,0,0,3.27,3.55,3.55,0,0,0,.87,1.26,3.93,3.93,0,0,0,1.32.82,4.76,4.76,0,0,0,1.67.29,4.44,4.44,0,0,0,2.72-.76Zm-5.05-3.36a2.54,2.54,0,0,1,.53-.68,2.58,2.58,0,0,1,.77-.46,2.66,2.66,0,0,1,.94-.17,2.63,2.63,0,0,1,1,.17,1.93,1.93,0,0,1,1.1,1.14,2.9,2.9,0,0,1,.15.84H28A2.27,2.27,0,0,1,28.22,61.65Z"/><path class="cls-1" d="M22.52,62.11a3.44,3.44,0,0,0-1-.63,2.31,2.31,0,0,0,1.25-2.14,2.38,2.38,0,0,0-.89-1.92,3.82,3.82,0,0,0-2.45-.73H14.93V67.14h4.62A3.64,3.64,0,0,0,22.6,65.9,3,3,0,0,0,23.25,64,2.59,2.59,0,0,0,22.52,62.11Zm-6-4h2.8a2.17,2.17,0,0,1,1.39.38,1.25,1.25,0,0,1,.45,1,1.42,1.42,0,0,1-.51,1.13,2.45,2.45,0,0,1-1.57.43H16.49Zm4.82,7a2,2,0,0,1-1.73.69H16.49V62.39h2.85a3.66,3.66,0,0,1,1.36.21A1.37,1.37,0,0,1,21.63,64,1.72,1.72,0,0,1,21.31,65.06Z"/><path class="cls-1" d="M86.16,65a4.51,4.51,0,0,1-2,.87,3.82,3.82,0,0,1-1.55-.1,2.73,2.73,0,0,1-.91-.52,2.41,2.41,0,0,1-.56-.74,2.18,2.18,0,0,1-.22-.91h6.29a1.1,1.1,0,0,0,0-.26v-.25a4.7,4.7,0,0,0-.27-1.64,3.5,3.5,0,0,0-.76-1.25,3.44,3.44,0,0,0-1.2-.79,4.48,4.48,0,0,0-1.58-.27,4.34,4.34,0,0,0-1.63.3,4,4,0,0,0-1.31.83,3.91,3.91,0,0,0-.86,1.27,4.39,4.39,0,0,0-.3,1.64,4.13,4.13,0,0,0,.31,1.64,3.73,3.73,0,0,0,2.19,2.07,5.17,5.17,0,0,0,4.39-.46Zm-5-3.36a2.54,2.54,0,0,1,.53-.68,2.39,2.39,0,0,1,.77-.46,2.71,2.71,0,0,1,1-.17,2.61,2.61,0,0,1,1,.17A1.82,1.82,0,0,1,85,61a1.9,1.9,0,0,1,.42.68,2.85,2.85,0,0,1,.16.84H80.87A2,2,0,0,1,81.11,61.67Z"/><path class="cls-1" d="M93.54,59.15a5,5,0,0,0-2.51.59v1.35a3.77,3.77,0,0,1,2.2-.63,2,2,0,0,1,1.38.44,1.61,1.61,0,0,1,.45,1.17v.42h-1.5c-3.14,0-3.64,1.58-3.64,2.45a2,2,0,0,0,.76,1.62,3,3,0,0,0,2,.64H93a3.23,3.23,0,0,0,2.1-.85v.8h1.57v-5A2.91,2.91,0,0,0,93.54,59.15ZM93,66a1.92,1.92,0,0,1-1.17-.3,1,1,0,0,1-.4-.84,1,1,0,0,1,.52-.86,2.79,2.79,0,0,1,1.54-.34h1.61v1A2.33,2.33,0,0,1,93,66Z"/><path class="cls-1" d="M73.85,60.51v-1.3H72.27v7.93h1.58V62.9c0-1.77,1.8-2.38,3.09-2.38V59.07A3.73,3.73,0,0,0,73.85,60.51Z"/><path class="cls-1" d="M105.43,60.38V59.21H103V57.42h-1.57v1.79H100v1.17h1.49v4.38a2.18,2.18,0,0,0,2.48,2.44,3.68,3.68,0,0,0,1.27-.21V65.63a2.65,2.65,0,0,1-1.08.23,1,1,0,0,1-1.1-1.12V60.38Z"/><path class="cls-1" d="M66.65,65.3V62.58H64.43V61.2h3.82v5a6.49,6.49,0,0,1-7.71-.33,5.6,5.6,0,0,1,0-7.81,5.66,5.66,0,0,1,4-1.5,6.73,6.73,0,0,1,3.2.7v1.64a5.88,5.88,0,0,0-3.1-.83,4.13,4.13,0,0,0-2.92,1.06,3.74,3.74,0,0,0-1.11,2.82,3.71,3.71,0,0,0,1.1,2.83,4.16,4.16,0,0,0,3,1A3.66,3.66,0,0,0,66.65,65.3Z"/><path class="cls-1" d="M151.18,67.14V56.69h1.57V67.14Z"/><path class="cls-1" d="M156.32,67.14V56.69h1.56V67.14Z"/><path class="cls-1" d="M134.79,59.15a2.92,2.92,0,0,0-1.79.75,3.47,3.47,0,0,0-.65.73,2.52,2.52,0,0,0-2.66-1.48,3,3,0,0,0-1.79.75,2.87,2.87,0,0,0-.39.39V59.21H126v7.93h1.56V62.88a2.43,2.43,0,0,1,.61-1.78,1.92,1.92,0,0,1,1.35-.61c1.14,0,1.6.85,1.6,1.81v4.84h1.56V62.88a2.39,2.39,0,0,1,.61-1.78,1.88,1.88,0,0,1,1.35-.61c1.13,0,1.59.85,1.59,1.81v4.84h1.56V61.86A2.59,2.59,0,0,0,134.79,59.15Z"/><path class="cls-1" d="M144.42,59.15a5,5,0,0,0-2.51.59v1.35a3.77,3.77,0,0,1,2.2-.63,2,2,0,0,1,1.37.44,1.58,1.58,0,0,1,.46,1.17v.42h-1.5c-3.14,0-3.64,1.58-3.64,2.45a2,2,0,0,0,.75,1.62,3.07,3.07,0,0,0,2,.64h.26a3.23,3.23,0,0,0,2.11-.85v.8h1.57v-5A2.91,2.91,0,0,0,144.42,59.15Zm-.59,6.8a1.89,1.89,0,0,1-1.16-.3,1,1,0,0,1-.4-.84,1,1,0,0,1,.52-.86,2.79,2.79,0,0,1,1.54-.34h1.61v1A2.34,2.34,0,0,1,143.83,66Z"/><path class="cls-1" d="M122.82,63.93c-.14-.83-.69-1.59-2.5-2.41A13.93,13.93,0,0,1,118,60.34a1.13,1.13,0,0,1-.54-1,1.1,1.1,0,0,1,.52-1,2.86,2.86,0,0,1,1.57-.42,5.31,5.31,0,0,1,2.67.66V57a6.3,6.3,0,0,0-2.63-.5c-1.36,0-3.82.55-3.82,2.84a2.56,2.56,0,0,0,1.13,2.18,15.56,15.56,0,0,0,2.31,1.21c.6.28,1.8.8,1.85,1.55s-1,1.45-2.16,1.46a4.94,4.94,0,0,1-3.12-1.22v1.73a5.43,5.43,0,0,0,3.19,1,4.74,4.74,0,0,0,2.84-.78A2.72,2.72,0,0,0,122.82,63.93Z"/><rect class="cls-3" width="175.75" height="113.39"/></g></g></svg>