<svg xmlns="http://www.w3.org/2000/svg" viewBox="0 0 300 40"><defs><style>.cls-1{fill:none;}</style></defs><g id="レイヤー_2" data-name="レイヤー 2"><g id="レイヤー_1-2" data-name="レイヤー 1"><path class="cls-1" d="M161.58,12.75a.76.76,0,1,0,.77.76A.74.74,0,0,0,161.58,12.75Z"/><polygon class="cls-1" points="37.85 30.24 40.02 40 50.01 40 46.99 26.46 37.85 30.24"/><polygon class="cls-1" points="14.23 40 21.91 40 21.26 37.09 14.23 40"/><path class="cls-1" d="M60,21.09l-9.75,4a9,9,0,0,0,.54,1.68,5.7,5.7,0,0,0,7.8,3.35,8.11,8.11,0,0,0,3.11-2.31,8.86,8.86,0,0,0,1.79-3.71,10,10,0,0,0,0-4.55,8.89,8.89,0,0,0-.54-1.69,5.83,5.83,0,0,0-3.21-3.44,5.9,5.9,0,0,0-4.56.16A7.94,7.94,0,0,0,52,16.91a9,9,0,0,0-1.82,3.72A9.59,9.59,0,0,0,50,23.52l9.67-4Z"/><polygon class="cls-1" points="24.5 35.76 25.44 40 36.49 40 34.61 31.57 24.5 35.76"/><path class="cls-1" d="M85.06,0a40.55,40.55,0,0,1,2.48,4l-2.23.92A38.22,38.22,0,0,0,82.09,0h-9.2a4.19,4.19,0,0,0-1.43,1.41,4.74,4.74,0,0,0-.19,3.31l.33,1.49.64,2.86,1.06,4.81L92,6.12l-.84-3,10.72.58L92.46,7.64h0L73.65,15.43l2.58,11.7L73,28.47,70.39,16.78l-1.76.73-.3-1.57L70,15.23,69,10.43l-.64-2.86L68,6.08A8.13,8.13,0,0,1,68.57.24L68.73,0H19.81a39.32,39.32,0,0,0-6.54,34.82l-2.22.92A41.62,41.62,0,0,1,16.85,0H0V40H10.14l10.78-4.46L18,22.25l3.23-1.34L24.16,34.2,34.26,30,31.9,19.44l-6.75,2.8-.59-2.72,16.75-6.95.58,2.72-6.75,2.8,2.36,10.6,9.14-3.78-2-8.88,3.24-1.34.85,3.86A11.11,11.11,0,0,1,51,14.35a10.45,10.45,0,0,1,4.12-3,9.13,9.13,0,0,1,4.43-.73,7.1,7.1,0,0,1,3.84,1.57A9.36,9.36,0,0,1,66,15.91a13.84,13.84,0,0,1,.7,2.3,14.18,14.18,0,0,1,0,6.15,12.59,12.59,0,0,1-2.46,5.23,10.86,10.86,0,0,1-4.39,3.33,8.07,8.07,0,0,1-4.64.61,7.06,7.06,0,0,1-3.6-1.78L53.53,40H86.67a39.17,39.17,0,0,0,2-27l2.23-.93A41.57,41.57,0,0,1,89.3,40H300V0ZM191.82,16.74a24.9,24.9,0,0,1,2.25,5.6l-3.42,1.13a29.76,29.76,0,0,0-2.23-5.75Zm-26.66-3.91h15.52v4H165.16ZM113.62,32.57h-7l4.65-25.09h7ZM141,13h-6.69l-3.62,19.54h-7L127.28,13h-6.62l1-5.55H142Zm17.21,13.12a18.83,18.83,0,0,1-10.33,6.24,21.35,21.35,0,0,0-2.75-4.08c3.6-.83,6.5-2.07,8.57-4.07a10.43,10.43,0,0,0,3.29-6.52H143.47V13.4h15.45v.11a2.64,2.64,0,0,0,2.66,2.64,2.06,2.06,0,0,0,.35,0A17.32,17.32,0,0,1,158.16,26.15Zm3.42-10.53a2.11,2.11,0,1,1,2.12-2.11A2.12,2.12,0,0,1,161.58,15.62Zm17.14,12.63c-2.46,2.37-5.58,3.79-10.05,4.45a17.58,17.58,0,0,0-2.55-4.32,19.71,19.71,0,0,0,7.43-1.94,7.56,7.56,0,0,0,3.6-4H163.31V18.26H182.8C182.38,22.73,181.12,25.94,178.72,28.25Zm8.35-10.49a26.72,26.72,0,0,1,2.35,5.67L186,24.61a32,32,0,0,0-2.36-5.82Zm9.46,10.1c-1.76,2.15-3.79,3.38-8.09,4.86a15.09,15.09,0,0,0-2.53-3.4c4-1.07,6.09-2.08,7.61-3.91s2-3.64,2.34-8.32l4,.82C199.26,23,198.36,25.63,196.53,27.86Zm18.88-.94a32.94,32.94,0,0,0-8.92-4.56v10h-4.75V12.16h4.75v5.6a42,42,0,0,1,11.32,4.93Zm5.34,5.47A20.82,20.82,0,0,0,218,28.31c3.59-.83,6.49-2.07,8.56-4.07a10.4,10.4,0,0,0,3.3-6.52H216.39V13.4H235c-.09,6.15-1.46,9.75-3.9,12.75A18.82,18.82,0,0,1,220.75,32.39Zm30.72-10h-3.2l.06,10.12h-4l0-6.61c-1.64,2.18-3.64,3.64-7,5.32a12.32,12.32,0,0,0-2.44-3.2,14.84,14.84,0,0,0,7.28-5.63h-6.25V18.85h8.34V16.34h4l0,2.51h3.2Zm2-2.24h19.28v4.45H253.43Zm35,12.32c-.28-.72-.54-1.42-.83-2.12-5.38.79-10.11,1.4-15.21,1.85l-.64-4.71c.68,0,1.36-.06,2-.1A107.29,107.29,0,0,0,279,12l4.92.91A96,96,0,0,1,278.72,27c2.36-.2,4.69-.46,7-.79a49.14,49.14,0,0,0-3-5.36l4.23-1.7a56.13,56.13,0,0,1,5.71,11.25Z"/><path d="M66,15.91a9.36,9.36,0,0,0-2.68-3.74,7.1,7.1,0,0,0-3.84-1.57,9.13,9.13,0,0,0-4.43.73,10.45,10.45,0,0,0-4.12,3,11.11,11.11,0,0,0-2.22,4.2l-.85-3.86L44.66,16l2,8.88L37.5,28.69l-2.36-10.6,6.75-2.8-.58-2.72-16.75,7,.59,2.72,6.75-2.8L34.26,30,24.16,34.2,21.22,20.91,18,22.25l2.93,13.29L10.14,40h4.09l7-2.91L21.91,40h3.53l-.94-4.25,10.11-4.18L36.49,40H40l-2.17-9.76L47,26.46,50,40h3.52l-1.85-8.25a7.06,7.06,0,0,0,3.6,1.78,8.07,8.07,0,0,0,4.64-.61,10.86,10.86,0,0,0,4.39-3.33,12.59,12.59,0,0,0,2.46-5.23,14.18,14.18,0,0,0,0-6.15A13.84,13.84,0,0,0,66,15.91Zm-2.58,8.22a8.86,8.86,0,0,1-1.79,3.71,8.11,8.11,0,0,1-3.11,2.31,5.7,5.7,0,0,1-7.8-3.35,9,9,0,0,1-.54-1.68l9.75-4-.3-1.57-9.67,4a9.59,9.59,0,0,1,.21-2.89A9,9,0,0,1,52,16.91a7.94,7.94,0,0,1,3.09-2.3,5.9,5.9,0,0,1,4.56-.16,5.83,5.83,0,0,1,3.21,3.44,8.89,8.89,0,0,1,.54,1.69A10,10,0,0,1,63.46,24.13Z"/><path d="M91.2,3.14l.84,3L73.3,13.88,72.24,9.07,71.6,6.21l-.33-1.49a4.74,4.74,0,0,1,.19-3.31A4.19,4.19,0,0,1,72.89,0H68.73l-.16.24A8.13,8.13,0,0,0,68,6.08l.33,1.49L69,10.43,70,15.23l-1.71.71.3,1.57,1.76-.73L73,28.47l3.23-1.34-2.58-11.7L92.46,7.64h0l9.46-3.92Z"/><path d="M87.54,4a40.55,40.55,0,0,0-2.48-4h-3a38.22,38.22,0,0,1,3.22,4.92Z"/><path d="M11.05,35.74l2.22-.92A39.32,39.32,0,0,1,19.81,0h-3A41.62,41.62,0,0,0,11.05,35.74Z"/><path d="M90.88,12.06,88.65,13a39.17,39.17,0,0,1-2,27H89.3A41.57,41.57,0,0,0,90.88,12.06Z"/><polygon points="106.64 32.57 113.62 32.57 118.27 7.48 111.29 7.48 106.64 32.57"/><polygon points="120.66 13.03 127.28 13.03 123.66 32.57 130.64 32.57 134.25 13.03 140.95 13.03 141.97 7.48 121.69 7.48 120.66 13.03"/><path d="M158.92,13.51V13.4H143.47v4.32h13.47a10.43,10.43,0,0,1-3.29,6.52c-2.07,2-5,3.24-8.57,4.07a21.35,21.35,0,0,1,2.75,4.08,18.83,18.83,0,0,0,10.33-6.24,17.32,17.32,0,0,0,3.77-10,2.06,2.06,0,0,1-.35,0A2.64,2.64,0,0,1,158.92,13.51Z"/><path d="M161.58,11.4a2.11,2.11,0,1,0,2.12,2.11A2.12,2.12,0,0,0,161.58,11.4Zm0,2.87a.76.76,0,1,1,.77-.76A.74.74,0,0,1,161.58,14.27Z"/><path d="M163.31,22.4h13.84a7.56,7.56,0,0,1-3.6,4,19.71,19.71,0,0,1-7.43,1.94,17.58,17.58,0,0,1,2.55,4.32c4.47-.66,7.59-2.08,10.05-4.45s3.66-5.52,4.08-10H163.31Z"/><rect x="165.16" y="12.83" width="15.52" height="4.03"/><path d="M189.42,23.43a26.72,26.72,0,0,0-2.35-5.67l-3.45,1A32,32,0,0,1,186,24.61Z"/><path d="M194.07,22.34a24.9,24.9,0,0,0-2.25-5.6l-3.4,1a29.76,29.76,0,0,1,2.23,5.75Z"/><path d="M193.52,25.41c-1.52,1.83-3.59,2.84-7.61,3.91a15.09,15.09,0,0,1,2.53,3.4c4.3-1.48,6.33-2.71,8.09-4.86s2.73-4.87,3.36-9.95l-4-.82C195.48,21.77,195.05,23.58,193.52,25.41Z"/><path d="M206.49,12.16h-4.75V32.32h4.75v-10a32.94,32.94,0,0,1,8.92,4.56l2.4-4.23a42,42,0,0,0-11.32-4.93Z"/><path d="M216.39,13.4v4.32h13.48a10.4,10.4,0,0,1-3.3,6.52c-2.07,2-5,3.24-8.56,4.07a20.82,20.82,0,0,1,2.74,4.08,18.82,18.82,0,0,0,10.34-6.24c2.44-3,3.81-6.6,3.9-12.75Z"/><path d="M248.24,16.34h-4v2.51h-8.34v3.53h6.25A14.84,14.84,0,0,1,234.88,28a12.32,12.32,0,0,1,2.44,3.2c3.34-1.68,5.34-3.14,7-5.32l0,6.61h4l-.06-10.12h3.2V18.85h-3.2Z"/><rect x="253.43" y="20.14" width="19.27" height="4.45"/><path d="M282.76,20.88a49.14,49.14,0,0,1,3,5.36c-2.35.33-4.68.59-7,.79a96,96,0,0,0,5.21-14.09L279,12a107.29,107.29,0,0,1-5.28,15.35c-.65,0-1.33.08-2,.1l.64,4.71c5.1-.45,9.83-1.06,15.21-1.85.29.7.55,1.4.83,2.12l4.3-2A56.13,56.13,0,0,0,287,19.18Z"/></g></g></svg>