<svg id="itpf_logo" xmlns="http://www.w3.org/2000/svg" xmlns:xlink="http://www.w3.org/1999/xlink" width="105" height="20" viewBox="0 0 105 20">
  <defs>
    <clipPath id="clip-path">
      <rect id="長方形_120" data-name="長方形 120" width="105" height="20" fill="none"/>
    </clipPath>
  </defs>
  <g id="グループ_107" data-name="グループ 107" clip-path="url(#clip-path)">
    <path id="パス_171" data-name="パス 171" d="M123.2,254.319l-1.682,9.179H119l1.682-9.179Z" transform="translate(-84.029 -249.326)" fill="#001d42"/>
    <path id="パス_172" data-name="パス 172" d="M134.66,254.319l-.372,2.032h-2.422l-1.31,7.147h-2.525l1.31-7.147h-2.4l.372-2.032Z" transform="translate(-86.902 -249.326)" fill="#001d42"/>
    <g id="グループ_105" data-name="グループ 105" transform="translate(3.352 -1.666)">
      <g id="グループ_103" data-name="グループ 103" transform="translate(4.747 6.923)">
        <path id="パス_173" data-name="パス 173" d="M79.186,255.836l-1.311,7.447h-.962l1.311-7.447Z" transform="translate(-76.912 -255.121)" fill="#001d42"/>
        <path id="パス_174" data-name="パス 174" d="M86.93,255.836l-.137.759H84.784l-1.163,6.688h-.963l1.163-6.688H81.813l.137-.759Z" transform="translate(-78.684 -255.121)" fill="#001d42"/>
        <path id="パス_175" data-name="パス 175" d="M91.516,257.951a2.823,2.823,0,0,1,1.364-.337,2.484,2.484,0,0,1,1.2.283,1.962,1.962,0,0,1,.809.812,2.583,2.583,0,0,1,.285,1.245,3.771,3.771,0,0,1-.063.663,3.975,3.975,0,0,1-.64,1.581,3.461,3.461,0,0,1-1.173,1.079,2.968,2.968,0,0,1-1.465.385,2.182,2.182,0,0,1-1.242-.336,1.958,1.958,0,0,1-.724-.839l-.666,3.857h-.962l1.5-8.633H90.7l-.19,1.079A3.061,3.061,0,0,1,91.516,257.951Zm2.653,2.174a1.629,1.629,0,0,0-.455-1.223,1.61,1.61,0,0,0-1.173-.443,2.175,2.175,0,0,0-1.025.261,2.438,2.438,0,0,0-.852.759,2.8,2.8,0,0,0-.471,1.148,2.671,2.671,0,0,0-.042.492,1.654,1.654,0,0,0,.46,1.234,1.594,1.594,0,0,0,1.168.454,2.159,2.159,0,0,0,1.031-.262,2.455,2.455,0,0,0,.846-.759,2.811,2.811,0,0,0,.471-1.17A2.668,2.668,0,0,0,94.169,260.125Z" transform="translate(-81.007 -255.751)" fill="#001d42"/>
        <path id="パス_176" data-name="パス 176" d="M101.647,257.836l-.888,5.054H99.8l.877-5.054.138-.8.074-.417a2.251,2.251,0,0,1,.761-1.437,2.7,2.7,0,0,1,1.692-.454l-.138.812a1.467,1.467,0,0,0-.946.251,1.319,1.319,0,0,0-.4.828l-.074.417Z" transform="translate(-85.186 -254.727)" fill="#001d42"/>
      </g>
      <path id="パス_177" data-name="パス 177" d="M86.4,261.611l-16.829-.023-.089.434,16.829.023Z" transform="translate(-69.477 -250.239)" fill="#001d42"/>
      <path id="パス_178" data-name="パス 178" d="M107.107,260.313l-.1.854-7.046,0-.089.434,7.084,0h2.811Z" transform="translate(-80.466 -249.787)" fill="#001d42"/>
      <g id="グループ_104" data-name="グループ 104" transform="translate(2.877)">
        <path id="パス_179" data-name="パス 179" d="M74.646,254.355a10.764,10.764,0,0,1,21.421,0h.662a11.422,11.422,0,0,0-22.745,0Z" transform="translate(-73.984 -243.997)" fill="#001d42"/>
        <path id="パス_180" data-name="パス 180" d="M96.065,263.807a10.764,10.764,0,0,1-21.414,0h-.662a11.422,11.422,0,0,0,22.739,0Z" transform="translate(-73.986 -251.026)" fill="#001d42"/>
      </g>
    </g>
    <g id="グループ_106" data-name="グループ 106" transform="translate(48.297 6.426)">
      <path id="パス_181" data-name="パス 181" d="M145.47,257.313a.96.96,0,0,0,.963.965.692.692,0,0,0,.126-.008,6.4,6.4,0,0,1-1.365,3.668,6.8,6.8,0,0,1-3.741,2.281,7.627,7.627,0,0,0-.994-1.491,6.382,6.382,0,0,0,3.1-1.491,3.82,3.82,0,0,0,1.192-2.384h-4.877v-1.579h5.595Zm1.728,0a.765.765,0,1,1-.765-.773A.776.776,0,0,1,147.2,257.313Zm-1.041,0a.276.276,0,1,0,.276-.279A.271.271,0,0,0,146.157,257.313Z" transform="translate(-139.875 -256.54)" fill="#001d42"/>
      <path id="パス_182" data-name="パス 182" d="M158.178,259.341a5.521,5.521,0,0,1-1.476,3.652,6.2,6.2,0,0,1-3.638,1.627,6.425,6.425,0,0,0-.923-1.579,7.044,7.044,0,0,0,2.691-.71,2.76,2.76,0,0,0,1.3-1.476h-5.011v-1.515Zm-.766-.51h-5.619v-1.475h5.619Z" transform="translate(-143.942 -256.829)" fill="#001d42"/>
      <path id="パス_183" data-name="パス 183" d="M163.889,259.942a9.844,9.844,0,0,1,.852,2.074l-1.247.431a11.864,11.864,0,0,0-.852-2.13Zm4.64.056a6.559,6.559,0,0,1-1.216,3.636,5.709,5.709,0,0,1-2.927,1.778,5.606,5.606,0,0,0-.916-1.244,4.853,4.853,0,0,0,2.754-1.427c.552-.67.71-1.332.844-3.046Zm-2.92-.431a9.23,9.23,0,0,1,.812,2.05l-1.239.415a11.032,11.032,0,0,0-.805-2.105Z" transform="translate(-148.106 -257.614)" fill="#001d42"/>
      <path id="パス_184" data-name="パス 184" d="M174.633,264.348h-1.72v-7.376h1.72v2.049a15.2,15.2,0,0,1,4.1,1.8l-.868,1.547a11.853,11.853,0,0,0-3.228-1.666Z" transform="translate(-151.82 -256.693)" fill="#001d42"/>
      <path id="パス_185" data-name="パス 185" d="M187.949,257.676a7,7,0,0,1-1.412,4.665,6.8,6.8,0,0,1-3.741,2.281,7.626,7.626,0,0,0-.994-1.491,6.38,6.38,0,0,0,3.1-1.491,3.817,3.817,0,0,0,1.192-2.384h-4.877v-1.579Z" transform="translate(-154.823 -256.943)" fill="#001d42"/>
      <path id="パス_186" data-name="パス 186" d="M192.071,261.554v-1.292h3.022v-.917h1.444l.008.917H197.7v1.292h-1.159l.023,3.7h-1.452l-.008-2.416a6.548,6.548,0,0,1-2.526,1.945,4.519,4.519,0,0,0-.883-1.172,5.41,5.41,0,0,0,2.635-2.057Z" transform="translate(-158.613 -257.535)" fill="#001d42"/>
      <path id="パス_187" data-name="パス 187" d="M209.194,263.122h-6.976V261.5h6.976Z" transform="translate(-162.415 -258.299)" fill="#001d42"/>
      <path id="パス_188" data-name="パス 188" d="M218.623,264.37c-.1-.263-.2-.519-.3-.774-1.949.287-3.661.51-5.508.678l-.229-1.723c.245-.008.489-.024.726-.04a39.219,39.219,0,0,0,1.91-5.614l1.784.335a35.865,35.865,0,0,1-1.886,5.152c.852-.072,1.7-.168,2.549-.287a17.671,17.671,0,0,0-1.089-1.962l1.531-.622a20.447,20.447,0,0,1,2.067,4.115Z" transform="translate(-166.164 -256.667)" fill="#001d42"/>
    </g>
  </g>
</svg>
