<svg xmlns="http://www.w3.org/2000/svg" width="55.642" height="59.842" viewBox="0 0 55.642 59.842">
  <g id="kid" transform="translate(-138 -91)">
    <g id="グループ_198" data-name="グループ 198" transform="translate(138 91)">
      <g id="グループ_197" data-name="グループ 197" transform="translate(1.044 0)">
        <path id="パス_208" data-name="パス 208" d="M601.374,548.943c-1.474-3.16-2.664-6.462-4.787-9.249-1.015-1.333-2.71-1.722-4.1-2.49-.653-.361-1.279-.749-1.959-1.06-.87-.4-1.853-.348-2.617-.979a.182.182,0,0,0-.288.057,3.749,3.749,0,0,0-1.222-.243,22.157,22.157,0,0,1-4.834-.626c-1.213-.331-2.765.141-3.945.4a33.3,33.3,0,0,1-4.12.631,7.8,7.8,0,0,0-1.62.184,12.313,12.313,0,0,0-1.573.707,16.572,16.572,0,0,1-2.083.841,4.127,4.127,0,0,0-1.365.6,7.868,7.868,0,0,1-.984.647.216.216,0,0,0-.2.043c-.086.069-.167.137-.251.206a8.965,8.965,0,0,0-2.12,1.4c-2.046,1.987-3.978,3.96-5.038,6.663-.407,1.037-.953,1.96-1.4,2.952a.209.209,0,0,0-.067.1c-.011.043-.024.084-.035.125a9.788,9.788,0,0,0-.38,1.029c-.041.139-.074.278-.112.417a.4.4,0,0,1,.041.027,7.151,7.151,0,0,0-.3,1.471,14.8,14.8,0,0,0,.02,4.055c.489,2.584.073,5.209.624,7.772.12.557.272,1.107.4,1.662.157.685.11,1.381.258,2.061a12.8,12.8,0,0,1,.384,2.022c.037.719-.059,1.451-.055,2.173.007.95.079,1.916.176,2.862.053.516.1,1.318.7,1.482a.224.224,0,0,0,.28-.175.877.877,0,0,0,.284.167c.341.111.524.027.611-.152.385.728.92,1.412,1.559,1.542a.226.226,0,0,0,.165-.028,3.658,3.658,0,0,0,.552,1.2c.631.834,1.354,1.6,2.012,2.415a13.354,13.354,0,0,1,1.114,1.859c.111.048.218.1.325.154a3.241,3.241,0,0,0,.634.623,4.326,4.326,0,0,0,3,.478c.285-.044.188-.478-.095-.435a4.461,4.461,0,0,1-2.512-.294,2.756,2.756,0,0,1-.93-1.01,9.966,9.966,0,0,1-.618-.931.231.231,0,0,0-.234-.158,9.065,9.065,0,0,0-.75-1.063c-.861-1.032-1.87-1.939-2.117-3.313a7.117,7.117,0,0,1-.091-1.688c.026-.434.6-2.4,1.448-1.755a.173.173,0,0,0,.029.014c.1.3.21.593.33.884-1.11.323-.747,2.061-.454,2.884.346.969,1.143,1.666,1.55,2.6a8.273,8.273,0,0,0,1.25,2.143.191.191,0,0,0,.029.132c.117.183.209.307.45.289.175-.012.335-.221.177-.373a5.788,5.788,0,0,1-1.089-1.5,10.171,10.171,0,0,0-.71-1.532,7.568,7.568,0,0,1-1.34-2.188c-.172-.482-.409-1.713.235-2.006a.2.2,0,0,0,.17.154c.139.289.286.576.455.859.41.685.728,1.068,1.27,1.159a.21.21,0,0,0-.155.25,4.434,4.434,0,0,0,.661,1.926c.368.486,1.045.617,1.525,1a.22.22,0,0,0,.256.274l.015,0c.357.907.714,1.811,1.149,2.686.13.262.271.519.415.775a.382.382,0,0,1,.315.433,3.113,3.113,0,0,0-.013.429.437.437,0,0,1,.145-.112,26.081,26.081,0,0,0,1.736,2.465,19.388,19.388,0,0,0,1.745,1.734,18.893,18.893,0,0,0,1.4,1.375,12.523,12.523,0,0,0,3.9,1.775,18.752,18.752,0,0,0,8.937,1.083,13.983,13.983,0,0,0,7.7-3.532,12.973,12.973,0,0,0,4.26-7.066c.309-1.369.452-2.767.772-4.134a14.428,14.428,0,0,0,.414-3.591.319.319,0,0,0,.085,0c1.081-.095,1.707-1.453,1.941-2.343a6.962,6.962,0,0,0,.237-1.988,18.337,18.337,0,0,1,.576-2.862c.081-.6.165-1.206.19-1.808l.139.088a.227.227,0,0,0,.308-.068c.181-.243.346-.159.369-.563.032-.593-.555-1.437-.7-2a6.685,6.685,0,0,1-.155-2.75c.057-.379-.2-.789-.146-1.2s.127-.847.2-1.267a6.476,6.476,0,0,0,.015-2.171c-.139-.815-.2-1.655-.39-2.458A27.765,27.765,0,0,0,601.374,548.943Zm-40.161,27.69a.208.208,0,0,0-.062-.106,9.7,9.7,0,0,1-.534-1.071c-.153-.522-.336-1.021-.454-1.556a.223.223,0,0,0-.435.095,8.865,8.865,0,0,0,.364,1.288c.082.215.134.431.225.641a7.048,7.048,0,0,1,.486.918.227.227,0,0,0,.42.042,6,6,0,0,0,.1.937c-.83-.257-1.547-1.871-1.744-2.577a.233.233,0,0,0-.052-.093c-.01-.37-.007-.742-.047-1.12a13.87,13.87,0,0,1-.3-3.05.187.187,0,0,0-.165-.218c-.037-.968-.154-1.926-.251-2.887a22.259,22.259,0,0,0,.707,2.916c.525,1.6,1.053,3.123,1.722,4.657a.186.186,0,0,0,.143.112A4.655,4.655,0,0,0,561.214,576.632Zm3.437-.158a10.247,10.247,0,0,1-.805-1.59,23.024,23.024,0,0,1-1.037-4.037c-.59-2.714-1.489-5.544-1.365-8.342a.224.224,0,0,0-.232-.231c-.019-.979.024-1.971.005-2.913-.027-1.4.632-2.772.548-4.163a.2.2,0,0,0,.011-.124l-.023-.109a.223.223,0,0,0-.437.094c.192,1.542-.666,3.112-.532,4.68a38.139,38.139,0,0,0,.21,4.857.2.2,0,0,0,.094.136,71.836,71.836,0,0,0,1.624,7.765c.094.432.2.854.318,1.27a.757.757,0,0,0-.376.034l-.021-.095a.2.2,0,0,0-.2-.166,1.54,1.54,0,0,1-.183-.549c-.038-.173-.157-.326-.064-.51.13-.253-.243-.5-.374-.241a1.013,1.013,0,0,0,0,.846,1.689,1.689,0,0,0,.454.92,2.846,2.846,0,0,0-.725.98l0-.015a.2.2,0,0,0-.128-.152,32.54,32.54,0,0,1-2.588-9.115c-.09-.809-.332-1.612-.466-2.416-.145-.87-.18-1.766-.258-2.644a13.97,13.97,0,0,1,.124-2.871,9.784,9.784,0,0,1,.5-2.788c.124-.255-.25-.5-.375-.241a8.077,8.077,0,0,0-.418,1.847,18.567,18.567,0,0,0-.295,2.625,20.915,20.915,0,0,0,.591,5.774c.046.213.087.427.129.641a.186.186,0,0,0-.167.2c.014,2,.467,3.954.383,5.961a.207.207,0,0,0,.152.215,10.927,10.927,0,0,0,.219,1.534c.2.925.053,1.817.254,2.739a.266.266,0,0,0,.024.057c-.024.055-.068.068-.141.005a.479.479,0,0,1-.523.063v0c-.435-.33-.35-1.8-.383-2.26-.091-1.258-.038-2.493-.024-3.753.012-1.035-.419-2.06-.478-3.1a20.7,20.7,0,0,0-.648-3.116c-.473-2.192-.068-4.493-.406-6.721a14.522,14.522,0,0,1-.169-4.282,5.98,5.98,0,0,1,.327-1.888,8.6,8.6,0,0,0,.452-1.421c0-.008,0-.013,0-.021.38-.916.859-1.785,1.306-2.681a19.716,19.716,0,0,1,2.542-4.255,32.4,32.4,0,0,1,2.92-2.937,10.443,10.443,0,0,0-.853,1.105c-.753,1.12-1.3,2.312-2.1,3.41a23.79,23.79,0,0,0-2.178,3.949,32.6,32.6,0,0,0-1.193,3.73.2.2,0,0,0-.024.039q-.1.308-.208.615a.223.223,0,0,0,.424.139c.479-1.221.74-2.476,1.16-3.717a19.01,19.01,0,0,1,2.162-4.19c.71-1.055,1.342-2.058,1.976-3.155a10.7,10.7,0,0,1,2.5-2.9l.307-.124a2.557,2.557,0,0,0,.607-.369,5.221,5.221,0,0,1,1.742-.953,21.972,21.972,0,0,0,3.34-1.383,4.376,4.376,0,0,1,1.639-.324c.825-.1,1.608-.208,2.431-.368,1.349-.262,2.743-.5,4.1-.684,1.669-.229,3.292.493,4.955.581.7.037,1.384.043,2.078.131a4.3,4.3,0,0,1,1.954,1.081,35.9,35.9,0,0,0,3.6,2.317,13.286,13.286,0,0,1,2.345,1.631,8.805,8.805,0,0,1,1.38,2.433,18.143,18.143,0,0,0,1.44,2.122c.568.887.839,1.968,1.365,2.884a14.009,14.009,0,0,1,1.264,3.041c.305,1.051.645,2.134.876,3.2a22.316,22.316,0,0,1,.4,3.2c.061.875.2,1.728.172,2.6a.207.207,0,0,0-.036.172,1.277,1.277,0,0,1,.022.147c-.01.134-.024.27-.045.406a.186.186,0,0,0,.032.14v.005c-.016.3.178.575.135.883-.038.277-.084.537-.107.8a.2.2,0,0,0-.081.215h0a2.393,2.393,0,0,0-.68-.044,13.16,13.16,0,0,0-.117-1.373c-.177-1.237-.247-2.486-.452-3.711-.085-.517.161-.957.1-1.455-.092-.692-.1-1.4-.181-2.091a30.82,30.82,0,0,0-.913-3.766.223.223,0,0,0-.435.095c.272,1.143.678,2.245.866,3.409a17.226,17.226,0,0,1,.1,3.5,29.549,29.549,0,0,0,.491,4.579.219.219,0,0,0-.13.172c-.01.063-.014.121-.017.179a1.6,1.6,0,0,1-.177-.816c.106-1.146-.633-2.229-.61-3.386.049-2.608-.753-5.206-1.3-7.731a30.973,30.973,0,0,0-2.505-6.185c-.446-.991-.4-2.125-1.053-3.043a4.115,4.115,0,0,0-1.788-1.563c-.271-.1-.406.324-.139.424,2.113.788,2.146,3.548,3.021,5.29a26.568,26.568,0,0,1,1.549,3.307,32.314,32.314,0,0,1,.848,3.563c.244,1.126.512,2.251.718,3.385.2,1.1.122,2.2.24,3.294a8.3,8.3,0,0,0,.366,1.387,7.666,7.666,0,0,1,.205,1.73,1.775,1.775,0,0,0,.25.631,5.643,5.643,0,0,1,.4,1.721.187.187,0,0,0,.19.164.2.2,0,0,0,.142.109c-.029.292-.071.584-.083.829a11.751,11.751,0,0,1-.275,2.134c-.135.57-.062,1.058-.182,1.585-.145-1.247-.291-2.494-.431-3.742a57.072,57.072,0,0,0-1.127-5.714.227.227,0,0,0-.322-.149c-.226.084-.259.235-.29.45a.2.2,0,0,0,.268.217c.51,2.323,1.045,4.668,1.327,7.033-.01,0-.019,0-.027,0l-.218.048a.225.225,0,0,0-.071.4c-.109.242-.218.36-.318-.093-.135-.625-.249-1.265-.4-1.891a.214.214,0,0,0,.051-.085,2.657,2.657,0,0,0-.169-1.447c-.268-1.055-.367-2.216-.6-3.292-.214-.98-.533-1.927-.723-2.921-.239-1.241-.458-2.486-.72-3.722-.217-1.017-.442-2.033-.663-3.049-.232-1.074-.641-2.032-.914-3.081a9.438,9.438,0,0,0-2.392-4.642c-.212-.19-.542.11-.328.3,1.317,1.174,1.961,3.2,2.39,4.839.207.794.558,1.518.734,2.332l.657,3.021c.436,2.006.681,4.074,1.22,6.055.264.972.516,1.932.731,2.921a11.224,11.224,0,0,1,.154,1.142,4.28,4.28,0,0,1-.509-1.355,3.041,3.041,0,0,0-.646-1.624.157.157,0,0,0-.041-.028c-.382-1.38-.607-2.8-1.049-4.163a46.363,46.363,0,0,1-1.125-4.567.233.233,0,0,0,.118-.368,6.09,6.09,0,0,1-.677-2.434,18.623,18.623,0,0,0-.77-2.269,13.651,13.651,0,0,0-.71-1.836c-.4-.873-1.284-1.546-1.591-2.453-.091-.269-.527-.178-.435.094a8.433,8.433,0,0,0,1.285,2.006,8.715,8.715,0,0,1,1.114,2.6,18.743,18.743,0,0,1,.79,2.672,5.222,5.222,0,0,0,.483,1.642.2.2,0,0,0-.089.224c.325,1.5.679,2.967,1.08,4.441.418,1.534.727,3.113,1.183,4.641-.1.212-.2.427-.314.634-.085.152-.17.184-.253.153-.224-1.151-.391-2.311-.647-3.457-.284-1.276-.813-2.429-1.166-3.678a46.1,46.1,0,0,0-2.241-6.73c-.12-.261-.514-.053-.4.207a20,20,0,0,1,1.181,3.379c.119.471.34.74.494,1.215.215.663.355,1.35.525,2.024.286,1.127.8,2.171,1.08,3.3.213.858.36,1.725.51,2.593a12.985,12.985,0,0,1-.908-2.367.273.273,0,0,0-.039-.086c-.02-.151-.046-.3-.079-.458a2.365,2.365,0,0,0-.4-1.169c-.184-.22-.513.082-.327.3a1.9,1.9,0,0,1,.291.961,3.115,3.115,0,0,1,.072,1.237.234.234,0,0,0,.112.25c.014.317.022.634.023.92l-.106.474a.835.835,0,0,1-1,.6,2.383,2.383,0,0,1,0-.835,4.464,4.464,0,0,0,.052-2.346,6.036,6.036,0,0,0-.065-2.021,16.829,16.829,0,0,1-.89-4.437.224.224,0,0,0-.446-.025,16.274,16.274,0,0,0,.7,3.786,6.944,6.944,0,0,1,.36,2.367c-.009.079-.019.154-.028.23a.217.217,0,0,0-.06.08,8.52,8.52,0,0,0-.22,1.586,6.877,6.877,0,0,1-.578,1.732,5.2,5.2,0,0,0-.217-1.487,12.084,12.084,0,0,0,.419-1.748c.1-1.014-.084-1.959-.068-2.955.005-.287-.44-.312-.445-.025-.016.989.118,1.956.068,2.955a5.045,5.045,0,0,1-.252,1.206,24.631,24.631,0,0,0-.8-6.281c-.627-2.193-1.027-4.97-2.773-6.584-.211-.193-.541.106-.328.3,1.687,1.559,2.032,4.259,2.665,6.377a23.146,23.146,0,0,1,.791,6.169.255.255,0,0,0-.045.11,16.375,16.375,0,0,1-.1,3.025.275.275,0,0,0-.022.032c-.014.005-.029.007-.044.012a.178.178,0,0,0-.082.289,1.211,1.211,0,0,1-.131.182,39.366,39.366,0,0,1-.346-5.729,17.341,17.341,0,0,0-.525-2.978,10.235,10.235,0,0,0-.607-2.757c-.141-.25-.537-.044-.4.207a4.015,4.015,0,0,1,.312,1.469c.079.524.228,1.049.34,1.568a11.493,11.493,0,0,1,.431,2.994,23.422,23.422,0,0,0,.33,5.192.186.186,0,0,0,0,.043l.047.218a.216.216,0,0,0,.028.064l-.013.009c-.171-.768-.356-1.534-.467-2.312a2.157,2.157,0,0,0-.583-1.392c-.2-1.733-.284-3.486-.653-5.183a27.78,27.78,0,0,0-1.066-2.888,13.051,13.051,0,0,0-.935-2.611c-.147-.245-.543-.04-.4.207a14.72,14.72,0,0,1,1.013,2.856,24.4,24.4,0,0,1,.949,2.53,26.339,26.339,0,0,1,.338,3.135c.072.728.183,1.455.3,2.179a18.187,18.187,0,0,0-.044,2.514.224.224,0,0,0-.019.305l0,.021a.23.23,0,0,0-.034.251,1.405,1.405,0,0,1-.323.758,31.214,31.214,0,0,0-.12-4.251,27.7,27.7,0,0,0-.557-2.817,11.057,11.057,0,0,1-.6-3.231c.031-.286-.416-.309-.446-.024a6.991,6.991,0,0,0,.355,2.193l.617,2.837a22.262,22.262,0,0,1,.3,5.324c-.029-.5-.065-1-.068-1.489a14.736,14.736,0,0,0-.517-3.024.223.223,0,0,0-.435.095,11.76,11.76,0,0,1,.264,2.989,3.43,3.43,0,0,1-.114.7.723.723,0,0,1-.065.163.211.211,0,0,0-.031.052.2.2,0,0,0-.031.037.506.506,0,0,1-.056.069c-.423-2.266-.3-4.577-.68-6.838a19.746,19.746,0,0,0-2.215-6.4c-.14-.251-.536-.045-.4.207a20.208,20.208,0,0,1,2.233,6.639c.345,2.072.232,4.193.586,6.278a.226.226,0,0,0,0,.1l.016.075a.6.6,0,0,1-.1-.063.217.217,0,0,0-.153-.166.8.8,0,0,1-.12-.264c-.184-.735-.471-1.425-.655-2.164-.073-.555,0-1.133-.062-1.691a48,48,0,0,0-1.135-4.828.22.22,0,0,0-.044-.094,31.634,31.634,0,0,0-2.283-6.143,17.185,17.185,0,0,0-1.628-2.371,11.148,11.148,0,0,0-.989-1.268c-.323-.328-.735-.483-1.056-.8-.205-.2-.535.1-.328.3a11.819,11.819,0,0,1,1.642,1.525,17.368,17.368,0,0,1,1.794,2.476,38.557,38.557,0,0,1,2.551,6.9.271.271,0,0,0,.015.032c.286,1.223.636,2.43.9,3.655a14.142,14.142,0,0,1,.155,2.142.34.34,0,0,0-.014.039,6.011,6.011,0,0,0,.071,1.734,4.213,4.213,0,0,1,.021.721.256.256,0,0,0-.031.26,2.3,2.3,0,0,1-.2.67c-.009.018-.017.031-.026.046-.512-2.62-.7-5.278-1.268-7.887a20.181,20.181,0,0,0-.782-3.444,31.988,31.988,0,0,1-1.775-3.6c-.077-.275-.513-.182-.435.095a10.017,10.017,0,0,0,1.309,2.742c.813,1.219.942,2.895,1.248,4.306.551,2.538.745,5.124,1.228,7.679a.2.2,0,0,0,0,.076l.055.254a1.926,1.926,0,0,1-.4-.812c-.5-1.9-1.049-3.762-1.469-5.692a30.8,30.8,0,0,0-1.641-5.324.182.182,0,0,0-.049-.213c-.028-.027-.051-.058-.077-.088a4.563,4.563,0,0,0-.325-.591,4.021,4.021,0,0,0-.339-.758,10.767,10.767,0,0,1-.759-2.254,3.763,3.763,0,0,0-1.392-2.111c-.239-.159-.48.216-.241.375,1.064.7,1.444,2.4,1.749,3.564a12.425,12.425,0,0,1-2.307-2.638.223.223,0,0,0-.4.207c.033.06.073.113.108.172a.221.221,0,0,0-.246.137,16.984,16.984,0,0,0-.876,5.083c-.062.919.331,1.838.361,2.761a16.589,16.589,0,0,0,.265,2.684c.363,1.863.376,3.793.581,5.681-.29-1.022-.59-2.04-.817-3.081a12.969,12.969,0,0,1-.39-2.676c-.005-.686.1-1.375.046-2.058-.025-.285-.459-.188-.435.095.065.764-.058,1.575-.052,2.346a10.144,10.144,0,0,0,.322,2.044c.36,1.678.894,3.3,1.306,4.963a.223.223,0,0,0,.033.069.572.572,0,0,1-.746-.219,15.2,15.2,0,0,0-.58-2.166c-.3-1.459-.368-2.893-.67-4.361a7.744,7.744,0,0,1-.133-2.672,25.728,25.728,0,0,1,.26-2.729,8.526,8.526,0,0,0,.038-1.612,14.662,14.662,0,0,1,.266-2.511c.286-1.461.81-2.814,1.164-4.247.069-.278-.355-.418-.423-.139-.385,1.555-.925,3.024-1.234,4.6a27.332,27.332,0,0,0-.316,4.115c-.073,1.652-.475,3.281-.139,4.914.315,1.529.421,3.021.715,4.54a.2.2,0,0,0,0,.062,9.445,9.445,0,0,0,.528,2.15,4.946,4.946,0,0,1,.069.77c0,.643-.745-.351-.749-.359a3.617,3.617,0,0,1-.215-.483c-.028-.128-.062-.255-.1-.38a.216.216,0,0,0,.009-.117c-.926-4.262-1.678-8.49-.974-12.843.046-.285-.4-.305-.445-.025a32.083,32.083,0,0,0,.735,11.8.2.2,0,0,0-.073.209c.053.247.148.728.3,1.229a6.53,6.53,0,0,1,.161,1.07c.045.864-.881-.47-.969-.627a7.2,7.2,0,0,1-.461-1.917.2.2,0,0,0-.253-.166c-.13-.669-.079-1.355-.219-2.013a40.208,40.208,0,0,1-.737-4.1,39.5,39.5,0,0,1-.133-4.809c.024-1.423.254-2.824.284-4.246.005-.287-.44-.311-.446-.024-.028,1.422-.256,2.823-.283,4.245-.027,1.5-.007,2.987.1,4.485.093,1.254.4,2.52.611,3.76.109.634.169,1.258.224,1.9a17.2,17.2,0,0,1,.388,2.493.209.209,0,0,0,.205.227c.028.2.062.409.109.619q.249.645-.559.337a3.551,3.551,0,0,1-.225-.685c-.117-.459-.362-.869-.5-1.328-.691-2.306-1.053-4.761-1.564-7.112a.223.223,0,0,0-.435.095,23.884,23.884,0,0,1-.082,3.122,17.218,17.218,0,0,0,.271,3c.223,1.155.372,2.364.548,3.53a.862.862,0,0,1,.012.163c-.036.036-.069.073-.1.109a2.43,2.43,0,0,1-.512-.715,8.573,8.573,0,0,1-.259-1.238c-.057-.323-.119-.645-.182-.966-.055-.46-.1-.922-.141-1.388-.072-.976-.151-1.94-.262-2.912-.15-1.317.185-2.608-.01-3.912a.224.224,0,0,0-.4-.074,3.864,3.864,0,0,0-.253,2.254c.167,1.386.109,2.808.277,4.2.086.721.22,1.452.368,2.178.04.428.086.853.145,1.279s.142.84.227,1.258a.737.737,0,0,1-.2.671l-.083-.383a.206.206,0,0,0-.226-.166,9.7,9.7,0,0,1-.252-.985c-.156-.678-.293-1.361-.447-2.04s-.327-1.352-.44-2.043a12.441,12.441,0,0,1,.044-2.516,29.524,29.524,0,0,0-.184-3.685A19.339,19.339,0,0,1,567,552.4c.039-.286-.406-.308-.445-.025a13.41,13.41,0,0,0-.259,4.157,20.835,20.835,0,0,1,.18,4.813,14.463,14.463,0,0,0,.541,4.221c.2.854.267,2.611.943,3.275a.616.616,0,0,1-.6-.332,10.142,10.142,0,0,1-.7-1.954c-.381-1.231-.719-2.459-1.018-3.7-.1-.419-.2-.837-.288-1.258a.223.223,0,0,0-.435.095c.336,1.547.613,3.123,1.021,4.653a7.729,7.729,0,0,1,.612,3.179c-.022-.036-.048-.076-.083-.131a.231.231,0,0,0-.1-.083c-.308-.872-.5-1.835-.754-2.705-.334-1.156-.494-2.359-.741-3.534a25.787,25.787,0,0,1-.364-2.729,19.7,19.7,0,0,1,.048-2.047,4.111,4.111,0,0,1,.183-1.468.184.184,0,0,0-.014-.18.231.231,0,0,0-.023-.1c-.212-.425.094-1.1.161-1.529.1-.649.115-1.3.234-1.948a12.934,12.934,0,0,1,.273-1.739,11.979,11.979,0,0,0,.435-1.776,11.716,11.716,0,0,1,1.339-4.068,5.015,5.015,0,0,1,1.233-1.457c.475-.4.69-.968,1.265-1.279a.223.223,0,0,0-.207-.4,2.862,2.862,0,0,0-.914.821c-.4.507-1.116.9-1.428,1.458a12.553,12.553,0,0,0-1.6,3.928c-.268,1.5-.581,2.981-.84,4.484-.144.837-.159,1.675-.355,2.507a1.457,1.457,0,0,0,0,1.186,17.226,17.226,0,0,0-.288,2.754c-.206,1.048.3,2.269.373,3.316a22.064,22.064,0,0,0,.792,3.891,23.854,23.854,0,0,0,.934,3.192,2.557,2.557,0,0,1-.7-.874,13.341,13.341,0,0,1-.511-1.522c-.132-.419-.285-.834-.446-1.243a16.62,16.62,0,0,1-.728-2.7.205.205,0,0,0-.113-.149c-.223-1.515-.189-3-.336-4.543-.111-1.163.1-2.318.034-3.483a4.034,4.034,0,0,1,.41-2.348c.192-.211-.108-.542-.3-.328-.41.456-.375,1.14-.528,1.71a4.514,4.514,0,0,0,0,1.328,16.6,16.6,0,0,1-.089,1.975c-.022.324-.021.649-.012.975a.2.2,0,0,0-.063.1,18.517,18.517,0,0,0-.466,4.261,15.763,15.763,0,0,0,.205,4.567c.429,1.685,1.161,3.3,1.451,5.008a8,8,0,0,0,.6,2.144,21.144,21.144,0,0,1,1.271,2.477.227.227,0,0,0,.193.16C565.316,577.458,565.077,577.134,564.651,576.474Zm26.378-15.232c.038.47.037.951.093,1.317l-.129.012-.01,0-.088.011a6.585,6.585,0,0,0,.055-1.315A.229.229,0,0,0,591.029,561.242Zm-2.206-.046c.043.252.065.508.109.749.029.168.069.335.1.5a.815.815,0,0,0-.412-.056c-.011-.363-.036-.733-.048-1.08A.246.246,0,0,0,588.823,561.2Zm-3.758,1.989a.483.483,0,0,0-.164-.043c0-.217-.021-.438-.041-.659a.2.2,0,0,0,.059-.031,2.467,2.467,0,0,1,.076.31C585.018,562.9,585.037,563.045,585.065,563.186ZM569.872,566.6a8.172,8.172,0,0,1-.179-1.448c-.076-.893-.283-1.76-.352-2.656a16.045,16.045,0,0,1,.052-2.289l.777,3.576a16.882,16.882,0,0,0,.864,3.041.2.2,0,0,0-.049.007.768.768,0,0,0-.516.391c-.129.1-.263.205-.393.311A7.673,7.673,0,0,0,569.872,566.6Zm-6.5-2.191c.158,1.838.068,3.679.251,5.5-.165-.426-.333-.851-.457-1.29a14.509,14.509,0,0,1-.476-4.868,14.983,14.983,0,0,1,.2-2.5l0-.02v.033a13.774,13.774,0,0,0,.427,3.049A.222.222,0,0,0,563.376,564.412Zm1.206,8.3c.163.747.484,1.4.691,2.131.071.248.149.494.23.74a8.072,8.072,0,0,1-1.031-2.359c-.106-.53-.181-1.062-.295-1.588a.206.206,0,0,0,.057-.032A6.768,6.768,0,0,1,564.582,572.71ZM566.733,580c-.731-.372-.782-1.3-.926-2.01a.2.2,0,0,0-.091-.135,2.654,2.654,0,0,0,.65-.062c.238.554.48,1.105.718,1.651.139.316.268.636.4.957C567.245,580.26,566.993,580.138,566.733,580Zm33.349-2.055c-.218,1.421-.549,2.839-.8,4.258a14.346,14.346,0,0,1-1.462,4.534,13.863,13.863,0,0,1-7.86,6.2,21.471,21.471,0,0,1-4.684.733,15.662,15.662,0,0,1-5.056-.791,21.024,21.024,0,0,1-4.44-1.617,18.308,18.308,0,0,1-3.583-3.3c-2.39-2.416-3.394-5.7-4.72-8.723a37.775,37.775,0,0,1-1.872-4.859c-.211-.744-.517-1.435-.683-2.2a5.853,5.853,0,0,0-.8-1.788,44.019,44.019,0,0,1-.23-4.539c.278.9.582,1.787.88,2.7.235.722.647,1.967,1.625,1.748.7-.156.715-.953.6-1.655a1.227,1.227,0,0,0,1.3.744,2.859,2.859,0,0,0-.708.567c-.188.213.11.544.3.328a6.084,6.084,0,0,1,1.756-1.12c.63-.352,1.288-.7,1.891-1.095a.231.231,0,0,0,.093-.26l.04-.017a.667.667,0,0,0,.84-.083.213.213,0,0,0,.084-.022.3.3,0,0,0,.154-.172.116.116,0,0,1,.02-.01l.1-.022a.207.207,0,0,0,.145-.108c.261.284.6.537.9.34a.785.785,0,0,0,.326-.53.771.771,0,0,0,.769.331.757.757,0,0,0,.584-.745,1.361,1.361,0,0,0,.717.262c1.367.107.414-2.664.373-3.227-.089-1.225-.247-2.446-.328-3.674a31.087,31.087,0,0,1-.442-3.821c.065-1.189-.426-2.286-.3-3.493a16.076,16.076,0,0,1,.788-4.23,10.829,10.829,0,0,0,1.725,1.954,8.029,8.029,0,0,1,2.313,3.918c.345,1.192.757,2.388,1.02,3.6a35.968,35.968,0,0,0,1.078,4.324c.127.361.532,3.122,1.5,2.6a1.5,1.5,0,0,0,.775-1.015.248.248,0,0,0,.239.1.293.293,0,0,0,.281-.21c.013.016.024.033.039.049a.825.825,0,0,0,.9.212.2.2,0,0,0,.1.032c.132,0,.211.019.309-.089a.247.247,0,0,0,.067-.212h0a.217.217,0,0,0,.151-.139l0,0c.014.214.031.429.04.647a.227.227,0,0,0,.211.235,1.549,1.549,0,0,0,.175,0l.017.082a.223.223,0,0,0,.44-.035c0-.038,0-.078,0-.116a1.136,1.136,0,0,0,.729-.893.2.2,0,0,0,.165.031,3.178,3.178,0,0,1,.59-.075c.023.1.047.208.07.312a.224.224,0,0,0,.265.17,1.652,1.652,0,0,0,.974-.689c.012,0,.021.005.033.005l.038,0a.236.236,0,0,0,.067.033,2.422,2.422,0,0,0,1.32.049c.085.008.171.014.234.017a.2.2,0,0,0,.181.044l.073-.016a.21.21,0,0,0,.128-.088,4.174,4.174,0,0,0,1.266.154c.119.039.239.079.359.131.2.089.367-.193.254-.345a.181.181,0,0,0-.147-.224c-.129-.027-.259-.05-.39-.073a1.122,1.122,0,0,0-.127-.048,4.614,4.614,0,0,0-1.182-.367c-.237-.036-.475-.053-.711-.069-.132-.015-.265-.027-.4-.033.139-.3.384-.7.588-1.094.045.394.2.681.561.731,1.091.153,1.4-.914,1.448-1.976a9.083,9.083,0,0,0,.967,1.876l.143.294a.222.222,0,0,0,.277.159c.3.124.6-.219.813-.589a.163.163,0,0,0,.1.037.2.2,0,0,0,.252.073,9.435,9.435,0,0,1,.258,1.319,4.291,4.291,0,0,0,.627,1.293,9.17,9.17,0,0,1,.778,3.323c.036.33.261.726.649.641.312-.068.42-.31.487-.578.013.153.031.307.042.46C599.812,571.648,600.566,574.821,600.082,577.95Zm3.085-10.719c-.1.632-.087,1.3-.188,1.941-.069.441-.439.953-.457,1.392a14.235,14.235,0,0,1-.056,1.672c-.148.913-.462,2.608-1.562,2.895a.2.2,0,0,0-.228-.063c-.01-.122-.016-.244-.029-.367-.162-1.576-.339-3.147-.519-4.717a.222.222,0,0,0,.051-.058,1.276,1.276,0,0,0,.2-.435,4.279,4.279,0,0,0,.163-.557c.091.223.211.445.337.69a1.985,1.985,0,0,1,.008,1.7,6.771,6.771,0,0,1-.222.914c-.139.25.236.493.375.241.153-.277.095-.315.159-.644a8.851,8.851,0,0,0,.319-1.1,2.758,2.758,0,0,0-.121-1.028c-.194-.641-.718-1.03-.553-1.793a.23.23,0,0,0-.117-.253c.036-.373.069-.747.128-1.116.112-.7.094-1.432.143-2.141a1.62,1.62,0,0,0,0-.218.181.181,0,0,0,.235.108c1.127-.357,1,3.5.566,4.049-.165.21.152.434.338.285l.26-.208a.2.2,0,0,0-.006-.316c.068-.295.068-.615.109-.907a5.226,5.226,0,0,0-.037-2.03c-.14-.553-.611-1.534-1.325-1.309a.221.221,0,0,0-.152.166,4.116,4.116,0,0,0-.074-.407c0-.147,0-.3,0-.447a1.7,1.7,0,0,1,.8.1.2.2,0,0,0,.214.1,3.334,3.334,0,0,1,1.342,2.223A4.163,4.163,0,0,1,603.167,567.232Zm.836-1.082c-.041.022-.051.046-.05.069l-.021-.014a.2.2,0,0,0-.192-.019,5.106,5.106,0,0,0-.2-1.388.181.181,0,0,0,.05-.031c.071.208.148.415.239.617C603.9,565.538,604.151,566.071,604,566.149Zm-.757-9.711a6.907,6.907,0,0,1-.009,2.718,8.2,8.2,0,0,0-.124,1.017,10.449,10.449,0,0,1,.037-1.6,9.059,9.059,0,0,0-.865-4.952c-.128-.258-.523-.05-.4.207,1.516,3.067.409,6.539,1.043,9.763a2.473,2.473,0,0,0-.831-.644,2.784,2.784,0,0,1,.023-.679,2.34,2.34,0,0,0,.108-.706c-.093-.428-.081-.84-.138-1.259a25.935,25.935,0,0,0-.242-4,15.126,15.126,0,0,0-.231-1.758c-.172-.87-.515-1.668-.7-2.52a16.652,16.652,0,0,0-1.4-3.937,26.913,26.913,0,0,0-1.937-3.794,10.881,10.881,0,0,1-1.192-1.859,12.323,12.323,0,0,0-.906-1.7,8.366,8.366,0,0,0-2.828-2.221,30.84,30.84,0,0,1-3.651-2.373l.074.017a8.354,8.354,0,0,1,2.542,1.051c1.468.848,3.164,1.321,4.406,2.516a24.745,24.745,0,0,1,1.468,2.09,8.59,8.59,0,0,1,1.147,2.21c.69,1.6,1.434,3.168,2.164,4.752a34.83,34.83,0,0,1,2.118,5.522C603.113,554.994,603.093,555.736,603.246,556.438Z" transform="translate(-555.89 -534.239)" fill="#001d42"/>
        <path id="パス_209" data-name="パス 209" d="M595.206,553.763a21.6,21.6,0,0,1-.858-2.839,20.479,20.479,0,0,0-2.091-6.429,25.2,25.2,0,0,0-1.5-2.5,4.232,4.232,0,0,0-.732-.84c-.445-.339-.679-.84-1.1-1.169a16.645,16.645,0,0,1-2.438-1.97,12.384,12.384,0,0,0-2.177-2.158c-.236-.167-.476.21-.241.374a13.208,13.208,0,0,1,2.09,2.085,19.127,19.127,0,0,0,1.9,1.564c.667.571,1.3,1.22,1.913,1.852a15.332,15.332,0,0,1,1.885,2.971,21.31,21.31,0,0,1,2.132,6.7,8.633,8.633,0,0,0,.659,2.2,12.2,12.2,0,0,1,.855,3.339.223.223,0,0,0,.158.408l.145-.032a.225.225,0,0,0,.17-.265A22.375,22.375,0,0,0,595.206,553.763Z" transform="translate(-553.329 -534.095)" fill="#001d42"/>
        <path id="パス_210" data-name="パス 210" d="M559.865,552.241a31.369,31.369,0,0,0-.93,8.869,29.022,29.022,0,0,0,.878,4.334c.328,1.511.75,2.977,1.123,4.472.07.278.505.184.437-.095-.66-2.646-1.3-5.286-1.881-7.956a13.834,13.834,0,0,1,.048-4.587c.232-1.643.361-3.275.749-4.9C560.355,552.1,559.931,551.961,559.865,552.241Z" transform="translate(-555.615 -532.612)" fill="#001d42"/>
        <path id="パス_211" data-name="パス 211" d="M566.944,538.565c-2.311,1.527-3.65,3.887-5.222,6.084a21.294,21.294,0,0,0-1.89,3.187,17.836,17.836,0,0,0-.867,3.972c-.062.276.347.419.423.139a2.506,2.506,0,0,1,.208-.617.179.179,0,0,0-.053-.227,14.411,14.411,0,0,1,.554-2.763,14.783,14.783,0,0,1,1.808-3.181c1.537-2.221,2.94-4.677,5.245-6.2C567.388,538.8,567.184,538.406,566.944,538.565Z" transform="translate(-555.61 -533.848)" fill="#001d42"/>
        <path id="パス_212" data-name="パス 212" d="M572.275,537.36a14.777,14.777,0,0,0-4.491,2.044,10.306,10.306,0,0,0-3.163,3.328,29.623,29.623,0,0,0-3.845,8.772.2.2,0,0,0-.2.2.676.676,0,0,0,.1.442.225.225,0,0,0,.409-.034,30.551,30.551,0,0,1,3.529-8.525,11.29,11.29,0,0,1,3.384-3.787,13.287,13.287,0,0,1,4.379-2A.223.223,0,0,0,572.275,537.36Z" transform="translate(-555.463 -533.955)" fill="#001d42"/>
        <path id="パス_213" data-name="パス 213" d="M572.047,536.231a11.261,11.261,0,0,0-4.318,1.653c-.234.167.07.493.3.328a10.785,10.785,0,0,1,4.112-1.546A.223.223,0,0,0,572.047,536.231Z" transform="translate(-554.818 -534.058)" fill="#001d42"/>
        <path id="パス_214" data-name="パス 214" d="M589.28,546.384c-.116-.234-.135-.5-.253-.743a7.188,7.188,0,0,1-.668-1.277,5.841,5.841,0,0,0-1.207-1.912,17.354,17.354,0,0,0-1.626-2.321c-.8-.745-1.669-1.457-2.443-2.222a9.813,9.813,0,0,0-1.627-1.247,8.177,8.177,0,0,0-2.587-.741,10.457,10.457,0,0,0-2.681-.082,25.533,25.533,0,0,1-2.817.156c-.287-.025-.31.42-.024.445,1.674.147,3.376-.4,5.064-.155a8.173,8.173,0,0,1,2.8.752,15.51,15.51,0,0,1,2.043,1.65c.644.585,1.3,1.151,1.94,1.745a15.473,15.473,0,0,1,1.626,2.321c.273.368.554.709.8,1.1s.289.818.542,1.186c.391.564.447,1.283.872,1.8a.224.224,0,0,0,.382-.2l-.024-.109A.2.2,0,0,0,589.28,546.384Z" transform="translate(-554.317 -534.097)" fill="#001d42"/>
        <path id="パス_215" data-name="パス 215" d="M589.151,542.323a.216.216,0,0,0-.119-.106c-.92-1.207-2.331-1.961-3.231-3.193a5.2,5.2,0,0,0-1.35-1.329c-.445-.291-.793-1.091-1.37-1.212-.357-.074-.534-.379-.862-.445a7.4,7.4,0,0,1-1.927-.686c-.955-.492-2.4.236-3.263-.318a.223.223,0,0,0-.241.374,3.626,3.626,0,0,0,2.122.182,3.76,3.76,0,0,1,1.671.477c.558.271,1.4.258,1.827.7a.245.245,0,0,0,.152.072,1.808,1.808,0,0,1,1.126.746c.47.576,1.156.927,1.626,1.521.969,1.222,2.4,2.086,3.333,3.329a.181.181,0,0,0,.175.22.22.22,0,0,0,.366-.238C589.173,542.384,589.162,542.354,589.151,542.323Z" transform="translate(-553.993 -534.17)" fill="#001d42"/>
        <path id="パス_216" data-name="パス 216" d="M571.636,538.808a12.155,12.155,0,0,0-3.049,1.469,9.592,9.592,0,0,0-2.6,2.438c-1.654,2.057-2.126,4.531-3.367,6.787-.138.25.217.486.374.241l.085-.132a.194.194,0,0,0,.034-.106c.967-1.874,1.368-4.044,2.66-5.752a14.881,14.881,0,0,1,2.427-2.664,9.032,9.032,0,0,1,1.854-1.063,8.433,8.433,0,0,1,1.675-.784A.223.223,0,0,0,571.636,538.808Z" transform="translate(-555.279 -533.823)" fill="#001d42"/>
        <path id="パス_217" data-name="パス 217" d="M572.5,540.653a8.074,8.074,0,0,0-3.814,3.217,23.551,23.551,0,0,0-1.3,2.786,8.947,8.947,0,0,0-.708,2.845c-.039.286.406.307.446.024a9.769,9.769,0,0,1,.513-2.354c.3-.764.7-1.5,1.012-2.262a7.366,7.366,0,0,1,3.949-3.819C572.863,541,572.772,540.562,572.5,540.653Z" transform="translate(-554.907 -533.655)" fill="#001d42"/>
        <path id="パス_218" data-name="パス 218" d="M571.34,542.885A10.56,10.56,0,0,0,568,548.1a16.132,16.132,0,0,0-.244,3.222,14.221,14.221,0,0,0,.014,3.486c.05.284.486.188.437-.094a11.408,11.408,0,0,1-.035-3.037c.093-1.032-.014-2.093.178-3.111a9.666,9.666,0,0,1,3.29-5.351C571.859,543.024,571.557,542.7,571.34,542.885Z" transform="translate(-554.817 -533.456)" fill="#001d42"/>
        <path id="パス_219" data-name="パス 219" d="M573.718,542.564a6.6,6.6,0,0,0-2.159,3.628,42.216,42.216,0,0,0-.792,4.791.223.223,0,0,0,.445.024,25.507,25.507,0,0,1,.686-4.086,6.988,6.988,0,0,1,2.121-4.029A.223.223,0,0,0,573.718,542.564Z" transform="translate(-554.533 -533.485)" fill="#001d42"/>
        <path id="パス_220" data-name="パス 220" d="M583.746,551.241a8.818,8.818,0,0,0-1.313-2.418c-.287-.426-.622-.816-.937-1.22a17.066,17.066,0,0,1-.994-1.9c-.229-.385-.435-.78-.7-1.142a6.943,6.943,0,0,0-1.441-1.1c-.508-.4-.9-.956-1.414-1.328a12.026,12.026,0,0,0-1.8-.844c-.255-.127-.5.247-.241.375.408.205.845.321,1.254.526a5.454,5.454,0,0,1,1.354,1.142,11.858,11.858,0,0,0,1.229.976,4.719,4.719,0,0,1,1.361,1.6,20.1,20.1,0,0,0,1.523,2.575,8.451,8.451,0,0,1,1.789,3.259.223.223,0,0,0,.435-.095l-.071-.326A.216.216,0,0,0,583.746,551.241Z" transform="translate(-554.165 -533.598)" fill="#001d42"/>
        <path id="パス_221" data-name="パス 221" d="M582.164,544.058c-.457-1.013-1.44-1.513-2.257-2.2a24.878,24.878,0,0,0-3.171-1.99c-.841-.512-1.6-.081-2.45-.406-.269-.1-.4.322-.137.424.792.3,1.552-.056,2.345.356a29.738,29.738,0,0,1,2.835,1.733,7.833,7.833,0,0,1,2.439,2.29,22.829,22.829,0,0,1,1.579,2.778c.092.268.528.177.435-.095C583.424,545.9,582.617,545.062,582.164,544.058Z" transform="translate(-554.238 -533.764)" fill="#001d42"/>
        <path id="パス_222" data-name="パス 222" d="M584.472,544.789a8.3,8.3,0,0,0-1.6-2.147,11.3,11.3,0,0,0-1.545-1.26,18.732,18.732,0,0,1-1.739-1.013,26.83,26.83,0,0,0-2.98-1.613,4.66,4.66,0,0,0-2.952-.224c-.284.045-.188.48.095.435.46-.073.9-.007,1.354-.067a3.57,3.57,0,0,1,1.948.573,14.513,14.513,0,0,1,2.553,1.462c.929.691,1.966.958,2.764,1.863.255.29.6.5.873.79a10.263,10.263,0,0,1,.836,1.407C584.233,545.235,584.629,545.031,584.472,544.789Z" transform="translate(-554.286 -533.859)" fill="#001d42"/>
        <path id="パス_223" data-name="パス 223" d="M588.875,550.085h0l-.005-.009a13.273,13.273,0,0,0-1.152-2.229,9.336,9.336,0,0,0-1.153-1.991c-.755-.75-.866-1.9-1.441-2.78a9.581,9.581,0,0,0-1.9-2.226,17.505,17.505,0,0,0-1.751-1.461c-.794-.5-1.795-.573-2.53-1.146a3.251,3.251,0,0,0-2.065-.583,11.888,11.888,0,0,1-1.342-.163c-.135-.02-1.166.088-1.278-.089-.152-.242-.548-.037-.4.206a.641.641,0,0,0,.687.339,16.775,16.775,0,0,1,2.907.181c.91.067,1.332.895,2.145,1.016a3.517,3.517,0,0,1,1.824.782c.255.22.306.467.623.606a6.529,6.529,0,0,1,2.32,2.238,5.708,5.708,0,0,1,.917,1.648,5.2,5.2,0,0,0,.506,1.248,28.107,28.107,0,0,1,2.5,4.122.187.187,0,0,0,.007.194l.18.3c.122.205.5.1.415-.151C588.891,550.122,588.882,550.1,588.875,550.085Z" transform="translate(-554.254 -533.96)" fill="#001d42"/>
        <path id="パス_224" data-name="パス 224" d="M588.107,547.383a21.209,21.209,0,0,0-1.6-3.234,33.984,33.984,0,0,1-2.61-4.064c-.559-1.068-2.074-1.77-3.1-2.25a8.808,8.808,0,0,0-3.583-1.018.222.222,0,0,0-.024.444,9.065,9.065,0,0,1,3.739,1.14,13.752,13.752,0,0,1,1.74,1.042c.653.47.811,1.056,1.243,1.673.7,1,1.337,2.044,2.05,3.03a22.093,22.093,0,0,1,1.751,3.443C587.836,547.849,588.231,547.641,588.107,547.383Z" transform="translate(-553.966 -534.004)" fill="#001d42"/>
        <path id="パス_225" data-name="パス 225" d="M583.606,573.544c-.113.029-.475.2-.9.385-.14.037-.286.069-.433.1a.215.215,0,0,0-.164-.043c-.382.047-.755-.02-1.136.019a.179.179,0,0,0-.12.062c-.1.008-.211.016-.315.033a5.794,5.794,0,0,0-1.231.39c-.268.1-.059.5.206.395a4.7,4.7,0,0,1,.812-.223h0c.392.673,1.786.037,2.691-.385a1.436,1.436,0,0,0,.791-.348A.224.224,0,0,0,583.606,573.544Z" transform="translate(-553.766 -530.656)" fill="#001d42"/>
        <path id="パス_226" data-name="パス 226" d="M591.231,575.98a.563.563,0,0,0-.352-.228c-.065-.019-.122-.052-.187-.074-.007,0-.013,0-.021,0a.2.2,0,0,0-.319-.028.221.221,0,0,0-.2.391l.143.088c-.088.015-.177.037-.264.053a11.244,11.244,0,0,0-2.614.071,26.757,26.757,0,0,0-3.439.474,23.392,23.392,0,0,0-6.981,2.85c-.078.025-.155.05-.23.07a.229.229,0,0,0-.286-.333.968.968,0,0,0-.365.3.194.194,0,0,0-.107.09c-.017.032-.024.064-.038.1a1.42,1.42,0,0,0-.132.169.2.2,0,0,0,.037.272,2.621,2.621,0,0,0,.074.55.223.223,0,0,0,.435-.095,1.768,1.768,0,0,1-.034-.371,9.044,9.044,0,0,1,1.822.942,7.712,7.712,0,0,0,2.3.739,8.974,8.974,0,0,0,4.438-.014,6.662,6.662,0,0,0,3.734-2.315c.286-.382.614-.725.9-1.108.158-.212.3-.511.471-.765a.221.221,0,0,0,.258-.078,4.28,4.28,0,0,0,.344-.563,1.284,1.284,0,0,0,.309-.543l-.007.06a.224.224,0,0,0,.409.133.428.428,0,0,0,.047-.29A.865.865,0,0,0,591.231,575.98Zm-7.719,1.3a15.229,15.229,0,0,1,3.258-.562c.428,0,.927-.063,1.441-.11-.371.1-.74.191-1.1.27-1.343.292-2.688.58-4.03.878-1.3.286-2.515.769-3.792,1.1l-.11.025A20.96,20.96,0,0,1,583.512,577.284Zm.606,4.416a7.858,7.858,0,0,1-2.458.039,5.294,5.294,0,0,1,.574-.381,5.4,5.4,0,0,1,2.372-.518c.484-.036,1.038-.641,1.489-.77a6.023,6.023,0,0,1,1.685-.155A7.351,7.351,0,0,1,584.118,581.7Zm6.1-4.748a4.3,4.3,0,0,0-.548.607,19.184,19.184,0,0,1-1.195,1.59c-.076.1-.164.2-.247.295a.19.19,0,0,0-.1-.029l-.065.005a.227.227,0,0,0-.125.05,7.335,7.335,0,0,0-1.3.047,5.048,5.048,0,0,0-1.884.775c-.548.294-1.242.061-1.846.3a11.105,11.105,0,0,0-1.184.537,6.772,6.772,0,0,1-.767.5c-.443-.083-.888-.187-1.34-.306a15.212,15.212,0,0,1-2.648-1.208l.062-.038c.685-.171,1.405-.563,2.02-.7,1.26-.281,2.457-.787,3.718-1.087,1.337-.319,2.686-.589,4.029-.882,1.06-.23,2.166-.566,3.259-.771a2.446,2.446,0,0,1,.289.081C590.3,576.8,590.263,576.874,590.222,576.953Z" transform="translate(-554.074 -530.47)" fill="#001d42"/>
        <path id="パス_227" data-name="パス 227" d="M587.262,582.18c-.592.191-1.148.474-1.732.689-.621.1-1.258.141-1.671.172a9.632,9.632,0,0,1-1.378-.023.965.965,0,0,0-.759-.092c-.277.074-.183.51.095.436.357-.095.713.169,1.093.147.2-.011.4-.019.6-.026a.25.25,0,0,0,.053.039,3.05,3.05,0,0,0,2.29-.282,2.989,2.989,0,0,0,1.609-.681C587.6,582.417,587.488,582.106,587.262,582.18Z" transform="translate(-553.55 -529.869)" fill="#001d42"/>
        <path id="パス_228" data-name="パス 228" d="M579.048,570.037a10.032,10.032,0,0,0-.649-1.9c-.26-.6-.58-1.137-1.259-1.28-.279-.059-.419.364-.139.423a1.268,1.268,0,0,1,.133.047.223.223,0,0,0,.037.063c.093.107.183.212.273.318a.2.2,0,0,0,.03.132,11.131,11.131,0,0,1,.791,1.539.182.182,0,0,0,.158.117c.087.286.171.568.249.855.042.163.082.314.122.45.081.272.51.186.435-.095C579.17,570.482,579.11,570.259,579.048,570.037Z" transform="translate(-553.979 -531.266)" fill="#001d42"/>
        <path id="パス_229" data-name="パス 229" d="M574.562,566.921a.207.207,0,0,0-.219.171,9.538,9.538,0,0,0-4.355.95c-1.1.483-2.359,1.415-2.4,2.72a.225.225,0,0,0,.154.224,6.011,6.011,0,0,0,.848.221.231.231,0,0,0-.01.31.19.19,0,0,0,.009.16v.008c.008.2.3.35.409.133a.7.7,0,0,0,.085-.275.218.218,0,0,0,.012-.075.237.237,0,0,0-.015-.075c0-.031-.007-.061-.013-.094,0-.008-.008-.014-.01-.023.142.016.285.017.428.024l.084.385c.052.239.458.22.441-.035-.009-.12.108-.247.19-.351.088,0,.178-.016.267-.024.018.145,0,.292.021.439a.224.224,0,0,0,.43.022,1.882,1.882,0,0,1,.243-.464.213.213,0,0,0,.035-.092c.056-.01.11-.024.166-.034a.219.219,0,0,0,.087.14c.094.067.11.221.164.32a.226.226,0,0,0,.41-.034,1.538,1.538,0,0,1,.113-.36.22.22,0,0,0-.019-.247c.108-.031.212-.072.319-.107a.207.207,0,0,0,.086.118.277.277,0,0,1,.116.1.223.223,0,0,0,.4-.206c.028.046.031-.008.061-.052a.748.748,0,0,0,.093-.187.215.215,0,0,0,.008-.057,9.3,9.3,0,0,0,1.846-1.023c.519-.378,1.561-1.366,1.395-2.135C576.312,566.86,574.975,566.94,574.562,566.921Zm-4.591,3.933c-.087,0-.172,0-.259-.005a.223.223,0,0,0-.081,0c-.482-.027-.954-.14-1.433-.2-.447-.06.419-1.113.567-1.246a6.173,6.173,0,0,1,1.105-.8l.063-.032a2.509,2.509,0,0,0,.359,1.282,2.866,2.866,0,0,0,.513.926C570.528,570.811,570.248,570.839,569.971,570.854Zm5.947-3.075a3.791,3.791,0,0,1-1.181,1.447c-.146.117-.3.225-.455.328a7.425,7.425,0,0,0-.227-1.136c-.1-.314-.325-.565-.435-.881a8.439,8.439,0,0,1,1.424.061.186.186,0,0,0,.209-.12C575.61,567.556,575.953,567.666,575.918,567.779Z" transform="translate(-554.823 -531.259)" fill="#001d42"/>
        <path id="パス_230" data-name="パス 230" d="M583.247,565.561c.188.764,1.559,1.195,2.191,1.3a9.312,9.312,0,0,0,2.108.107.225.225,0,0,0,.033.048.809.809,0,0,0,.165.128c.047.025.073.073.077.019a.223.223,0,0,0,.445.012.281.281,0,0,1,.059-.143.2.2,0,0,0,.026-.144c.111-.015.223-.024.333-.045a.222.222,0,0,0,.093.231,1.574,1.574,0,0,1,.261.272.224.224,0,0,0,.382-.149c.005-.111-.048-.259.005-.359a.211.211,0,0,0,.018-.164c.055-.015.109-.027.164-.043a.223.223,0,0,0,.071.068,1.877,1.877,0,0,1,.423.308.224.224,0,0,0,.376-.208c-.046-.14-.127-.264-.174-.4.083-.033.168-.061.25-.1.12.058.279.12.325.231.1.238.469.075.411-.163l-.095-.383c.124-.069.253-.132.374-.208a.2.2,0,0,0,0,.025c.008.032.019.06.028.088a.318.318,0,0,0,.02.075.231.231,0,0,0,.045.062.721.721,0,0,0,.2.209c.2.145.391-.117.31-.3l0-.007a.2.2,0,0,0-.062-.147.231.231,0,0,0-.146-.274,6.006,6.006,0,0,0,.665-.572.227.227,0,0,0,.039-.268c-.61-1.155-2.151-1.437-3.352-1.387a9.545,9.545,0,0,0-4.329,1.062.207.207,0,0,0-.272-.057C584.345,564.488,583.109,565.005,583.247,565.561Zm6.529.538a2.858,2.858,0,0,0,.053-1.057,2.509,2.509,0,0,0-.241-1.309h.071a6.284,6.284,0,0,1,1.343.229c.193.056,1.433.619,1.057.87-.4.268-.776.577-1.2.814a.25.25,0,0,0-.072.037c-.076.04-.149.084-.23.119C590.307,565.911,590.043,566.008,589.775,566.1Zm-5.442-1a.184.184,0,0,0,.24.015,8.652,8.652,0,0,1,1.252-.681c.04.332-.046.655,0,.982a7.153,7.153,0,0,0,.3,1.121c-.187-.025-.371-.053-.554-.095a3.774,3.774,0,0,1-1.7-.78C583.787,565.571,584.046,565.323,584.334,565.095Z" transform="translate(-553.396 -531.591)" fill="#001d42"/>
        <path id="パス_231" data-name="パス 231" d="M573.666,566.284c-.992.225-1.971.5-2.945.792a7.35,7.35,0,0,0-2.648,1.291c-.215.19.086.518.3.328a8.135,8.135,0,0,1,2.757-1.278c.869-.258,1.744-.5,2.629-.7A.223.223,0,0,0,573.666,566.284Z" transform="translate(-554.786 -531.318)" fill="#001d42"/>
        <path id="パス_232" data-name="パス 232" d="M589.622,562.542a25.672,25.672,0,0,0-2.8.32c-.594.089-1.065.361-1.643.487a1.968,1.968,0,0,0-1.016.4c-.217.19.084.518.3.328.328-.286.777-.241,1.156-.38a4.787,4.787,0,0,1,1.539-.41,4.785,4.785,0,0,0,1.042-.207,4.931,4.931,0,0,1,1.269-.094.2.2,0,0,0,.119.01l.072-.016C589.9,562.93,589.878,562.532,589.622,562.542Z" transform="translate(-553.319 -531.659)" fill="#001d42"/>
      </g>
      <path id="パス_233" data-name="パス 233" d="M561.322,583.1a.23.23,0,0,0-.2-.045l-.144.032-.012-.009a.235.235,0,0,0-.342.085l-.816.178a.223.223,0,0,0-.059.025.607.607,0,0,1-.238-.012.242.242,0,0,0-.166.013,1.476,1.476,0,0,1-.816-.4,6.209,6.209,0,0,1-1.04-1.939c-.093-.217-.388-.146-.463.038-.447,1.111.457,2.971-1.21,3.4-.406-.136-.575.057-.841.432a.254.254,0,0,0,.134.376c1.145.355,2.27-.136,2.945,1.2a4.277,4.277,0,0,0,.668,1.062.19.19,0,0,0-.029.173.936.936,0,0,0,.383.505.251.251,0,0,0,.465-.111.419.419,0,0,0,.031-.075l-.04-.19a.506.506,0,0,1,.067-.355.465.465,0,0,1,.029-.175h0a4.183,4.183,0,0,1,.273-2.129,8.376,8.376,0,0,1,1.14-1.34.926.926,0,0,0,.53-.357A.252.252,0,0,0,561.322,583.1Zm-2,2.1a4.039,4.039,0,0,0-.213,2.006c-.552-.562-.725-1.427-1.351-1.966a2.273,2.273,0,0,0-1.624-.356,2.144,2.144,0,0,0,1.111-1.136,3.309,3.309,0,0,0,.213-1.047,3.078,3.078,0,0,0,0-.456,3.491,3.491,0,0,0,.965,1.33,2.488,2.488,0,0,0,1.905.33A6.052,6.052,0,0,0,559.326,585.2Z" transform="translate(-554.932 -529.985)" fill="#001d42"/>
      <path id="パス_234" data-name="パス 234" d="M606.209,544.273c-.635.067-1.216.343-1.855.388-.582.04-.873-.788-1.1-1.174a4.171,4.171,0,0,0-.263-.4.2.2,0,0,0,.051-.083c-.021-.032-.042-.061-.063-.092a1.347,1.347,0,0,1-.158-.189.337.337,0,0,1-.041-.069c-.007,0-.013,0-.02,0-.138.019-.32-.228-.393-.315a1.488,1.488,0,0,1-.314-.563.252.252,0,0,0-.493.107l.037.169a.239.239,0,0,0-.08.227l.054.247a.234.234,0,0,0,.1.147c0,.008-.005.014-.007.023-.058,1.1.719,2.4-.459,3.076a.7.7,0,0,0-.378.056h-.009a.811.811,0,0,1-.1.038l-.061.057c-.015.011-.032.017-.046.028-.167.121-.318.251-.478.363-.132.023-.266.029-.347.041a.209.209,0,0,0-.137.084.246.246,0,0,0-.094.085l-.1.151a.254.254,0,0,0,.266.382,2.1,2.1,0,0,0,.413-.154,1.371,1.371,0,0,0,.414.086,5.937,5.937,0,0,1,1.549-.032c.366.088,1.017.991,1.313,1.279a11.633,11.633,0,0,1,1.005,1.457.254.254,0,0,0,.426-.092c.223-.653-.067-1.265-.032-1.947.059-1.163,1.051-2.1,1.667-3A.254.254,0,0,0,606.209,544.273Zm-1.593,2.23a4.548,4.548,0,0,0-.312,1.125,5.692,5.692,0,0,0,.085,1.171,8.645,8.645,0,0,0-1.811-2.171,1.991,1.991,0,0,0-1.246-.239c-.088,0-.176,0-.263,0,.059-.023.109-.055.165-.082a.206.206,0,0,0,.3-.172,1.879,1.879,0,0,0,.715-.9c.355-.924-.037-1.416-.08-2.234.734.231.825,1.554,1.422,1.938a2.49,2.49,0,0,0,2.077-.037A6.972,6.972,0,0,0,604.616,546.5Z" transform="translate(-550.877 -533.569)" fill="#001d42"/>
    </g>
  </g>
</svg>
