<svg xmlns="http://www.w3.org/2000/svg" width="50" height="50" viewBox="0 0 50 50"><defs><style>.a{fill:#a0a0a0;}</style></defs><path class="a" d="M1414.044,891.894h-28.333a10.833,10.833,0,0,0-10.834,10.833V931.06a10.834,10.834,0,0,0,10.834,10.834h28.333a10.834,10.834,0,0,0,10.833-10.834V902.727A10.833,10.833,0,0,0,1414.044,891.894Zm.055,31.89c-3.819,4.4-12.36,9.751-14.3,10.57s-1.656-.522-1.577-.982c.046-.273.26-1.558.26-1.558a3.736,3.736,0,0,0-.059-1.646c-.2-.507-1.011-.77-1.6-.9-8.748-1.156-15.224-7.272-15.224-14.575,0-8.146,8.167-14.773,18.2-14.773s18.2,6.627,18.2,14.773c0,3.26-1.264,6.2-3.9,9.089Zm-18-13.025a.354.354,0,0,1,.355.354v7.932a.355.355,0,0,1-.355.354h-1.277a.354.354,0,0,1-.354-.354v-7.932a.353.353,0,0,1,.354-.354h1.277m8.789,0a.354.354,0,0,1,.355.354v7.932a.355.355,0,0,1-.355.354h-1.276a.379.379,0,0,1-.091-.012l-.005,0-.025-.007-.01,0-.017-.008-.017-.008-.011,0-.021-.014,0,0a.357.357,0,0,1-.09-.088l-3.639-4.915v4.711a.355.355,0,0,1-.355.354h-1.277a.355.355,0,0,1-.355-.354v-7.932a.354.354,0,0,1,.355-.354h1.307l.019,0,.015,0,.02,0,.013,0,.021.007.011,0,.021.009.011.005.019.011.01.006.019.013.009.007.019.016.007.006.021.022,0,0c.01.012.019.023.028.036l3.635,4.909v-4.712a.354.354,0,0,1,.355-.354h1.276m-11.867,6.653a.354.354,0,0,1,.354.355v1.277a.354.354,0,0,1-.354.355h-5.1a.35.35,0,0,1-.245-.1l-.006-.005,0-.005a.35.35,0,0,1-.1-.245h0v-7.931a.355.355,0,0,1,.355-.355h1.277a.354.354,0,0,1,.354.355v6.3h3.47m15.45-4.667v1.34h3.469a.354.354,0,0,1,.354.355v1.277a.354.354,0,0,1-.354.355h-3.469v1.341h3.469a.353.353,0,0,1,.354.354v1.277a.354.354,0,0,1-.354.355h-5.1a.354.354,0,0,1-.245-.1l0-.005-.005-.005a.354.354,0,0,1-.1-.245h0v-7.931h0a.35.35,0,0,1,.1-.244l.005-.007,0,0a.354.354,0,0,1,.246-.1h5.1a.354.354,0,0,1,.354.355v1.277a.354.354,0,0,1-.354.355Z" transform="translate(-1374.877 -891.894)"/></svg>