<svg xmlns="http://www.w3.org/2000/svg" width="50" height="50" viewBox="0 0 50 50"><defs><style>.a{fill:#a0a0a0;}</style></defs><path class="a" d="M1314.521,941.894h-28.333a10.834,10.834,0,0,1-10.833-10.834V902.727a10.833,10.833,0,0,1,10.833-10.833h28.333a10.834,10.834,0,0,1,10.834,10.833V931.06A10.835,10.835,0,0,1,1314.521,941.894Zm4.348-36.485a15.134,15.134,0,0,1-4.364,1.2,7.616,7.616,0,0,0,3.341-4.2,15.226,15.226,0,0,1-4.824,1.844,7.6,7.6,0,0,0-12.945,6.928,21.558,21.558,0,0,1-15.658-7.937,7.6,7.6,0,0,0,2.351,10.143,7.586,7.586,0,0,1-3.441-.951c0,.031,0,.063,0,.1a7.6,7.6,0,0,0,6.094,7.449,7.627,7.627,0,0,1-3.431.13,7.607,7.607,0,0,0,7.1,5.276,15.244,15.244,0,0,1-9.434,3.252,15.7,15.7,0,0,1-1.812-.106,21.506,21.506,0,0,0,11.645,3.413c13.973,0,21.614-11.576,21.614-21.615q0-.494-.021-.983A15.441,15.441,0,0,0,1318.869,905.409Z" transform="translate(-1275.355 -891.894)"/></svg>