<?xml version="1.0" encoding="UTF-8"?><svg xmlns="http://www.w3.org/2000/svg" viewBox="0 0 743.71 94.78"><defs><style>.d{fill:#fff;}.e{fill:#231815;}.f{fill:#1d2d64;}</style></defs><g id="a"/><g id="b"><g id="c"><g><path class="e" d="M130.05,54.38h-7.53v-19.88c-.96,1.81-3.23,5.72-7.02,9.06l-2.15-2.55c5.66-6.57,7.99-16.99,8.78-21.24h-8.04v-3.12h8.44v-7.82c-2.55,.23-4.87,.28-7.14,.34l-1.59-3.17c6.23-.34,15.63-2.15,19.6-4.59l3.34,4.81c.06,.06,.11,.11,.11,.23,0,.06-.06,.34-.74,.45-.96,.11-5.21,.85-6.06,1.02v8.72h5.83v3.12h-5.61c.45,2.72,1.7,8.33,6.4,14.73l-2.32,2.44c-1.87-1.93-3-3.34-4.3-5.32v22.77ZM164.83,14.5v19.82h-7.08v14.22c0,1.7,.11,1.81,1.64,1.81,.96,0,1.3-.4,1.42-1.3,.34-2.21,.51-5.49,.62-7.48,2.83,1.64,3.91,2.21,6.46,3-.74,5.04-1.76,8.89-6.51,8.89h-5.44c-4.93,0-5.32-2.15-5.32-5.38v-13.76h-2.27c-.28,6.51-1.13,14.9-14.84,19.94l-2.32-2.32c8.78-5.44,9.8-9.52,9.97-17.62h-3.57V14.5h5.44c-2.04-7.36-3.34-9.74-4.53-11.78l2.83-1.64c1.98,1.64,5.15,4.42,9.12,9.97l-6.63,3.46h21.01Zm-7.53,3.17h-12.29v13.48h12.29v-13.48Zm8.44-13.37c.06,.06,.06,.28,.06,.34,0,.45-.23,.62-.96,1.19-2.61,2.89-5.15,5.78-8.04,8.44l-3.29-1.42c1.53-3,3.12-8.55,3.29-11.72l8.95,3.17Z"/><path class="e" d="M188.01,21.41h5.04v3.17h-5.04v14.5c3.06-.79,4.25-1.02,6.06-1.64v3c-2.78,1.25-17.5,6.57-17.9,6.85-.11,.06-.68,.51-1.02,.51-.17,0-.4-.06-.51-.4l-1.87-5.21c2.21-.11,2.78-.23,7.7-1.36V24.58h-5.55v-3.17h5.55V6.51h-6.12V3.34h19.6v3.17h-5.95v14.9Zm26.17,16.31h11.1v3.12h-11.1v8.5h12.86v3.12h-37.1v-3.12h16.31v-8.5h-10.76v-3.12h10.76v-7.48h-10.76V3.34h29.79V30.25h-11.1v7.48Zm-7.76-22.54V6.51h-3.91V15.18h3.91Zm-3.91,3.12v8.84h3.91v-8.84h-3.91Zm15.46-3.12V6.51h-3.96V15.18h3.96Zm-3.96,3.12v8.84h3.96v-8.84h-3.96Z"/><path class="e" d="M254.51,5.72c0-1.53,0-2.38-.23-4.42l8.16,.17c.11,0,.4,.23,.4,.68,0,.4-.11,.74-.4,1.42V21.41h22.43v3.12h-22.43v24.92h18.75v3.17h-45.65v-3.17h18.97V24.53h-22.43v-3.12h22.43V5.72Z"/><path class="e" d="M331.04,49.28c-6.57,.96-14.56,1.3-18.8,1.3-5.21,0-21.3,0-21.3-9.52,0-5.27,3.96-9.06,5.38-10.37l3.17,1.81c-.79,1.02-2.95,3.74-2.95,6.68,0,3.85,4.25,5.1,11.33,5.1,7.53,0,14.61-.79,23.17-3.06v8.04ZM295.92,6.23c2.27-.34,7.48-1.13,14.78-1.13,8.61,0,13.48,1.02,16.77,1.76l-1.59,8.04c-8.55-4.08-20.56-5.15-29.85-4.87l-.11-3.79Z"/><path class="e" d="M377.21,49.28c-6.57,.96-14.56,1.3-18.8,1.3-5.21,0-21.3,0-21.3-9.52,0-5.27,3.96-9.06,5.38-10.37l3.17,1.81c-.79,1.02-2.95,3.74-2.95,6.68,0,3.85,4.25,5.1,11.33,5.1,7.53,0,14.61-.79,23.17-3.06v8.04ZM342.09,6.23c2.27-.34,7.48-1.13,14.78-1.13,8.61,0,13.48,1.02,16.77,1.76l-1.59,8.04c-8.55-4.08-20.56-5.15-29.85-4.87l-.11-3.79Z"/><path class="e" d="M383.05,18.58c7.59-1.81,8.44-2.04,11.55-2.61l4.59-13.42,6,2.21c.57,.23,1.53,.62,1.53,1.08,0,.23-.45,.68-.62,.91-.4,.4-2.66,6.85-3.12,8.21,1.42-.11,3.23-.34,5.27-.34,8.27,0,10.59,4.19,10.59,12.97,0,2.27-.17,24.64-11.27,24.64-3.62,0-8.44-2.72-10.31-3.74l1.47-4.25c3.34,2.61,5.32,3.06,5.89,3.06,1.25,0,1.98-1.02,2.55-2.1,2.89-5.15,3.85-12.97,3.85-19.09s-.96-8.1-4.98-8.1c-1.64,0-3.46,.34-4.25,.45-6.29,18.92-10.08,31.15-10.82,33.7l-8.04-2.89c2.49-6.68,6.17-17.33,10.2-29.11-3.12,.85-6,1.76-9.01,3.12l-1.08-4.7Zm39.71-10.31c4.3,5.1,8.44,10.37,11.33,16.43l-7.82,5.44c-1.36-10.54-6.8-18.52-7.31-19.14l3.79-2.72Z"/><path class="e" d="M447.46,12.23c1.93,.4,2.1,.74,2.1,1.02,0,.23-.74,1.25-.85,1.47-.17,.45-1.47,4.76-2.89,13.08,2.72-2.1,8.55-6.57,17.67-6.57s16.14,4.87,16.14,14.16c0,16.99-23.51,17.9-31.27,18.18l-.79-4.08c6.12-.11,23.34-.45,23.34-14.1,0-7.7-5.72-9.8-10.14-9.8-1.42,0-4.81,.17-9.23,3.12-4.93,3.34-6.63,6.68-8.04,9.63l-6.74-1.19c1.13-9.69,2.72-19.6,4.02-26.34l6.68,1.42Zm1.02-10.25c4.3,.28,12.57,.79,22.77,4.64l-3.4,8.04c-7.7-5.72-13.82-7.59-20.79-9.06l1.42-3.62Z"/><path class="e" d="M489.89,3.1h9.23V50.48h-9.23V3.1Z"/><path class="e" d="M530.07,6.97V50.48h-9.23V6.97h-14.29V3.1h37.8v3.87h-14.29Z"/><path class="e" d="M557.51,20.16h-2.61c-1.93,0-5.49,.06-7.31,.17v-3.96c1.13,.11,6,.17,7.25,.17h2.66v-7.25c0-.74,0-4.02-.23-5.83l7.59,.45c1.25,.06,1.25,.23,1.25,.4,0,.28-.34,1.42-.34,1.7v10.54h12.52V8.21c0-.34,0-2.95-.11-4.76l7.59,.51c.79,.06,1.3,.06,1.3,.45,0,.28-.34,1.76-.34,2.1v10.03h2.15c1.93,0,5.21,0,7.08-.17v3.96c-1.64-.11-4.81-.17-6.74-.17h-2.49c0,9.12-.06,13.82-2.89,19.48-4.87,9.63-14.44,11.21-21.13,12.35l-1.76-3.57c5.72-.85,13.71-2.1,16.43-13.31,.91-3.68,.91-7.82,.91-14.95h-12.52v3.79c0,7.25,0,8.04,.06,11.33h-8.55c.23-2.72,.23-8.44,.23-11.27v-3.85Z"/><path class="e" d="M601.47,41.63c7.48-6.68,10.42-12.46,12.57-17.62l3.51,1.53c-1.08,4.36-3.12,12.35-9.57,21.81l-6.51-5.72Zm20.96-31.95c0-1.64,0-3.74-.06-5.61l7.14,.45c.51,.06,1.59,.11,1.59,.51,0,.28-.4,1.53-.4,1.87V15.07h8.21c1.64,0,5.27,0,9.91-.17v3.96c-4.19-.17-8.21-.17-9.74-.17h-8.38v26.22c0,4.64-1.76,6.91-5.89,6.91-.79,0-4.93,0-11.16-2.44l1.13-3.68c1.53,.68,3.51,1.42,5.32,1.42,1.7,0,2.32-.74,2.32-2.61V18.69h-9.01c-4.76,0-7.02,.06-9.29,.17v-3.96c2.55,.11,4.64,.17,9.29,.17h9.01v-5.38Zm21.3,37.1c-1.93-7.02-5.15-15.18-9.12-21.24l3.34-2.15c3,3.34,7.14,8.1,13.2,18.18l-7.42,5.21Zm.51-46.79c3.29,0,5.83,2.66,5.83,5.83s-2.49,5.89-5.83,5.89-5.72-2.66-5.72-5.89,2.61-5.83,5.72-5.83Zm.06,3c-1.64,0-2.83,1.3-2.83,2.83s1.25,2.89,2.78,2.89c1.64,0,2.83-1.36,2.83-2.89s-1.19-2.83-2.78-2.83Z"/><path class="e" d="M655.46,25.38c3.96,0,12.29,.06,14.05,.06h21.58c4.47,0,9.63,0,14.22-.06v4.87c-3.4-.06-10.42-.06-14.05-.06h-21.58c-9.86,0-11.1,0-14.22,.06v-4.87Z"/><path class="e" d="M712.22,10.65c0-3.79-.06-5.61-.11-7.08l7.48,.57c.4,.06,1.19,.11,1.19,.51,0,.28-.34,1.7-.34,1.98v13.37c4.7,.96,13.14,2.66,23.28,9.35l-5.83,6.85c-2.55-2.66-7.87-8.33-17.45-12.06v15.8c0,.45,.06,10.42,.06,11.84h-8.38c.11-3.57,.11-8.5,.11-12.06V10.65Z"/></g><g><path class="e" d="M134.51,71.73v11.9h-3.35v-1.13h-5.28v7.57h-3.28v-7.57h-5.32v1.13h-3.3v-11.9h8.62v-2.5s-.02-1.11-.1-1.74l3.16,.05c.17,0,.43,0,.43,.34,0,.12-.19,.58-.22,.67v3.18h8.62Zm-11.9,9.42v-8.1h-5.32v8.1h5.32Zm3.28-8.1v8.1h5.28v-8.1h-5.28Z"/><path class="e" d="M144.43,73.49c.1,.02,.26,.07,.26,.29,0,.17-.1,.34-.31,.58-1.28,4.1-3.06,7.83-6.19,11.08l-1.18-.79c2.19-3.25,3.98-9.3,3.88-12.19l3.54,1.04Zm5.9-5.9c.1,0,.29,0,.29,.26,0,.19-.1,.46-.14,.6v18.72c0,2.02-.75,2.7-3.23,2.7h-3.98l-.51-1.54c.72,.1,2.02,.29,2.87,.29,1.13,0,1.49-.19,1.49-1.45v-17.73c0-.17-.05-1.08-.12-1.9l3.32,.05Zm6.55,17.44c-1.08-5.61-2.72-9.37-3.98-12l1.18-.65c2.58,3.37,4.67,7.08,6.24,11.01l-3.45,1.64Z"/><path class="e" d="M168.91,70.04c.46,.29,.63,.41,.94,.63,.87-1.69,.99-2.43,1.08-3.08l1.95,.7c.19,.07,.31,.12,.31,.31,0,.14-.1,.22-.31,.36-.6,1.06-1.01,1.57-1.86,2.6,.63,.48,.82,.65,1.11,.89,.34-.67,.63-1.28,.89-2.12l2.05,.94c-.02-.75-.12-3.23-.17-3.76l3.06,.05c.19,0,.22,.1,.22,.22,0,.02-.14,.43-.17,.51,0,.99-.02,1.61-.02,2.43l.31-.63c.29,.19,.48,.31,.77,.53,.17-.31,.75-1.59,.99-2.87l2.19,.87c.14,.05,.24,.1,.24,.22,0,.17-.12,.22-.36,.34-.58,.82-1.21,1.61-1.88,2.36,.39,.29,.63,.51,.94,.77,.55-.94,.72-1.42,.94-2l2.19,1.11c.1,.05,.17,.1,.17,.22,0,.22-.19,.31-.46,.46-1.13,1.35-2.34,2.63-3.57,3.93,.67-.05,1.33-.12,1.98-.22-.22-.77-.24-.84-.39-1.18l1.06-.46c.87,1.16,1.4,2.05,2.07,3.25l-2.1,1.06c-.02-.07-.31-1.35-.36-1.52l-1.81,.43c.92,.63,1.37,1.13,1.69,1.47l-1.23,.6h3.28v1.33h-6.1c.22,1.37,.39,2,.7,2.96,.63-.63,1.42-1.49,1.86-2.75l2.6,1.61c.07,.05,.17,.1,.17,.19,0,.14-.12,.24-.51,.41-.43,.41-1.57,1.57-3.11,2.67,.12,.19,1.04,1.71,1.57,1.71s.96-1.52,1.16-2.87c.41,.31,.99,.72,2.12,1.21-.22,1.35-.96,4.22-3.3,4.22-1.9,0-3.06-1.49-3.83-2.77-1.04,.6-3.3,1.73-5.57,2.41l-.96-1.04c2.22-.79,3.81-1.66,5.66-3.13-.89-2.14-1.13-3.54-1.35-4.84h-2.96v1.57l.12-.19c1.04,.29,2.43,.89,3.42,1.52l-1.71,2.46c-.29-.48-.99-1.71-1.95-2.75-.55,3.97-3.04,5.88-4,6.58l-1.01-.84c1.42-1.49,2.05-4.17,2.05-6.12v-2.22h-.72l-.58,.99c-.34-.43-.7-.87-1.23-1.81v10.12h-3.01v-8.34c-.75,1.4-1.33,2.14-1.78,2.75l-.92-1.25c1.59-2.99,2.46-5.81,2.7-9.16h-2v-1.35h2v-3.3c0-.63-.05-1.4-.07-1.88h2.75c.22,0,.48,.02,.48,.29,0,.07,0,.12-.14,.46v4.43h1.76v1.35h-1.71c.1,2.41,.92,4.46,1.59,5.73v-.36h6.77c-.02-.19-.12-1.01-.14-1.18l-1.78,.94c-.05-.24-.22-1.28-.24-1.47l-3.95,.8c-.26,.22-.31,.24-.41,.24-.19,0-.22-.12-.29-.36l-.41-1.59h.99c.58-.75,1.11-1.59,1.64-2.43-1.04-1.47-1.69-2.29-2.84-3.3l.75-1.06Zm5.01,4.67c.55,.77,.77,1.18,1.45,2.41-.02-.29-.22-4.38-.24-5.01-1.04,1.35-2.41,2.89-3.95,4.63,1.04-.05,1.35-.07,2.05-.14-.14-.72-.22-1.04-.36-1.42l1.06-.46Zm4.07-3.16c0,.65,0,1.98,.12,4.67q.48-.05,.67-.05c.29-.36,1.01-1.54,1.4-2.14-1.04-1.35-1.61-1.98-2.19-2.48Zm2.7,7.9c-.17-.48-.53-1.37-.82-1.81l-1.04,.24c-.22,.22-.31,.31-.43,.31-.07,0-.1-.02-.14-.07,0,.19,.12,1.11,.12,1.33h2.31Z"/><path class="e" d="M193.66,82.23c-.79-.87-1.4-1.76-1.49-1.93v9.76h-3.04v-8.34c-1.08,1.78-1.76,2.51-2.14,2.94l-.82-1.2c.58-1.06,2.48-4.48,2.89-9.52h-2.31v-1.35h2.38v-3.47c0-.72,0-.82-.05-1.54l2.92,.05c.22,0,.29,.07,.29,.29,0,.12-.05,.24-.12,.43v4.24h1.73v1.35h-1.73v.41c.51,2.89,1.21,4.36,2.65,6.65l-1.16,1.23Zm9.35-4.48h4.72v6.36h1.49v1.35h-1.49v2.05c0,2.22-.96,2.36-2.48,2.36h-3.13l-.43-1.47c.51,.1,1.9,.22,2.36,.22,.67,0,.67-.29,.67-.96v-2.19h-6.53v4.6h-3.06v-4.6h-1.74v-1.35h1.74v-6.36h4.72v-1.42h-6.17v-1.35h3.45v-1.64h-2.14v-1.33h2.14v-1.47h-2.94v-1.32h2.94c0-.41,0-.63-.1-1.66l3.08,.07c.07,0,.24,0,.24,.27,0,.17-.07,.31-.12,.46v.87h2.46c0-.6,0-.92-.1-1.66l3.11,.05c.19,0,.24,.1,.24,.24,0,.1,0,.12-.1,.48v.89h2.55v1.32h-2.55v1.47h1.93v1.33h-1.93v1.64h3.32v1.35h-6.17v1.42Zm-3.16,3.18v-1.83h-1.66v1.83h1.66Zm0,3.18v-1.83h-1.66v1.83h1.66Zm.39-13.57v1.47h2.46v-1.47h-2.46Zm0,2.79v1.64h2.46v-1.64h-2.46Zm4.48,7.59v-1.83h-1.71v1.83h1.71Zm-1.71,1.35v1.83h1.71v-1.83h-1.71Z"/><path class="e" d="M218.36,68.04l2.58,.94c.17,.05,.65,.24,.65,.48,0,.07-.29,.36-.34,.43-.12,.14-1.06,2.87-1.25,3.42,.63-.05,1.45-.12,2.24-.12,3.59,0,4.51,1.86,4.51,5.52,0,.87-.05,10.46-4.77,10.46-1.57,0-3.64-1.16-4.41-1.59l.6-1.78c1.11,.84,2.1,1.28,2.53,1.28,.53,0,.84-.46,1.08-.89,1.23-2.17,1.64-5.57,1.64-8.17s-.39-3.37-2.12-3.37c-.58,0-1.16,.07-1.81,.17-.89,2.7-3.04,9.13-4.6,14.36l-3.42-1.25c.92-2.43,2.82-7.88,4.34-12.36-2.34,.63-3.21,1.01-3.83,1.3l-.48-1.98c1.9-.46,3.83-.92,4.94-1.11l1.93-5.73Zm10.05,2.46c1.83,2.14,3.59,4.41,4.82,6.96l-3.33,2.31c-.55-4.41-2.84-7.78-3.11-8.14l1.61-1.13Zm1.49-2.07c.99,.7,2.02,1.64,2.92,2.63l-1.49,1.2c-.65-1.01-1.64-2.19-2.48-3.01l1.06-.82Zm2.29-1.28c.77,.53,1.85,1.37,2.7,2.26l-1.47,1.2c-.46-.65-1.33-1.71-2.34-2.58l1.11-.89Z"/><path class="e" d="M258.3,71.7s0,.22-.05,.29c-.05,.1-.22,.22-.46,.29-1.18,.96-2.53,1.83-3.4,2.34,1.98,1.54,3.54,2.22,4.26,2.53l-.84,1.18c-.84-.24-1.98-.58-3.57-1.4v.65h-2.67v3.85h5.81v1.33h-5.81v4.67c0,.72,0,1.11,.87,1.11h1.16c.79,0,1.45-.02,1.64-3.81,.36,.24,.96,.6,2.99,1.08-.27,2.63-1.06,4.05-3.37,4.05h-4.12c-2.24,0-2.43-.92-2.43-2.36v-4.75h-2.48c-.48,6.02-6.05,6.87-9.08,7.32l-.87-1.25c5.16-.92,6.43-2.99,6.63-6.07h-5.57v-1.33h5.61v-3.85h-2.55v-.84c-1.59,.82-2.58,1.18-3.37,1.47l-.96-1.16c1.61-.79,2.72-1.52,3.88-2.41-.24-.36-1.35-2.1-2.43-3.01l.87-.99c1.83,.92,2.6,1.4,3.61,2.19,1.52-1.61,2.05-2.84,2.27-3.37h-4.58v-1.35h10.36c.14,.48,.29,.99,.84,2.02,.7-.92,.99-1.49,1.45-2.46l2.7,1.64s.17,.24-.46,.53c-.99,.72-1.69,1.16-2.72,1.76,.31,.41,.77,1.01,1.74,1.95,.26-.34,1.69-2.17,2.34-3.61l2.79,1.76Zm-5.25,4.53c-3.88-2.38-5.32-4.82-5.93-5.78-1.33,2-3.04,3.93-6.24,5.78h12.17Zm-4.75,1.35h-2.43v3.85h2.43v-3.85Z"/><path class="e" d="M266.11,90.14h-3.2v-13.44c-.84,.99-1.49,1.64-2,2.14l-1.01-1.01c3.3-3.64,4.46-8.99,4.6-10.55l3.2,.89c.1,.02,.27,.07,.27,.26,0,.17-.12,.29-.27,.46-.55,1.3-1.01,2.22-1.59,3.23v18.02Zm16.79-16.96h-15.97v-1.35h15.97v1.35Zm-1.45-3.47h-13.16v-1.35h13.16v1.35Zm0,6.94h-13.16v-1.35h13.16v1.35Zm0,3.47h-13.16v-1.33h13.16v1.33Zm-9.97,8.79v1.23h-3.18v-7.88h13.16v7.88h-3.25v-1.23h-6.72Zm6.72-1.35v-3.98h-6.72v3.98h6.72Z"/><path class="e" d="M285.41,71.9c1.52-.07,9.04-.36,10.72-.43-.05-1.01-.17-2.77-.27-3.78l2.99,.24c.34,.02,.92,.1,.92,.41,0,.1-.14,.55-.17,.67,0,.19,.02,1.57,.02,2.34,3.64-.14,3.69-.14,6.1-.29v1.78c-2.53-.02-4.92,.02-6.07,.07,.02,1.01,.12,6,.12,7.13,0,5.47-2.92,8.43-8.14,9.76l-1.42-1.3c1.21-.29,2.84-.67,4.39-2.22,1.28-1.28,1.47-2.24,1.69-3.23-1.23,1.42-2.94,1.42-3.13,1.42-1.64,0-3.76-1.08-3.76-4.65,0-3.25,1.71-5.2,4.17-5.2,.96,0,1.88,.29,2.7,.92,0-.48,0-1.06-.05-2.53-5.88,.22-7.95,.34-10.79,.65v-1.76Zm6.96,7.49c0,2,.82,2.87,1.88,2.87,2.1,0,2.1-2.72,2.1-3.18,0-1.57-.82-2.6-1.98-2.6-1.37,0-2,1.28-2,2.92Z"/><path class="e" d="M312.11,68.84c3.59,.07,9.49-.24,11.64-.46l1.13,1.66c-2.65,2.29-5.16,4.51-7.2,6.41,.48-.17,1.59-.58,3.54-.58,4.53,0,6.96,2.67,6.96,6.07,0,5.16-4.58,7.35-9.35,7.35-4.14,0-5.81-1.95-5.81-3.69,0-1.85,1.37-3.35,4.24-3.35,1.3,0,4.53,.34,5.25,4.34,.63-.51,2.12-1.69,2.12-4.31,0-2.31-1.25-4.79-4.7-4.79s-5.76,2.24-9.06,6.05l-2.53-2.34c4.02-3.85,8.77-8.43,11.35-10.96-3.13,.14-6.67,.43-7.54,.51l-.05-1.9Zm5.32,15.03c-1.16,0-1.76,.89-1.76,1.78,0,1.28,1.28,2.26,2.94,2.26,.63,0,1.04-.07,1.35-.12-.14-2.29-.87-3.93-2.53-3.93Z"/><path class="e" d="M337.38,89.68c-1.08-2.12-2.63-4.79-5.35-7.45l1.08-1.13c1.23,.77,3.83,2.41,7.18,5.88l-2.92,2.7Z"/><path class="e" d="M351.89,90.09h-3.2v-8.46c-.41,.77-1.37,2.43-2.99,3.85l-.92-1.08c2.41-2.79,3.4-7.23,3.73-9.04h-3.42v-1.33h3.59v-3.33c-1.08,.1-2.07,.12-3.04,.14l-.67-1.35c2.65-.14,6.65-.92,8.34-1.95l1.42,2.05s.05,.05,.05,.1c0,.02-.02,.14-.31,.19-.41,.05-2.22,.36-2.58,.43v3.71h2.48v1.33h-2.39c.19,1.16,.72,3.54,2.72,6.26l-.99,1.04c-.79-.82-1.28-1.42-1.83-2.26v9.69Zm14.79-16.96v8.43h-3.01v6.05c0,.72,.05,.77,.7,.77,.41,0,.55-.17,.6-.55,.14-.94,.22-2.34,.27-3.18,1.2,.7,1.66,.94,2.75,1.28-.31,2.14-.75,3.78-2.77,3.78h-2.31c-2.1,0-2.26-.92-2.26-2.29v-5.85h-.96c-.12,2.77-.48,6.34-6.31,8.48l-.99-.99c3.73-2.31,4.17-4.05,4.24-7.49h-1.52v-8.43h2.31c-.87-3.13-1.42-4.14-1.93-5.01l1.21-.7c.84,.7,2.19,1.88,3.88,4.24l-2.82,1.47h8.94Zm-3.21,1.35h-5.23v5.73h5.23v-5.73Zm3.59-5.69s.02,.12,.02,.14c0,.19-.1,.27-.41,.51-1.11,1.23-2.19,2.46-3.42,3.59l-1.4-.6c.65-1.28,1.33-3.64,1.4-4.99l3.81,1.35Z"/><path class="e" d="M375.57,76.06h2.14v1.35h-2.14v6.17c1.3-.34,1.81-.43,2.58-.7v1.28c-1.18,.53-7.44,2.79-7.61,2.92-.05,.02-.29,.22-.43,.22-.07,0-.17-.02-.22-.17l-.79-2.22c.94-.05,1.18-.1,3.28-.58v-6.92h-2.36v-1.35h2.36v-6.34h-2.6v-1.35h8.34v1.35h-2.53v6.34Zm11.13,6.94h4.72v1.33h-4.72v3.61h5.47v1.33h-15.78v-1.33h6.94v-3.61h-4.58v-1.33h4.58v-3.18h-4.58v-11.44h12.67v11.44h-4.72v3.18Zm-3.3-9.59v-3.69h-1.66v3.69h1.66Zm-1.66,1.33v3.76h1.66v-3.76h-1.66Zm6.58-1.33v-3.69h-1.69v3.69h1.69Zm-1.69,1.33v3.76h1.69v-3.76h-1.69Z"/><path class="e" d="M403.86,69.39c0-.65,0-1.01-.1-1.88l3.47,.07s.17,.1,.17,.29c0,.17-.05,.31-.17,.6v7.59h9.54v1.33h-9.54v10.6h7.97v1.35h-19.42v-1.35h8.07v-10.6h-9.54v-1.33h9.54v-6.67Z"/><path class="e" d="M430.87,86.81c1.61-.34,6.31-1.35,6.31-8.48,0-2.38-.65-6.07-5.42-7.06-.67,9.25-2.07,16.19-6.72,16.19-3.42,0-5.57-3.49-5.57-7.3,0-5.52,4.07-10.75,11.28-10.75,5.11,0,10.07,2.55,10.07,9.2,0,8.19-7.35,9.44-9.44,9.81l-.51-1.61Zm-8.46-5.93c0,3.4,1.08,4.67,2.26,4.67s3.13-4.48,3.61-14.26c-5.64,1.71-5.88,7.93-5.88,9.59Z"/><path class="e" d="M456.02,73.78c-1.04,.05-1.98,.1-4.65,.22-2.26,6.99-3.85,12.34-4.55,14.94l-3.49-.96c.77-2.19,1.08-3.18,1.35-4.07,.43-1.37,2.6-8.19,3.08-9.73-1.35,.05-2.34,.1-4.48,.24v-1.78c1.95,.02,3.66,.02,4.96-.05,.14-.39,1.25-3.93,1.45-4.55l2.7,.67c.67,.17,.79,.31,.79,.46,0,.12-.31,.53-.39,.63-.07,.14-.72,2.07-.92,2.65,1.33-.1,2.5-.17,4.14-.36v1.71Zm-2.26,9.44c-.67,.96-.67,1.81-.67,1.95,0,1.66,2,1.66,3.4,1.66s4.24-.07,6.63-.7l.05,2.99c-1.59,.07-3.18,.12-4.79,.12-3.45,0-7.32,0-7.32-3.42,0-.55,.05-1.76,1.18-3.23l1.54,.63Zm.89-8.1c.31,0,.39-.02,.99-.02,4.65,0,6.77,.39,8.12,.6l-.53,3.06c-1.73-.7-4.53-1.83-8.72-1.95l.14-1.69Z"/><path class="e" d="M480.65,69c.75,.19,.79,.29,.79,.41,0,.1-.26,.55-.31,.67-.07,.29-.48,2.12-.67,2.89,1.71,.43,6.29,1.61,6.29,7.49s-4.99,8.22-10.19,8.5l-.36-1.57c4.55-.36,7.06-2.92,7.06-7.28,0-3.88-2.36-4.84-3.3-5.23-.82,3.01-3.66,13.28-9.01,13.28-2.46,0-4.19-2.22-4.19-5.57,0-4.12,2.39-6.31,3.49-7.32-.24-1.47-.48-3.25-.67-5.37l2.72-.22c.72-.05,.72,.07,.72,.22,0,.1-.1,.65-.1,.77s.02,1.18,.17,2.84c1.45-.58,2.41-.79,3.98-.89,.17-.99,.38-2.34,.58-4.43l3.01,.79Zm-9.88,8.84c-.51,.75-1.64,2.41-1.64,5.25,0,1.2,.29,3.11,1.61,3.11,.99,0,1.73-1.04,2.41-2-1.21-2.02-1.74-3.73-2.39-6.36Zm3.86,3.4c.65-1.59,1.28-3.33,2.1-6.92-1.04,.1-2.02,.26-3.45,1.04,.24,1.71,.55,3.59,1.35,5.88Z"/><path class="e" d="M501.42,86.81c1.61-.34,6.31-1.35,6.31-8.48,0-2.38-.65-6.07-5.42-7.06-.67,9.25-2.07,16.19-6.72,16.19-3.42,0-5.57-3.49-5.57-7.3,0-5.52,4.07-10.75,11.28-10.75,5.11,0,10.07,2.55,10.07,9.2,0,8.19-7.35,9.44-9.44,9.81l-.51-1.61Zm-8.46-5.93c0,3.4,1.08,4.67,2.26,4.67s3.13-4.48,3.61-14.26c-5.64,1.71-5.88,7.93-5.88,9.59Z"/><path class="e" d="M516.09,68.79h3.73v19.18h-3.73v-19.18Z"/><path class="e" d="M533.32,70.35v17.61h-3.73v-17.61h-5.78v-1.57h15.3v1.57h-5.78Z"/><path class="e" d="M546.14,75.54h-1.11c-.82,0-2.34,.02-3.11,.07v-1.69c.48,.05,2.55,.07,3.08,.07h1.13v-3.08c0-.31,0-1.71-.1-2.48l3.23,.19c.53,.02,.53,.1,.53,.17,0,.12-.14,.6-.14,.72v4.48h5.33v-3.54c0-.14,0-1.25-.05-2.02l3.23,.22c.34,.02,.55,.02,.55,.19,0,.12-.14,.75-.14,.89v4.26h.92c.82,0,2.22,0,3.01-.07v1.69c-.7-.05-2.05-.07-2.87-.07h-1.06c0,3.88-.02,5.88-1.23,8.29-2.07,4.1-6.14,4.77-8.99,5.25l-.75-1.52c2.43-.36,5.83-.89,6.99-5.66,.39-1.57,.39-3.33,.39-6.36h-5.33v1.61c0,3.08,0,3.42,.02,4.82h-3.64c.1-1.16,.1-3.59,.1-4.79v-1.64Z"/><path class="e" d="M565.32,84.67c3.18-2.84,4.43-5.3,5.35-7.49l1.49,.65c-.46,1.86-1.33,5.25-4.07,9.28l-2.77-2.43Zm8.92-13.59c0-.7,0-1.59-.02-2.38l3.04,.19c.22,.02,.67,.05,.67,.22,0,.12-.17,.65-.17,.79v3.47h3.49c.7,0,2.24,0,4.22-.07v1.69c-1.78-.07-3.49-.07-4.14-.07h-3.57v11.16c0,1.98-.75,2.94-2.51,2.94-.34,0-2.1,0-4.75-1.04l.48-1.57c.65,.29,1.49,.6,2.26,.6,.72,0,.99-.31,.99-1.11v-10.99h-3.83c-2.02,0-2.99,.02-3.95,.07v-1.69c1.08,.05,1.98,.07,3.95,.07h3.83v-2.29Zm9.06,15.78c-.82-2.99-2.19-6.46-3.88-9.04l1.42-.92c1.28,1.42,3.04,3.45,5.61,7.73l-3.16,2.22Zm.22-19.9c1.4,0,2.48,1.13,2.48,2.48s-1.06,2.5-2.48,2.5c-1.35,0-2.43-1.13-2.43-2.5s1.11-2.48,2.43-2.48Zm.02,1.28c-.7,0-1.21,.55-1.21,1.21s.53,1.23,1.18,1.23c.7,0,1.21-.58,1.21-1.23s-.51-1.21-1.18-1.21Z"/><path class="e" d="M589.24,77.75c1.69,0,5.23,.02,5.98,.02h9.18c1.9,0,4.1,0,6.05-.02v2.07c-1.45-.02-4.43-.02-5.97-.02h-9.18c-4.19,0-4.72,0-6.05,.02v-2.07Z"/><path class="e" d="M614.83,71.49c0-1.61-.02-2.39-.05-3.01l3.18,.24c.17,.02,.51,.05,.51,.22,0,.12-.14,.72-.14,.84v5.69c2,.41,5.59,1.13,9.9,3.97l-2.48,2.92c-1.08-1.13-3.35-3.54-7.42-5.13v6.72c0,.19,.02,4.43,.02,5.04h-3.57c.05-1.52,.05-3.61,.05-5.13v-12.36Z"/><path class="e" d="M632.97,72.43c-.14,4.7-.24,6.87-.87,9.11l-1.88-1.95c.99-2.22,1.25-6.29,1.3-7.57l1.45,.41Zm3.78-4.92s.17,.12,.17,.24c0,.07-.05,.29-.12,.55v21.78h-3.06v-20.67c0-.82-.07-1.61-.1-1.98l3.11,.07Zm15.3,4.75v1.35h-4.43v1.73h5.73v1.33h-14.75v-1.04l-.75,.51c-.1-2.1-.72-3.76-.96-4.41l.99-.75c.67,.87,1.76,2.58,2.24,3.61l-1.08,.75h5.25v-1.73h-4.26v-1.35h4.26v-1.49h-5.16v-1.35h5.16v-.43c0-.48-.02-.75-.14-1.54l3.4,.05s.19,.1,.19,.29c0,.12-.05,.27-.12,.51v1.13h5.16v1.35h-5.16v1.49h4.43Zm-9.04,13.37v4.46h-3.18v-12.02h12.19v9.61c0,2.12-1.33,2.22-2.46,2.22h-3.25l-.48-1.49c1.13,.12,2.07,.14,2.12,.14,.87,0,.87-.34,.87-1.06v-1.86h-5.81Zm5.81-4.48v-1.76h-5.81v1.76h5.81Zm0,3.16v-1.81h-5.81v1.81h5.81Z"/><path class="e" d="M662.92,83.77h3.18v1.33h-3.18v4.94h-3.23v-4.94h-3.37v-1.33h3.37v-2.82h-3.76v-1.35h2.05c-.1-.46-.46-2.24-1.16-3.85l.96-.55h-1.88v-1.35h3.81v-2.65h-3.23v-1.35h3.23v-.77c0-.1,0-.89-.07-1.59l3.2,.05c.17,0,.22,.19,.22,.27,0,.14-.1,.36-.14,.48v1.57h3.18v1.35h-3.18v2.65h3.52v1.35h-2.55l2.6,1.06s.1,.1,.1,.14c0,.19-2.31,2.67-2.87,3.2h2.72v1.35h-3.52v2.82Zm-4.84-8.58c.34,.31,2.14,2.34,2.82,3.35l-2.29,1.06h4.87l-1.25-.58c.72-1.64,.96-3.28,1.04-3.83h-5.18Zm19.76,14.72c-.89-.39-2-.87-3.54-2.31-1.01,1.01-2.05,1.69-2.87,2.22l-.94-.87v1.08h-3.25v-21.64h10.58c.02,6.65-.55,7.49-3.4,7.49h-2.41l-.41-1.47c.51,.17,1.06,.24,1.57,.24,.89,0,1.28-.02,1.35-4.92h-4.02v7.42h7.61c-.07,1.45-.31,5.76-2.55,8.92,1.3,1.59,2.63,2.34,3.28,2.7l-.99,1.13Zm-5.01-10.5c.14,.92,.39,2.46,1.21,4.19,.53-2.12,.58-4.31,.6-5.08h-4.14v1.4l2.34-.51Zm-2.34,9.28c1.01-.84,1.76-1.54,2.48-2.6-1.08-1.45-1.86-3.11-2.48-4.82v7.42Z"/><path class="e" d="M685.19,75.54h-1.11c-.82,0-2.34,.02-3.11,.07v-1.69c.48,.05,2.55,.07,3.08,.07h1.13v-3.08c0-.31,0-1.71-.1-2.48l3.23,.19c.53,.02,.53,.1,.53,.17,0,.12-.14,.6-.14,.72v4.48h5.33v-3.54c0-.14,0-1.25-.05-2.02l3.23,.22c.34,.02,.55,.02,.55,.19,0,.12-.14,.75-.14,.89v4.26h.92c.82,0,2.22,0,3.01-.07v1.69c-.7-.05-2.05-.07-2.87-.07h-1.06c0,3.88-.02,5.88-1.23,8.29-2.07,4.1-6.14,4.77-8.99,5.25l-.75-1.52c2.43-.36,5.83-.89,6.99-5.66,.39-1.57,.39-3.33,.39-6.36h-5.33v1.61c0,3.08,0,3.42,.02,4.82h-3.64c.1-1.16,.1-3.59,.1-4.79v-1.64Z"/><path class="e" d="M701.5,79.12c6.46-1.98,11.3-4.79,15.88-11.57l3.01,1.9c.07,.05,.46,.29,.46,.41s-.6,.51-.72,.63c-1.54,1.71-3.66,3.49-5.08,4.58v11.08c0,.41,.02,2.96,.05,3.28h-3.57c.02-.34,.02-2.82,.02-3.25v-9.04c-2.26,1.18-4.51,2.19-9.47,3.3l-.58-1.33Z"/><path class="e" d="M725.09,71.49c0-1.61-.02-2.39-.05-3.01l3.18,.24c.17,.02,.51,.05,.51,.22,0,.12-.14,.72-.14,.84v5.69c2,.41,5.59,1.13,9.9,3.97l-2.48,2.92c-1.08-1.13-3.35-3.54-7.42-5.13v6.72c0,.19,.02,4.43,.02,5.04h-3.57c.05-1.52,.05-3.61,.05-5.13v-12.36Z"/></g><polygon class="f" points="74.4 94.78 37.2 94.78 0 94.78 28.29 48.03 0 1.29 37.2 1.29 74.4 1.29 102.69 48.03 74.4 94.78"/><g><path class="d" d="M70.33,52.63c.88-.83,1.58-2.35,1.94-3.23,.53-1.32,1.02-2.74,1.02-4.35,0-.85-.65-1.34-.94-1.54-.97,1.57-2.62,2.78-2.8,2.56-.31-.39,3.26-3.72,3.1-6.5-.06-1.11-.79-1.72-1.26-1.98,0,0-2.67,3.07-3.06,2.55-.39-.52,2.78-3.94,2.78-3.94,.03-.04,.86-1,.38-2.26-.44-1.15-1.42-1.26-1.73-1.26,0,0-4.07,2.2-4.35,1.59-.28-.61,3.86-2.63,3.86-2.63,.23-.26,1.14-1.4,.36-3.01-.68-1.4-2.5-1.23-3.25-1.09-.95,.18-4.1,1.05-6.54,1.99-.03,.02-.07,.05-.1,.06,0,0-2.1,.92-2.63,1.32-.41,.35-1.02,.76-1.75,1.22-1.29,.88-2,1.29-2.4,1.52-.52,.34-1.05,.69-1.56,1.04,.8,.82,1.55,1.86,1.83,3.05,.23,.98-.21,2.16-1.1,2.94-.26,.23-.53,.4-.82,.52,.49,.74,.91,1.73,.84,2.69-.05,.68-.37,1.64-1.61,2.33-.11,.06-.23,.11-.36,.15,.17,.53,.34,1.4,.11,2.29-.36,1.41-1.4,2.21-2.85,2.21h0c-.12,0-.24,0-.37-.02-.21-.02-.41-.05-.6-.08-.39,1.19-1.28,2.53-2.98,2.53h0c-.21,0-.44-.02-.66-.06-1.1-.21-2.05-.67-2.91-1.4-.47,.62-.91,1.19-1.3,1.68l11.28,9.83c1.29-1.58,3.43-3.95,5.1-4.46,1.08-.34,1.9-.5,2.77-.68,1.01-.21,2.06-.42,3.65-.93,4.01-1.27,7.99-3.85,8.87-4.68Z"/><path class="d" d="M64.78,63.23l11.05-9.63-2.92-2.97c-.61,1.35-1.17,2.22-1.9,2.92-.73,.7-5.04,3.53-9.21,4.86-1.65,.52-2.73,.74-3.77,.96-.03,0-.07,.01-.1,.02,.96,.47,2.28,1.06,3.5,1.44,.79,.25,1.57,.71,2.32,1.39,.38,.34,.73,.7,1.03,1.02Z"/><path class="d" d="M40.26,50.59c.12,.13,.25,.25,.38,.36,.71,.63,1.51,1.02,2.43,1.19,.16,.03,.31,.04,.45,.04,1.11,0,1.63-.97,1.88-1.72-.82-.34-1.67-.89-2.88-1.71-.02-.01-.04-.03-.05-.04-.06-.05-.11-.1-.16-.14-.3-.27-.58-.54-.84-.8-.52-.54-.95-1.08-1.28-1.61-.33,.49-.66,1.07-.76,1.57-.17,.81,0,1.65,.43,2.34,.12,.18,.24,.36,.4,.52Z"/><path class="d" d="M40.99,45.25c.27,.5,.64,1.01,1.12,1.54,.02,.02,.04,.04,.06,.06,.23,.25,.49,.51,.78,.76,.09,.08,.17,.16,.26,.24,.37,.25,.7,.48,1.01,.67,.72,.47,1.27,.77,1.78,.96,.25,.1,.5,.16,.75,.21,.15,.03,.31,.05,.47,.06,1.07,.09,1.76-.36,2.01-1.35,.2-.78-.05-1.58-.17-1.9-1.15-.1-2.67-.73-4.52-1.89h-.01s-.05-.04-.07-.06l-.39-.35c-.15-.13-.28-.25-.42-.37-.69-.61-1.18-1.11-1.99-2.22-.15-.21-.28-.41-.39-.61-.34,.4-.83,1.2-.78,2.43,.01,.29,.07,.58,.15,.87,.09,.31,.22,.62,.38,.93Z"/><path class="d" d="M42.55,40.95c.22,.3,.41,.56,.59,.78,.34,.42,.64,.72,.98,1.04,.2,.18,.41,.37,.66,.59l.23,.2,.13,.11c1.2,.75,2.11,1.18,2.81,1.43,.63,.22,1.08,.29,1.4,.29h0s.04,0,.06,0c.24,0,.44-.05,.59-.14,.65-.36,.98-.82,1.02-1.41,.06-.86-.52-1.86-.99-2.42-.19-.02-.38-.06-.56-.13-.67-.25-1.67-.81-2.64-1.44-.32-.21-.65-.43-.95-.65-.37-.27-.71-.53-1-.78-.5-.45-1.01-1.08-1.39-1.81-.48,.18-1.21,.58-1.54,1.43-.28,.73-.25,1.4,.13,2.15,.12,.24,.28,.49,.47,.76Z"/><path class="d" d="M44.89,36.71c.23,.32,.49,.61,.75,.85,.24,.2,.52,.42,.82,.64,.3,.22,.62,.44,.94,.65,.53,.34,1.07,.67,1.54,.92,.36,.19,.68,.34,.94,.44,.23,.09,.45,.1,.66,.06,.37-.06,.67-.27,.85-.43,.56-.5,.87-1.26,.74-1.82-.24-1.03-.97-1.95-1.66-2.63-.24-.24-.48-.45-.69-.62-.13,.01-.27,.02-.4,.03-.07,0-.14,0-.21,0h0c-1.28,0-2.2-.42-2.59-.78-.32-.29-.51-.72-.51-1.2,0-.32,.08-.64,.22-.96-.02,0-.04,0-.05,0-1.25,.34-2.04,1.12-2.17,2.14-.06,.5,.02,1.01,.19,1.5,.15,.42,.37,.83,.63,1.19Z"/><path class="d" d="M48.22,33.56c.27,.06,.59,.11,.96,.11h0s.08,0,.12,0c.27,0,.54-.04,.82-.09,.33-.06,.66-.15,.99-.27,.2-.07,.4-.16,.6-.25,.04-.02,.07-.04,.11-.05,.1-.05,.2-.1,.3-.15l.1-.06s.11-.06,.17-.1l.04-.02c.39-.22,1.07-.62,2.31-1.46,.48-.32,1.06-.69,1.7-1.19,.61-.47,2.04-1.07,2.04-1.07l-.05-.04c-.55-.47-1.38-1.15-2.28-1.72-.65-.42-1.21-.61-1.75-.61-.5,0-1.03,.17-1.65,.52-.67,.38-1.7,1.41-2.79,2.5-.49,.49-.99,.99-1.51,1.47-.16,.15-.32,.31-.48,.46-.05,.05-.11,.1-.16,.15-.15,.14-.28,.3-.38,.47-.02,.03-.03,.05-.04,.08-.1,.2-.16,.4-.17,.59h0c0,.17,.04,.29,.13,.36,.13,.12,.44,.27,.87,.38Z"/><path class="d" d="M50.08,65.03l-.86-.75-11.28-9.84-.86-.75-.47-.41c-.12-.1-.27-.16-.43-.16-.19,0-.37,.08-.5,.22l-2.59,2.97c-.11,.13-.17,.3-.16,.48,.01,.18,.09,.34,.22,.45l13.69,11.94c.26,.23,.7,.2,.93-.06l2.59-2.97c.11-.13,.17-.3,.16-.48-.01-.18-.09-.34-.22-.45l-.22-.19Z"/><path class="d" d="M81.44,56.32l-2.59-2.97c-.12-.14-.31-.22-.5-.22-.16,0-.31,.06-.43,.16l-.47,.41-11.62,10.13-.3,.26-.86,.75-.44,.39c-.13,.11-.21,.28-.22,.45-.01,.18,.04,.35,.16,.48l2.59,2.97c.23,.26,.67,.29,.93,.06l13.69-11.94c.13-.11,.21-.27,.22-.45,.01-.18-.04-.35-.16-.48Z"/></g></g></g></svg>